<svg version="1.1" viewBox="0.0 0.0 476.0 371.0" fill="none" stroke="none" stroke-linecap="square" stroke-miterlimit="10" width="476" height="371" xmlns:xlink="http://www.w3.org/1999/xlink" xmlns="http://www.w3.org/2000/svg"><path fill="#ffffff" d="M0 0L476.0 0L476.0 371.0L0 371.0L0 0Z" fill-rule="nonzero"/><path stroke="#333333" stroke-width="1.0" stroke-linecap="butt" d="M77.5 300.5L457.5 300.5" fill-rule="nonzero"/><path stroke="#cccccc" stroke-width="1.0" stroke-linecap="butt" d="M77.5 252.5L457.5 252.5" fill-rule="nonzero"/><path stroke="#cccccc" stroke-width="1.0" stroke-linecap="butt" d="M77.5 205.5L457.5 205.5" fill-rule="nonzero"/><path stroke="#cccccc" stroke-width="1.0" stroke-linecap="butt" d="M77.5 157.5L457.5 157.5" fill-rule="nonzero"/><path stroke="#cccccc" stroke-width="1.0" stroke-linecap="butt" d="M77.5 109.5L457.5 109.5" fill-rule="nonzero"/><path stroke="#cccccc" stroke-width="1.0" stroke-linecap="butt" d="M77.5 61.5L457.5 61.5" fill-rule="nonzero"/><path stroke="#e6e6e6" stroke-width="1.0" stroke-linecap="butt" d="M77.5 284.5L457.5 284.5" fill-rule="nonzero"/><path stroke="#e6e6e6" stroke-width="1.0" stroke-linecap="butt" d="M77.5 268.5L457.5 268.5" fill-rule="nonzero"/><path stroke="#e6e6e6" stroke-width="1.0" stroke-linecap="butt" d="M77.5 236.5L457.5 236.5" fill-rule="nonzero"/><path stroke="#e6e6e6" stroke-width="1.0" stroke-linecap="butt" d="M77.5 220.5L457.5 220.5" fill-rule="nonzero"/><path stroke="#e6e6e6" stroke-width="1.0" stroke-linecap="butt" d="M77.5 189.5L457.5 189.5" fill-rule="nonzero"/><path stroke="#e6e6e6" stroke-width="1.0" stroke-linecap="butt" d="M77.5 173.5L457.5 173.5" fill-rule="nonzero"/><path stroke="#e6e6e6" stroke-width="1.0" stroke-linecap="butt" d="M77.5 141.5L457.5 141.5" fill-rule="nonzero"/><path stroke="#e6e6e6" stroke-width="1.0" stroke-linecap="butt" d="M77.5 125.5L457.5 125.5" fill-rule="nonzero"/><path stroke="#e6e6e6" stroke-width="1.0" stroke-linecap="butt" d="M77.5 93.5L457.5 93.5" fill-rule="nonzero"/><path stroke="#e6e6e6" stroke-width="1.0" stroke-linecap="butt" d="M77.5 77.5L457.5 77.5" fill-rule="nonzero"/><clipPath id="id_0"><path d="M77.55 61.916668L457.45 61.916668L457.45 300.45L77.55 300.45L77.55 61.916668Z" clip-rule="nonzero"/></clipPath><path stroke="#000000" stroke-width="2.0" stroke-linecap="butt" stroke-opacity="0.0" clip-path="url(#id_0)" d="M401.0 300.0L296.0 300.0L296.0 102.0C296.0 100.89543 296.89542 100.0 298.0 100.0L399.0 100.0C400.10458 100.0 401.0 100.89543 401.0 102.0Z" fill-rule="nonzero"/><path fill="#6fa8dc" clip-path="url(#id_0)" d="M401.0 300.0L296.0 300.0L296.0 102.0C296.0 100.89543 296.89542 100.0 298.0 100.0L399.0 100.0C400.10458 100.0 401.0 100.89543 401.0 102.0Z" fill-rule="nonzero"/><path stroke="#000000" stroke-width="2.0" stroke-linecap="butt" stroke-opacity="0.0" clip-path="url(#id_0)" d="M240.0 300.0L135.0 300.0L135.0 131.0C135.0 129.89543 135.89543 129.0 137.0 129.0L238.0 129.0C239.10457 129.0 240.0 129.89543 240.0 131.0Z" fill-rule="nonzero"/><path fill="#c27ba0" clip-path="url(#id_0)" d="M240.0 300.0L135.0 300.0L135.0 131.0C135.0 129.89543 135.89543 129.0 137.0 129.0L238.0 129.0C239.10457 129.0 240.0 129.89543 240.0 131.0Z" fill-rule="nonzero"/><path stroke="#6fa8dc" stroke-width="3.0" stroke-linejoin="round" stroke-linecap="round" d="M343.57812 114.35075L343.57812 115.882L337.79688 115.882Q337.89062 115.007 338.35938 114.24138Q338.82812 113.46013 340.21875 112.17888Q341.32812 111.14763 341.57812 110.77263Q341.92188 110.257 341.92188 109.757Q341.92188 109.21013 341.625 108.91325Q341.32812 108.61638 340.8125 108.61638Q340.29688 108.61638 339.98438 108.92888Q339.6875 109.24138 339.64062 109.96013L338.0 109.80388Q338.14062 108.4445 338.90625 107.85075Q339.6875 107.257 340.84375 107.257Q342.125 107.257 342.84375 107.9445Q343.57812 108.632 343.57812 109.64763Q343.57812 110.22575 343.35938 110.757Q343.15625 111.27263 342.70312 111.85075Q342.40625 112.22575 341.625 112.9445Q340.84375 113.66325 340.64062 113.89763Q340.4375 114.132 340.29688 114.35075L343.57812 114.35075ZM349.21875 115.882L347.57812 115.882L347.57812 109.67888Q346.67188 110.52263 345.45312 110.92888L345.45312 109.42888Q346.09375 109.22575 346.84375 108.632Q347.60938 108.03825 347.89062 107.257L349.21875 107.257L349.21875 115.882ZM354.79688 107.257Q356.04688 107.257 356.75 108.14763Q357.57812 109.1945 357.57812 111.64763Q357.57812 114.08513 356.73438 115.14763Q356.04688 116.02263 354.79688 116.02263Q353.54688 116.02263 352.76562 115.0695Q352.0 114.10075 352.0 111.632Q352.0 109.1945 352.84375 108.132Q353.54688 107.257 354.79688 107.257ZM354.79688 108.61638Q354.5 108.61638 354.26562 108.8195Q354.03125 109.007 353.89062 109.49138Q353.73438 110.132 353.73438 111.64763Q353.73438 113.16325 353.875 113.72575Q354.03125 114.28825 354.26562 114.47575Q354.5 114.66325 354.79688 114.66325Q355.09375 114.66325 355.32812 114.47575Q355.5625 114.28825 355.6875 113.78825Q355.85938 113.16325 355.85938 111.64763Q355.85938 110.132 355.70312 109.5695Q355.5625 109.007 355.32812 108.8195Q355.09375 108.61638 354.79688 108.61638Z" fill-rule="nonzero"/><path fill="#434343" d="M343.57812 114.35075L343.57812 115.882L337.79688 115.882Q337.89062 115.007 338.35938 114.24138Q338.82812 113.46013 340.21875 112.17888Q341.32812 111.14763 341.57812 110.77263Q341.92188 110.257 341.92188 109.757Q341.92188 109.21013 341.625 108.91325Q341.32812 108.61638 340.8125 108.61638Q340.29688 108.61638 339.98438 108.92888Q339.6875 109.24138 339.64062 109.96013L338.0 109.80388Q338.14062 108.4445 338.90625 107.85075Q339.6875 107.257 340.84375 107.257Q342.125 107.257 342.84375 107.9445Q343.57812 108.632 343.57812 109.64763Q343.57812 110.22575 343.35938 110.757Q343.15625 111.27263 342.70312 111.85075Q342.40625 112.22575 341.625 112.9445Q340.84375 113.66325 340.64062 113.89763Q340.4375 114.132 340.29688 114.35075L343.57812 114.35075ZM349.21875 115.882L347.57812 115.882L347.57812 109.67888Q346.67188 110.52263 345.45312 110.92888L345.45312 109.42888Q346.09375 109.22575 346.84375 108.632Q347.60938 108.03825 347.89062 107.257L349.21875 107.257L349.21875 115.882ZM354.79688 107.257Q356.04688 107.257 356.75 108.14763Q357.57812 109.1945 357.57812 111.64763Q357.57812 114.08513 356.73438 115.14763Q356.04688 116.02263 354.79688 116.02263Q353.54688 116.02263 352.76562 115.0695Q352.0 114.10075 352.0 111.632Q352.0 109.1945 352.84375 108.132Q353.54688 107.257 354.79688 107.257ZM354.79688 108.61638Q354.5 108.61638 354.26562 108.8195Q354.03125 109.007 353.89062 109.49138Q353.73438 110.132 353.73438 111.64763Q353.73438 113.16325 353.875 113.72575Q354.03125 114.28825 354.26562 114.47575Q354.5 114.66325 354.79688 114.66325Q355.09375 114.66325 355.32812 114.47575Q355.5625 114.28825 355.6875 113.78825Q355.85938 113.16325 355.85938 111.64763Q355.85938 110.132 355.70312 109.5695Q355.5625 109.007 355.32812 108.8195Q355.09375 108.61638 354.79688 108.61638Z" fill-rule="nonzero"/><path stroke="#c27ba0" stroke-width="3.0" stroke-linejoin="round" stroke-linecap="round" d="M181.21875 144.506L179.57812 144.506L179.57812 138.30287Q178.67188 139.14662 177.45312 139.55287L177.45312 138.05287Q178.09375 137.84975 178.84375 137.256Q179.60938 136.66225 179.89062 135.881L181.21875 135.881L181.21875 144.506ZM185.42188 139.86537Q184.78125 139.59975 184.48438 139.131Q184.20312 138.66225 184.20312 138.09975Q184.20312 137.131 184.875 136.506Q185.54688 135.881 186.78125 135.881Q188.0 135.881 188.67188 136.506Q189.35938 137.131 189.35938 138.09975Q189.35938 138.6935 189.04688 139.16225Q188.73438 139.631 188.17188 139.86537Q188.89062 140.16225 189.26562 140.70912Q189.64062 141.256 189.64062 141.97475Q189.64062 143.16225 188.875 143.91225Q188.125 144.66225 186.85938 144.66225Q185.6875 144.66225 184.90625 144.03725Q183.98438 143.3185 183.98438 142.05287Q183.98438 141.34975 184.32812 140.77162Q184.67188 140.1935 185.42188 139.86537ZM185.76562 138.20912Q185.76562 138.70912 186.03125 138.99037Q186.3125 139.256 186.78125 139.256Q187.25 139.256 187.53125 138.97475Q187.8125 138.6935 187.8125 138.20912Q187.8125 137.74037 187.53125 137.47475Q187.25 137.1935 186.79688 137.1935Q186.32812 137.1935 186.04688 137.47475Q185.76562 137.756 185.76562 138.20912ZM185.60938 141.89662Q185.60938 142.5685 185.95312 142.95912Q186.3125 143.33412 186.82812 143.33412Q187.34375 143.33412 187.67188 142.97475Q188.0 142.59975 188.0 141.91225Q188.0 141.30287 187.65625 140.9435Q187.32812 140.5685 186.8125 140.5685Q186.20312 140.5685 185.90625 140.99037Q185.60938 141.41225 185.60938 141.89662ZM193.79688 135.881Q195.04688 135.881 195.75 136.77162Q196.57812 137.8185 196.57812 140.27162Q196.57812 142.70912 195.73438 143.77162Q195.04688 144.64662 193.79688 144.64662Q192.54688 144.64662 191.76562 143.6935Q191.0 142.72475 191.0 140.256Q191.0 137.8185 191.84375 136.756Q192.54688 135.881 193.79688 135.881ZM193.79688 137.24037Q193.5 137.24037 193.26562 137.4435Q193.03125 137.631 192.89062 138.11537Q192.73438 138.756 192.73438 140.27162Q192.73438 141.78725 192.875 142.34975Q193.03125 142.91225 193.26562 143.09975Q193.5 143.28725 193.79688 143.28725Q194.09375 143.28725 194.32812 143.09975Q194.5625 142.91225 194.6875 142.41225Q194.85938 141.78725 194.85938 140.27162Q194.85938 138.756 194.70312 138.1935Q194.5625 137.631 194.32812 137.4435Q194.09375 137.24037 193.79688 137.24037Z" fill-rule="nonzero"/><path fill="#434343" d="M181.21875 144.506L179.57812 144.506L179.57812 138.30287Q178.67188 139.14662 177.45312 139.55287L177.45312 138.05287Q178.09375 137.84975 178.84375 137.256Q179.60938 136.66225 179.89062 135.881L181.21875 135.881L181.21875 144.506ZM185.42188 139.86537Q184.78125 139.59975 184.48438 139.131Q184.20312 138.66225 184.20312 138.09975Q184.20312 137.131 184.875 136.506Q185.54688 135.881 186.78125 135.881Q188.0 135.881 188.67188 136.506Q189.35938 137.131 189.35938 138.09975Q189.35938 138.6935 189.04688 139.16225Q188.73438 139.631 188.17188 139.86537Q188.89062 140.16225 189.26562 140.70912Q189.64062 141.256 189.64062 141.97475Q189.64062 143.16225 188.875 143.91225Q188.125 144.66225 186.85938 144.66225Q185.6875 144.66225 184.90625 144.03725Q183.98438 143.3185 183.98438 142.05287Q183.98438 141.34975 184.32812 140.77162Q184.67188 140.1935 185.42188 139.86537ZM185.76562 138.20912Q185.76562 138.70912 186.03125 138.99037Q186.3125 139.256 186.78125 139.256Q187.25 139.256 187.53125 138.97475Q187.8125 138.6935 187.8125 138.20912Q187.8125 137.74037 187.53125 137.47475Q187.25 137.1935 186.79688 137.1935Q186.32812 137.1935 186.04688 137.47475Q185.76562 137.756 185.76562 138.20912ZM185.60938 141.89662Q185.60938 142.5685 185.95312 142.95912Q186.3125 143.33412 186.82812 143.33412Q187.34375 143.33412 187.67188 142.97475Q188.0 142.59975 188.0 141.91225Q188.0 141.30287 187.65625 140.9435Q187.32812 140.5685 186.8125 140.5685Q186.20312 140.5685 185.90625 140.99037Q185.60938 141.41225 185.60938 141.89662ZM193.79688 135.881Q195.04688 135.881 195.75 136.77162Q196.57812 137.8185 196.57812 140.27162Q196.57812 142.70912 195.73438 143.77162Q195.04688 144.64662 193.79688 144.64662Q192.54688 144.64662 191.76562 143.6935Q191.0 142.72475 191.0 140.256Q191.0 137.8185 191.84375 136.756Q192.54688 135.881 193.79688 135.881ZM193.79688 137.24037Q193.5 137.24037 193.26562 137.4435Q193.03125 137.631 192.89062 138.11537Q192.73438 138.756 192.73438 140.27162Q192.73438 141.78725 192.875 142.34975Q193.03125 142.91225 193.26562 143.09975Q193.5 143.28725 193.79688 143.28725Q194.09375 143.28725 194.32812 143.09975Q194.5625 142.91225 194.6875 142.41225Q194.85938 141.78725 194.85938 140.27162Q194.85938 138.756 194.70312 138.1935Q194.5625 137.631 194.32812 137.4435Q194.09375 137.24037 193.79688 137.24037Z" fill-rule="nonzero"/><path fill="#000000" d="M251.875 346.29376L251.875 344.84064L255.60938 344.84064L255.60938 348.2625Q255.0625 348.79376 254.03125 349.2Q253.0 349.59064 251.9375 349.59064Q250.59375 349.59064 249.57812 349.02814Q248.57812 348.46564 248.07812 347.41876Q247.57812 346.35626 247.57812 345.1219Q247.57812 343.77814 248.14062 342.7469Q248.70312 341.7 249.78125 341.1375Q250.60938 340.71564 251.84375 340.71564Q253.4375 340.71564 254.32812 341.3875Q255.23438 342.0594 255.5 343.23126L253.78125 343.5594Q253.59375 342.9344 253.09375 342.575Q252.59375 342.2 251.84375 342.2Q250.70312 342.2 250.03125 342.91876Q249.35938 343.6375 249.35938 345.0594Q249.35938 346.59064 250.03125 347.35626Q250.71875 348.10626 251.82812 348.10626Q252.375 348.10626 252.92188 347.90314Q253.46875 347.6844 253.85938 347.3875L253.85938 346.29376L251.875 346.29376ZM259.46875 347.46564L261.10938 347.7469Q260.79688 348.65314 260.10938 349.1219Q259.42188 349.59064 258.40625 349.59064Q256.78125 349.59064 256.0 348.52814Q255.375 347.6844 255.375 346.3875Q255.375 344.84064 256.1875 343.96564Q257.0 343.09064 258.23438 343.09064Q259.625 343.09064 260.42188 344.0125Q261.23438 344.91876 261.1875 346.8094L257.0625 346.8094Q257.09375 347.54376 257.46875 347.95Q257.84375 348.35626 258.42188 348.35626Q258.79688 348.35626 259.0625 348.15314Q259.32812 347.9344 259.46875 347.46564ZM259.5625 345.8094Q259.54688 345.09064 259.1875 344.71564Q258.84375 344.34064 258.32812 344.34064Q257.79688 344.34064 257.4375 344.73126Q257.09375 345.1375 257.09375 345.8094L259.5625 345.8094ZM268.51562 349.45L266.875 349.45L266.875 346.27814Q266.875 345.2625 266.76562 344.96564Q266.67188 344.66876 266.42188 344.5125Q266.1875 344.34064 265.85938 344.34064Q265.42188 344.34064 265.07812 344.575Q264.75 344.8094 264.625 345.2Q264.5 345.59064 264.5 346.6375L264.5 349.45L262.84375 349.45L262.84375 343.23126L264.375 343.23126L264.375 344.1375Q265.1875 343.09064 266.4375 343.09064Q266.96875 343.09064 267.42188 343.29376Q267.875 343.48126 268.10938 343.79376Q268.34375 344.09064 268.42188 344.48126Q268.51562 344.85626 268.51562 345.575L268.51562 349.45ZM275.5625 349.45L274.04688 349.45L274.04688 348.52814Q273.65625 349.075 273.14062 349.34064Q272.625 349.59064 272.09375 349.59064Q271.01562 349.59064 270.25 348.73126Q269.5 347.85626 269.5 346.3094Q269.5 344.73126 270.23438 343.91876Q270.98438 343.09064 272.125 343.09064Q273.15625 343.09064 273.92188 343.95L273.92188 340.85626L275.5625 340.85626L275.5625 349.45ZM271.17188 346.2Q271.17188 347.2 271.45312 347.6375Q271.84375 348.29376 272.5625 348.29376Q273.125 348.29376 273.51562 347.8094Q273.92188 347.325 273.92188 346.35626Q273.92188 345.29376 273.53125 344.825Q273.15625 344.34064 272.54688 344.34064Q271.96875 344.34064 271.5625 344.8094Q271.17188 345.27814 271.17188 346.2ZM280.46875 347.46564L282.10938 347.7469Q281.79688 348.65314 281.10938 349.1219Q280.42188 349.59064 279.40625 349.59064Q277.78125 349.59064 277.0 348.52814Q276.375 347.6844 276.375 346.3875Q276.375 344.84064 277.1875 343.96564Q278.0 343.09064 279.23438 343.09064Q280.625 343.09064 281.42188 344.0125Q282.23438 344.91876 282.1875 346.8094L278.0625 346.8094Q278.09375 347.54376 278.46875 347.95Q278.84375 348.35626 279.42188 348.35626Q279.79688 348.35626 280.0625 348.15314Q280.32812 347.9344 280.46875 347.46564ZM280.5625 345.8094Q280.54688 345.09064 280.1875 344.71564Q279.84375 344.34064 279.32812 344.34064Q278.79688 344.34064 278.4375 344.73126Q278.09375 345.1375 278.09375 345.8094L280.5625 345.8094ZM285.4375 349.45L283.79688 349.45L283.79688 343.23126L285.32812 343.23126L285.32812 344.10626Q285.71875 343.48126 286.03125 343.29376Q286.34375 343.09064 286.73438 343.09064Q287.29688 343.09064 287.82812 343.40314L287.3125 344.825Q286.89062 344.5594 286.54688 344.5594Q286.1875 344.5594 285.95312 344.7625Q285.71875 344.95 285.57812 345.45Q285.4375 345.9344 285.4375 347.52814L285.4375 349.45Z" fill-rule="nonzero"/><path fill="#000000" d="M25.221888 212.08958L24.956263 213.58958Q24.050013 213.33958 23.628138 212.73021Q23.190638 212.10521 23.190638 210.88646Q23.190638 209.79271 23.456263 209.26146Q23.706263 208.71458 24.112513 208.49583Q24.503138 208.27708 25.581263 208.27708L27.503138 208.29271Q28.331263 208.29271 28.721888 208.21458Q29.096888 208.13646 29.550013 207.91771L29.550013 209.54271Q29.378138 209.60521 29.065638 209.69896Q28.909388 209.74583 28.862513 209.76146Q29.284388 210.18333 29.487513 210.66771Q29.690638 211.13646 29.690638 211.68333Q29.690638 212.65208 29.175013 213.21458Q28.643763 213.76146 27.846888 213.76146Q27.315638 213.76146 26.909388 213.51146Q26.503138 213.24583 26.284388 212.79271Q26.050013 212.33958 25.893763 211.48021Q25.675013 210.33958 25.487513 209.88646L25.331263 209.88646Q24.846888 209.88646 24.643763 210.12083Q24.440638 210.35521 24.440638 211.01146Q24.440638 211.44896 24.612513 211.69896Q24.784388 211.93333 25.221888 212.08958ZM26.565638 209.88646Q26.659388 210.19896 26.815638 210.88646Q26.956263 211.57396 27.096888 211.79271Q27.331263 212.10521 27.675013 212.10521Q28.018763 212.10521 28.284388 211.85521Q28.534388 211.58958 28.534388 211.19896Q28.534388 210.74583 28.237513 210.33958Q28.018763 210.04271 27.690638 209.94896Q27.487513 209.88646 26.893763 209.88646L26.565638 209.88646ZM29.550013 204.60521L23.331263 207.12083L23.331263 205.38646L26.503138 204.21458L27.565638 203.87083Q27.159388 203.74583 27.034388 203.71458Q26.768763 203.62083 26.503138 203.52708L23.331263 202.35521L23.331263 200.65208L29.550013 203.12083L29.550013 204.60521ZM29.956263 200.48021L30.190638 198.58958Q30.518763 198.54271 30.643763 198.37083Q30.815638 198.13646 30.815638 197.63646Q30.815638 196.99583 30.628138 196.66771Q30.487513 196.44896 30.206263 196.33958Q30.003138 196.26146 29.456263 196.26146L28.534388 196.26146Q29.550013 197.01146 29.550013 198.13646Q29.550013 199.38646 28.487513 200.12083Q27.643763 200.68333 26.409388 200.68333Q24.831263 200.68333 24.018763 199.93333Q23.190638 199.18333 23.190638 198.05833Q23.190638 196.91771 24.206263 196.16771L23.331263 196.16771L23.331263 194.62083L28.909388 194.62083Q30.018763 194.62083 30.550013 194.80833Q31.096888 194.98021 31.409388 195.30833Q31.721888 195.63646 31.893763 196.18333Q32.08126 196.73021 32.08126 197.57396Q32.08126 199.15208 31.534388 199.82396Q30.987513 200.48021 30.159388 200.48021Q30.081263 200.48021 29.956263 200.48021ZM26.315638 198.99583Q27.300013 198.99583 27.768763 198.62083Q28.221888 198.23021 28.221888 197.66771Q28.221888 197.07396 27.753138 196.65208Q27.268763 196.23021 26.346888 196.23021Q25.378138 196.23021 24.909388 196.63646Q24.440638 197.02708 24.440638 197.63646Q24.440638 198.23021 24.909388 198.62083Q25.362513 198.99583 26.315638 198.99583ZM31.925013 194.29271L30.862513 194.29271L30.862513 187.44896L31.925013 187.44896L31.925013 194.29271ZM29.550013 184.74583L29.550013 186.38646L23.331263 186.38646L23.331263 184.85521L24.206263 184.85521Q23.581263 184.46458 23.393763 184.15208Q23.190638 183.83958 23.190638 183.44896Q23.190638 182.88646 23.503138 182.35521L24.925013 182.87083Q24.659388 183.29271 24.659388 183.63646Q24.659388 183.99583 24.862513 184.23021Q25.050013 184.46458 25.550013 184.60521Q26.034388 184.74583 27.628138 184.74583L29.550013 184.74583ZM25.221888 180.08958L24.956263 181.58958Q24.050013 181.33958 23.628138 180.73021Q23.190638 180.10521 23.190638 178.88646Q23.190638 177.79271 23.456263 177.26146Q23.706263 176.71458 24.112513 176.49583Q24.503138 176.27708 25.581263 176.27708L27.503138 176.29271Q28.331263 176.29271 28.721888 176.21458Q29.096888 176.13646 29.550013 175.91771L29.550013 177.54271Q29.378138 177.60521 29.065638 177.69896Q28.909388 177.74583 28.862513 177.76146Q29.284388 178.18333 29.487513 178.66771Q29.690638 179.13646 29.690638 179.68333Q29.690638 180.65208 29.175013 181.21458Q28.643763 181.76146 27.846888 181.76146Q27.315638 181.76146 26.909388 181.51146Q26.503138 181.24583 26.284388 180.79271Q26.050013 180.33958 25.893763 179.48021Q25.675013 178.33958 25.487513 177.88646L25.331263 177.88646Q24.846888 177.88646 24.643763 178.12083Q24.440638 178.35521 24.440638 179.01146Q24.440638 179.44896 24.612513 179.69896Q24.784388 179.93333 25.221888 180.08958ZM26.565638 177.88646Q26.659388 178.19896 26.815638 178.88646Q26.956263 179.57396 27.096888 179.79271Q27.331263 180.10521 27.675013 180.10521Q28.018763 180.10521 28.284388 179.85521Q28.534388 179.58958 28.534388 179.19896Q28.534388 178.74583 28.237513 178.33958Q28.018763 178.04271 27.690638 177.94896Q27.487513 177.88646 26.893763 177.88646L26.565638 177.88646ZM29.550013 168.66771L29.550013 170.30833L26.378138 170.30833Q25.362513 170.30833 25.065638 170.41771Q24.768763 170.51146 24.612513 170.76146Q24.440638 170.99583 24.440638 171.32396Q24.440638 171.76146 24.675013 172.10521Q24.909388 172.43333 25.300013 172.55833Q25.690638 172.68333 26.737513 172.68333L29.550013 172.68333L29.550013 174.33958L23.331263 174.33958L23.331263 172.80833L24.237513 172.80833Q23.190638 171.99583 23.190638 170.74583Q23.190638 170.21458 23.393763 169.76146Q23.581263 169.30833 23.893763 169.07396Q24.190638 168.83958 24.581263 168.76146Q24.956263 168.66771 25.675013 168.66771L29.550013 168.66771ZM29.550013 167.38646L20.956263 167.38646L20.956263 165.73021L25.518763 165.73021L23.331263 163.80833L23.331263 161.77708L25.596888 163.90208L29.550013 161.62083L29.550013 163.40208L26.753138 164.96458L27.550013 165.73021L29.550013 165.73021L29.550013 167.38646Z" fill-rule="nonzero"/><path fill="#000000" d="M65.05 300.21564Q65.05 298.6844 65.3625 297.7625Q65.675 296.825 66.28438 296.325Q66.90938 295.825 67.84688 295.825Q68.53438 295.825 69.05 296.10626Q69.58125 296.3875 69.925 296.91876Q70.26875 297.4344 70.45625 298.1844Q70.64375 298.9344 70.64375 300.21564Q70.64375 301.73126 70.33125 302.65314Q70.03438 303.575 69.40938 304.09064Q68.8 304.59064 67.84688 304.59064Q66.6125 304.59064 65.89375 303.7Q65.05 302.6375 65.05 300.21564ZM66.12813 300.21564Q66.12813 302.325 66.62813 303.02814Q67.12813 303.73126 67.84688 303.73126Q68.58125 303.73126 69.06563 303.02814Q69.56563 302.325 69.56563 300.21564Q69.56563 298.09064 69.06563 297.40314Q68.58125 296.7 67.83125 296.7Q67.1125 296.7 66.675 297.3094Q66.12813 298.09064 66.12813 300.21564Z" fill-rule="nonzero"/><path fill="#000000" d="M58.05 254.49335L59.159374 254.3996Q59.284374 255.2121 59.721874 255.61835Q60.175 256.0246 60.815624 256.0246Q61.565624 256.0246 62.096874 255.44647Q62.628124 254.86835 62.628124 253.93085Q62.628124 253.0246 62.1125 252.50897Q61.6125 251.97772 60.784374 251.97772Q60.284374 251.97772 59.8625 252.2121Q59.45625 252.44647 59.221874 252.80585L58.2375 252.68085L59.065624 248.2746L63.346874 248.2746L63.346874 249.2746L59.909374 249.2746L59.45625 251.5871Q60.221874 251.04022 61.065624 251.04022Q62.190624 251.04022 62.95625 251.82147Q63.7375 252.60272 63.7375 253.8371Q63.7375 254.99335 63.065624 255.85272Q62.2375 256.88397 60.815624 256.88397Q59.64375 256.88397 58.89375 256.22772Q58.159374 255.57147 58.05 254.49335ZM65.05 252.50897Q65.05 250.97772 65.3625 250.05585Q65.675 249.11835 66.28438 248.61835Q66.90938 248.11835 67.84688 248.11835Q68.53438 248.11835 69.05 248.3996Q69.58125 248.68085 69.925 249.2121Q70.26875 249.72772 70.45625 250.47772Q70.64375 251.22772 70.64375 252.50897Q70.64375 254.0246 70.33125 254.94647Q70.03438 255.86835 69.40938 256.38397Q68.8 256.88397 67.84688 256.88397Q66.6125 256.88397 65.89375 255.99335Q65.05 254.93085 65.05 252.50897ZM66.12813 252.50897Q66.12813 254.61835 66.62813 255.32147Q67.12813 256.0246 67.84688 256.0246Q68.58125 256.0246 69.06563 255.32147Q69.56563 254.61835 69.56563 252.50897Q69.56563 250.38397 69.06563 249.69647Q68.58125 248.99335 67.83125 248.99335Q67.1125 248.99335 66.675 249.60272Q66.12813 250.38397 66.12813 252.50897Z" fill-rule="nonzero"/><path fill="#000000" d="M55.01875 209.03667L53.971874 209.03667L53.971874 202.31792Q53.58125 202.67729 52.95625 203.05229Q52.346874 203.41167 51.8625 203.58354L51.8625 202.56792Q52.7375 202.14604 53.39375 201.56792Q54.065624 200.97417 54.346874 200.41167L55.01875 200.41167L55.01875 209.03667ZM58.05 204.80229Q58.05 203.27104 58.3625 202.34917Q58.675 201.41167 59.284374 200.91167Q59.909374 200.41167 60.846874 200.41167Q61.534374 200.41167 62.05 200.69292Q62.58125 200.97417 62.925 201.50542Q63.26875 202.02104 63.45625 202.77104Q63.64375 203.52104 63.64375 204.80229Q63.64375 206.31792 63.33125 207.23979Q63.034374 208.16167 62.409374 208.67729Q61.8 209.17729 60.846874 209.17729Q59.6125 209.17729 58.89375 208.28667Q58.05 207.22417 58.05 204.80229ZM59.128124 204.80229Q59.128124 206.91167 59.628124 207.61479Q60.128124 208.31792 60.846874 208.31792Q61.58125 208.31792 62.065624 207.61479Q62.565624 206.91167 62.565624 204.80229Q62.565624 202.67729 62.065624 201.98979Q61.58125 201.28667 60.83125 201.28667Q60.1125 201.28667 59.675 201.89604Q59.128124 202.67729 59.128124 204.80229ZM65.05 204.80229Q65.05 203.27104 65.3625 202.34917Q65.675 201.41167 66.28438 200.91167Q66.90938 200.41167 67.84688 200.41167Q68.53438 200.41167 69.05 200.69292Q69.58125 200.97417 69.925 201.50542Q70.26875 202.02104 70.45625 202.77104Q70.64375 203.52104 70.64375 204.80229Q70.64375 206.31792 70.33125 207.23979Q70.03438 208.16167 69.40938 208.67729Q68.8 209.17729 67.84688 209.17729Q66.6125 209.17729 65.89375 208.28667Q65.05 207.22417 65.05 204.80229ZM66.12813 204.80229Q66.12813 206.91167 66.62813 207.61479Q67.12813 208.31792 67.84688 208.31792Q68.58125 208.31792 69.06563 207.61479Q69.56563 206.91167 69.56563 204.80229Q69.56563 202.67729 69.06563 201.98979Q68.58125 201.28667 67.83125 201.28667Q67.1125 201.28667 66.675 201.89604Q66.12813 202.67729 66.12813 204.80229Z" fill-rule="nonzero"/><path fill="#000000" d="M55.01875 161.33L53.971874 161.33L53.971874 154.61125Q53.58125 154.97063 52.95625 155.34563Q52.346874 155.705 51.8625 155.87688L51.8625 154.86125Q52.7375 154.43938 53.39375 153.86125Q54.065624 153.2675 54.346874 152.705L55.01875 152.705L55.01875 161.33ZM58.05 159.08L59.159374 158.98625Q59.284374 159.79875 59.721874 160.205Q60.175 160.61125 60.815624 160.61125Q61.565624 160.61125 62.096874 160.03313Q62.628124 159.455 62.628124 158.5175Q62.628124 157.61125 62.1125 157.09563Q61.6125 156.56438 60.784374 156.56438Q60.284374 156.56438 59.8625 156.79875Q59.45625 157.03313 59.221874 157.3925L58.2375 157.2675L59.065624 152.86125L63.346874 152.86125L63.346874 153.86125L59.909374 153.86125L59.45625 156.17375Q60.221874 155.62688 61.065624 155.62688Q62.190624 155.62688 62.95625 156.40813Q63.7375 157.18938 63.7375 158.42375Q63.7375 159.58 63.065624 160.43938Q62.2375 161.47063 60.815624 161.47063Q59.64375 161.47063 58.89375 160.81438Q58.159374 160.15813 58.05 159.08ZM65.05 157.09563Q65.05 155.56438 65.3625 154.6425Q65.675 153.705 66.28438 153.205Q66.90938 152.705 67.84688 152.705Q68.53438 152.705 69.05 152.98625Q69.58125 153.2675 69.925 153.79875Q70.26875 154.31438 70.45625 155.06438Q70.64375 155.81438 70.64375 157.09563Q70.64375 158.61125 70.33125 159.53313Q70.03438 160.455 69.40938 160.97063Q68.8 161.47063 67.84688 161.47063Q66.6125 161.47063 65.89375 160.58Q65.05 159.5175 65.05 157.09563ZM66.12813 157.09563Q66.12813 159.205 66.62813 159.90813Q67.12813 160.61125 67.84688 160.61125Q68.58125 160.61125 69.06563 159.90813Q69.56563 159.205 69.56563 157.09563Q69.56563 154.97063 69.06563 154.28313Q68.58125 153.58 67.83125 153.58Q67.1125 153.58 66.675 154.18938Q66.12813 154.97063 66.12813 157.09563Z" fill-rule="nonzero"/><path fill="#000000" d="M56.596874 112.60771L56.596874 113.62334L50.909374 113.62334Q50.909374 113.24834 51.034374 112.88896Q51.253124 112.31084 51.721874 111.74834Q52.20625 111.18584 53.1125 110.45146Q54.51875 109.29521 55.003124 108.62334Q55.503124 107.95146 55.503124 107.35771Q55.503124 106.73271 55.05 106.31084Q54.596874 105.87334 53.878124 105.87334Q53.1125 105.87334 52.659374 106.32646Q52.20625 106.77959 52.190624 107.59209L51.1125 107.48271Q51.221874 106.26396 51.940624 105.63896Q52.675 104.99834 53.909374 104.99834Q55.14375 104.99834 55.8625 105.68584Q56.58125 106.37334 56.58125 107.38896Q56.58125 107.90459 56.3625 108.40459Q56.159374 108.88896 55.659374 109.45146Q55.175 109.99834 54.05 110.95146Q53.096874 111.74834 52.815624 112.04521Q52.55 112.32646 52.378124 112.60771L56.596874 112.60771ZM58.05 109.38896Q58.05 107.85771 58.3625 106.93584Q58.675 105.99834 59.284374 105.49834Q59.909374 104.99834 60.846874 104.99834Q61.534374 104.99834 62.05 105.27959Q62.58125 105.56084 62.925 106.09209Q63.26875 106.60771 63.45625 107.35771Q63.64375 108.10771 63.64375 109.38896Q63.64375 110.90459 63.33125 111.82646Q63.034374 112.74834 62.409374 113.26396Q61.8 113.76396 60.846874 113.76396Q59.6125 113.76396 58.89375 112.87334Q58.05 111.81084 58.05 109.38896ZM59.128124 109.38896Q59.128124 111.49834 59.628124 112.20146Q60.128124 112.90459 60.846874 112.90459Q61.58125 112.90459 62.065624 112.20146Q62.565624 111.49834 62.565624 109.38896Q62.565624 107.26396 62.065624 106.57646Q61.58125 105.87334 60.83125 105.87334Q60.1125 105.87334 59.675 106.48271Q59.128124 107.26396 59.128124 109.38896ZM65.05 109.38896Q65.05 107.85771 65.3625 106.93584Q65.675 105.99834 66.28438 105.49834Q66.90938 104.99834 67.84688 104.99834Q68.53438 104.99834 69.05 105.27959Q69.58125 105.56084 69.925 106.09209Q70.26875 106.60771 70.45625 107.35771Q70.64375 108.10771 70.64375 109.38896Q70.64375 110.90459 70.33125 111.82646Q70.03438 112.74834 69.40938 113.26396Q68.8 113.76396 67.84688 113.76396Q66.6125 113.76396 65.89375 112.87334Q65.05 111.81084 65.05 109.38896ZM66.12813 109.38896Q66.12813 111.49834 66.62813 112.20146Q67.12813 112.90459 67.84688 112.90459Q68.58125 112.90459 69.06563 112.20146Q69.56563 111.49834 69.56563 109.38896Q69.56563 107.26396 69.06563 106.57646Q68.58125 105.87334 67.83125 105.87334Q67.1125 105.87334 66.675 106.48271Q66.12813 107.26396 66.12813 109.38896Z" fill-rule="nonzero"/><path fill="#000000" d="M56.596874 64.90104L56.596874 65.916664L50.909374 65.916664Q50.909374 65.541664 51.034374 65.18229Q51.253124 64.604164 51.721874 64.041664Q52.20625 63.479164 53.1125 62.74479Q54.51875 61.58854 55.003124 60.916664Q55.503124 60.24479 55.503124 59.65104Q55.503124 59.02604 55.05 58.604164Q54.596874 58.166664 53.878124 58.166664Q53.1125 58.166664 52.659374 58.61979Q52.20625 59.072914 52.190624 59.885414L51.1125 59.77604Q51.221874 58.55729 51.940624 57.93229Q52.675 57.291664 53.909374 57.291664Q55.14375 57.291664 55.8625 57.979164Q56.58125 58.666664 56.58125 59.68229Q56.58125 60.197914 56.3625 60.697914Q56.159374 61.18229 55.659374 61.74479Q55.175 62.291664 54.05 63.24479Q53.096874 64.041664 52.815624 64.33854Q52.55 64.61979 52.378124 64.90104L56.596874 64.90104ZM58.05 63.666664L59.159374 63.572914Q59.284374 64.385414 59.721874 64.791664Q60.175 65.197914 60.815624 65.197914Q61.565624 65.197914 62.096874 64.61979Q62.628124 64.041664 62.628124 63.104164Q62.628124 62.197914 62.1125 61.68229Q61.6125 61.15104 60.784374 61.15104Q60.284374 61.15104 59.8625 61.385414Q59.45625 61.61979 59.221874 61.979164L58.2375 61.854164L59.065624 57.447914L63.346874 57.447914L63.346874 58.447914L59.909374 58.447914L59.45625 60.760414Q60.221874 60.21354 61.065624 60.21354Q62.190624 60.21354 62.95625 60.99479Q63.7375 61.77604 63.7375 63.010414Q63.7375 64.166664 63.065624 65.02604Q62.2375 66.05729 60.815624 66.05729Q59.64375 66.05729 58.89375 65.40104Q58.159374 64.74479 58.05 63.666664ZM65.05 61.68229Q65.05 60.15104 65.3625 59.229164Q65.675 58.291664 66.28438 57.791664Q66.90938 57.291664 67.84688 57.291664Q68.53438 57.291664 69.05 57.572914Q69.58125 57.854164 69.925 58.385414Q70.26875 58.90104 70.45625 59.65104Q70.64375 60.40104 70.64375 61.68229Q70.64375 63.197914 70.33125 64.11979Q70.03438 65.041664 69.40938 65.55729Q68.8 66.05729 67.84688 66.05729Q66.6125 66.05729 65.89375 65.166664Q65.05 64.104164 65.05 61.68229ZM66.12813 61.68229Q66.12813 63.791664 66.62813 64.49479Q67.12813 65.197914 67.84688 65.197914Q68.58125 65.197914 69.06563 64.49479Q69.56563 63.791664 69.56563 61.68229Q69.56563 59.55729 69.06563 58.86979Q68.58125 58.166664 67.83125 58.166664Q67.1125 58.166664 66.675 58.77604Q66.12813 59.55729 66.12813 61.68229Z" fill-rule="nonzero"/><path fill="#434343" d="M336.2204 317.45L336.2204 308.85626L337.93915 308.85626L339.9704 314.9344Q340.25165 315.79376 340.37665 316.21564Q340.51727 315.7469 340.82977 314.84064L342.89227 308.85626L344.42352 308.85626L344.42352 317.45L343.32977 317.45L343.32977 310.2625L340.82977 317.45L339.79852 317.45L337.31415 310.1375L337.31415 317.45L336.2204 317.45ZM349.18915 316.6844Q348.5954 317.1844 348.04852 317.3875Q347.51727 317.59064 346.89227 317.59064Q345.86102 317.59064 345.31415 317.09064Q344.76727 316.59064 344.76727 315.8094Q344.76727 315.35626 344.9704 314.98126Q345.17352 314.59064 345.51727 314.3719Q345.86102 314.1375 346.2829 314.02814Q346.57977 313.9344 347.2204 313.85626Q348.48602 313.71564 349.0954 313.4969Q349.0954 313.27814 349.0954 313.23126Q349.0954 312.575 348.79852 312.3094Q348.39227 311.96564 347.5954 311.96564Q346.86102 311.96564 346.50165 312.23126Q346.14227 312.48126 345.9704 313.1375L344.93915 312.9969Q345.07977 312.34064 345.4079 311.9344Q345.73602 311.52814 346.3454 311.3094Q346.95477 311.09064 347.75165 311.09064Q348.54852 311.09064 349.04852 311.27814Q349.54852 311.46564 349.7829 311.7469Q350.01727 312.02814 350.11102 312.46564Q350.1579 312.73126 350.1579 313.4344L350.1579 314.84064Q350.1579 316.3094 350.2204 316.7Q350.29852 317.09064 350.50165 317.45L349.39227 317.45Q349.23602 317.1219 349.18915 316.6844ZM349.0954 314.325Q348.51727 314.5594 347.37665 314.73126Q346.7204 314.825 346.45477 314.95Q346.18915 315.0594 346.0329 315.27814Q345.89227 315.4969 345.89227 315.77814Q345.89227 316.2 346.20477 316.48126Q346.5329 316.7625 347.14227 316.7625Q347.75165 316.7625 348.2204 316.4969Q348.70477 316.23126 348.92352 315.7625Q349.0954 315.40314 349.0954 314.71564L349.0954 314.325ZM352.0954 317.45L352.0954 308.85626L353.1579 308.85626L353.1579 317.45L352.0954 317.45ZM359.37665 315.45L360.4704 315.575Q360.2204 316.52814 359.51727 317.0594Q358.81415 317.59064 357.73602 317.59064Q356.37665 317.59064 355.56415 316.7469Q354.76727 315.90314 354.76727 314.3875Q354.76727 312.825 355.57977 311.96564Q356.39227 311.09064 357.67352 311.09064Q358.92352 311.09064 359.70477 311.9344Q360.50165 312.77814 360.50165 314.325Q360.50165 314.41876 360.50165 314.60626L355.86102 314.60626Q355.92352 315.6375 356.43915 316.1844Q356.95477 316.71564 357.73602 316.71564Q358.31415 316.71564 358.7204 316.41876Q359.14227 316.10626 359.37665 315.45ZM355.92352 313.7469L359.39227 313.7469Q359.32977 312.95 359.00165 312.5594Q358.48602 311.95 357.68915 311.95Q356.95477 311.95 356.45477 312.4344Q355.9704 312.91876 355.92352 313.7469Z" fill-rule="nonzero"/><path fill="#434343" d="M166.65459 317.45L166.65459 308.85626L172.45146 308.85626L172.45146 309.8719L167.79521 309.8719L167.79521 312.52814L171.82646 312.52814L171.82646 313.54376L167.79521 313.54376L167.79521 317.45L166.65459 317.45ZM177.71709 315.45L178.81084 315.575Q178.56084 316.52814 177.85771 317.0594Q177.15459 317.59064 176.07646 317.59064Q174.71709 317.59064 173.90459 316.7469Q173.10771 315.90314 173.10771 314.3875Q173.10771 312.825 173.92021 311.96564Q174.73271 311.09064 176.01396 311.09064Q177.26396 311.09064 178.04521 311.9344Q178.84209 312.77814 178.84209 314.325Q178.84209 314.41876 178.84209 314.60626L174.20146 314.60626Q174.26396 315.6375 174.77959 316.1844Q175.29521 316.71564 176.07646 316.71564Q176.65459 316.71564 177.06084 316.41876Q177.48271 316.10626 177.71709 315.45ZM174.26396 313.7469L177.73271 313.7469Q177.67021 312.95 177.34209 312.5594Q176.82646 311.95 176.02959 311.95Q175.29521 311.95 174.79521 312.4344Q174.31084 312.91876 174.26396 313.7469ZM180.46709 317.45L180.46709 311.23126L181.40459 311.23126L181.40459 312.10626Q181.70146 311.6375 182.18584 311.3719Q182.67021 311.09064 183.29521 311.09064Q183.98271 311.09064 184.42021 311.3719Q184.87334 311.65314 185.04521 312.16876Q185.79521 311.09064 186.96709 311.09064Q187.90459 311.09064 188.38896 311.60626Q188.88896 312.10626 188.88896 313.1844L188.88896 317.45L187.84209 317.45L187.84209 313.52814Q187.84209 312.90314 187.73271 312.6219Q187.63896 312.34064 187.37334 312.16876Q187.10771 311.9969 186.73271 311.9969Q186.07646 311.9969 185.63896 312.4344Q185.21709 312.8719 185.21709 313.84064L185.21709 317.45L184.15459 317.45L184.15459 313.40314Q184.15459 312.7 183.88896 312.35626Q183.63896 311.9969 183.06084 311.9969Q182.60771 311.9969 182.23271 312.23126Q181.85771 312.46564 181.68584 312.91876Q181.51396 313.3719 181.51396 314.21564L181.51396 317.45L180.46709 317.45ZM195.52959 316.6844Q194.93584 317.1844 194.38896 317.3875Q193.85771 317.59064 193.23271 317.59064Q192.20146 317.59064 191.65459 317.09064Q191.10771 316.59064 191.10771 315.8094Q191.10771 315.35626 191.31084 314.98126Q191.51396 314.59064 191.85771 314.3719Q192.20146 314.1375 192.62334 314.02814Q192.92021 313.9344 193.56084 313.85626Q194.82646 313.71564 195.43584 313.4969Q195.43584 313.27814 195.43584 313.23126Q195.43584 312.575 195.13896 312.3094Q194.73271 311.96564 193.93584 311.96564Q193.20146 311.96564 192.84209 312.23126Q192.48271 312.48126 192.31084 313.1375L191.27959 312.9969Q191.42021 312.34064 191.74834 311.9344Q192.07646 311.52814 192.68584 311.3094Q193.29521 311.09064 194.09209 311.09064Q194.88896 311.09064 195.38896 311.27814Q195.88896 311.46564 196.12334 311.7469Q196.35771 312.02814 196.45146 312.46564Q196.49834 312.73126 196.49834 313.4344L196.49834 314.84064Q196.49834 316.3094 196.56084 316.7Q196.63896 317.09064 196.84209 317.45L195.73271 317.45Q195.57646 317.1219 195.52959 316.6844ZM195.43584 314.325Q194.85771 314.5594 193.71709 314.73126Q193.06084 314.825 192.79521 314.95Q192.52959 315.0594 192.37334 315.27814Q192.23271 315.4969 192.23271 315.77814Q192.23271 316.2 192.54521 316.48126Q192.87334 316.7625 193.48271 316.7625Q194.09209 316.7625 194.56084 316.4969Q195.04521 316.23126 195.26396 315.7625Q195.43584 315.40314 195.43584 314.71564L195.43584 314.325ZM198.43584 317.45L198.43584 308.85626L199.49834 308.85626L199.49834 317.45L198.43584 317.45ZM205.71709 315.45L206.81084 315.575Q206.56084 316.52814 205.85771 317.0594Q205.15459 317.59064 204.07646 317.59064Q202.71709 317.59064 201.90459 316.7469Q201.10771 315.90314 201.10771 314.3875Q201.10771 312.825 201.92021 311.96564Q202.73271 311.09064 204.01396 311.09064Q205.26396 311.09064 206.04521 311.9344Q206.84209 312.77814 206.84209 314.325Q206.84209 314.41876 206.84209 314.60626L202.20146 314.60626Q202.26396 315.6375 202.77959 316.1844Q203.29521 316.71564 204.07646 316.71564Q204.65459 316.71564 205.06084 316.41876Q205.48271 316.10626 205.71709 315.45ZM202.26396 313.7469L205.73271 313.7469Q205.67021 312.95 205.34209 312.5594Q204.82646 311.95 204.02959 311.95Q203.29521 311.95 202.79521 312.4344Q202.31084 312.91876 202.26396 313.7469Z" fill-rule="nonzero"/><path fill="#434343" d="M32.909374 37.55L29.76875 37.55L28.51875 34.3L22.8 34.3L21.6125 37.55L18.55 37.55L24.128124 23.2375L27.190624 23.2375L32.909374 37.55ZM27.596874 31.878124L25.628124 26.565624L23.690624 31.878124L27.596874 31.878124ZM35.83125 37.55L31.659374 27.175L34.534374 27.175L36.4875 32.471874L37.065624 34.2375Q37.284374 33.565624 37.346874 33.346874Q37.471874 32.909374 37.628124 32.471874L39.6125 27.175L42.425 27.175L38.315624 37.55L35.83125 37.55ZM49.9875 34.253124L52.721874 34.70625Q52.20625 36.20625 51.065624 37.003124Q49.925 37.784374 48.221874 37.784374Q45.503124 37.784374 44.20625 36.01875Q43.190624 34.596874 43.190624 32.440624Q43.190624 29.8625 44.534374 28.409374Q45.878124 26.940624 47.940624 26.940624Q50.253124 26.940624 51.58125 28.471874Q52.925 30.003124 52.878124 33.159374L46.003124 33.159374Q46.034374 34.378124 46.659374 35.065624Q47.3 35.7375 48.2375 35.7375Q48.89375 35.7375 49.33125 35.39375Q49.76875 35.034374 49.9875 34.253124ZM50.14375 31.471874Q50.1125 30.284374 49.51875 29.675Q48.940624 29.05 48.1125 29.05Q47.20625 29.05 46.628124 29.690624Q46.034374 30.346874 46.05 31.471874L50.14375 31.471874ZM57.6125 37.55L54.8625 37.55L54.8625 27.175L57.425 27.175L57.425 28.659374Q58.065624 27.6125 58.58125 27.284374Q59.1125 26.940624 59.784374 26.940624Q60.721874 26.940624 61.58125 27.45625L60.7375 29.846874Q60.05 29.409374 59.45625 29.409374Q58.878124 29.409374 58.471874 29.721874Q58.065624 30.034374 57.83125 30.878124Q57.6125 31.70625 57.6125 34.346874L57.6125 37.55ZM65.03438 30.346874L62.55 29.89375Q62.971874 28.39375 63.9875 27.675Q65.01875 26.940624 67.03438 26.940624Q68.87813 26.940624 69.76875 27.378124Q70.675 27.815624 71.03438 28.4875Q71.40938 29.14375 71.40938 30.940624L71.37813 34.14375Q71.37813 35.503124 71.50313 36.159374Q71.64375 36.8 72.00313 37.55L69.28438 37.55Q69.175 37.26875 69.01875 36.7375Q68.95625 36.4875 68.925 36.409374Q68.22188 37.096874 67.40938 37.440624Q66.6125 37.784374 65.70625 37.784374Q64.1125 37.784374 63.190624 36.925Q62.26875 36.05 62.26875 34.721874Q62.26875 33.83125 62.675 33.14375Q63.096874 32.45625 63.846874 32.096874Q64.6125 31.721874 66.05 31.45625Q67.97188 31.096874 68.70625 30.784374L68.70625 30.503124Q68.70625 29.721874 68.31563 29.39375Q67.925 29.05 66.84688 29.05Q66.1125 29.05 65.69063 29.33125Q65.28438 29.6125 65.03438 30.346874ZM68.70625 32.565624Q68.175 32.7375 67.03438 32.9875Q65.89375 33.2375 65.55 33.471874Q65.00313 33.846874 65.00313 34.440624Q65.00313 35.003124 65.425 35.425Q65.8625 35.846874 66.53438 35.846874Q67.26875 35.846874 67.94063 35.3625Q68.44063 34.9875 68.59688 34.45625Q68.70625 34.096874 68.70625 33.1125L68.70625 32.565624ZM73.7375 38.2375L76.8625 38.6125Q76.94063 39.159374 77.22188 39.3625Q77.6125 39.659374 78.45625 39.659374Q79.53438 39.659374 80.06563 39.33125Q80.425 39.128124 80.6125 38.64375Q80.7375 38.3 80.7375 37.378124L80.7375 35.8625Q79.51875 37.55 77.64375 37.55Q75.55 37.55 74.33125 35.784374Q73.37813 34.378124 73.37813 32.3Q73.37813 29.690624 74.62813 28.315624Q75.87813 26.940624 77.75313 26.940624Q79.675 26.940624 80.925 28.628124L80.925 27.175L83.4875 27.175L83.4875 36.4875Q83.4875 38.315624 83.175 39.221874Q82.87813 40.14375 82.33125 40.659374Q81.78438 41.175 80.8625 41.45625Q79.95625 41.753124 78.56563 41.753124Q75.925 41.753124 74.81563 40.846874Q73.72188 39.95625 73.72188 38.565624Q73.72188 38.425 73.7375 38.2375ZM76.19063 32.14375Q76.19063 33.8 76.81563 34.565624Q77.45625 35.33125 78.39375 35.33125Q79.40938 35.33125 80.09688 34.55Q80.8 33.753124 80.8 32.221874Q80.8 30.6125 80.12813 29.83125Q79.47188 29.05 78.45625 29.05Q77.45625 29.05 76.81563 29.815624Q76.19063 30.58125 76.19063 32.14375ZM91.9875 34.253124L94.72188 34.70625Q94.20625 36.20625 93.06563 37.003124Q91.925 37.784374 90.22188 37.784374Q87.50313 37.784374 86.20625 36.01875Q85.19063 34.596874 85.19063 32.440624Q85.19063 29.8625 86.53438 28.409374Q87.87813 26.940624 89.94063 26.940624Q92.25313 26.940624 93.58125 28.471874Q94.925 30.003124 94.87813 33.159374L88.00313 33.159374Q88.03438 34.378124 88.65938 35.065624Q89.3 35.7375 90.2375 35.7375Q90.89375 35.7375 91.33125 35.39375Q91.76875 35.034374 91.9875 34.253124ZM92.14375 31.471874Q92.1125 30.284374 91.51875 29.675Q90.94063 29.05 90.1125 29.05Q89.20625 29.05 88.62813 29.690624Q88.03438 30.346874 88.05 31.471874L92.14375 31.471874ZM109.65938 32.284374L109.65938 29.878124L115.89375 29.878124L115.89375 35.58125Q114.9875 36.45625 113.25313 37.128124Q111.53438 37.8 109.76875 37.8Q107.53438 37.8 105.8625 36.8625Q104.19063 35.909374 103.34688 34.159374Q102.50313 32.409374 102.50313 30.346874Q102.50313 28.1125 103.44063 26.378124Q104.37813 24.628124 106.19063 23.70625Q107.56563 22.9875 109.6125 22.9875Q112.28438 22.9875 113.78438 24.1125Q115.28438 25.221874 115.70625 27.190624L112.84688 27.7375Q112.53438 26.675 111.69063 26.065624Q110.8625 25.45625 109.6125 25.45625Q107.72188 25.45625 106.59688 26.659374Q105.4875 27.8625 105.4875 30.221874Q105.4875 32.76875 106.6125 34.05Q107.75313 35.315624 109.58125 35.315624Q110.50313 35.315624 111.40938 34.971874Q112.31563 34.6125 112.97188 34.096874L112.97188 32.284374L109.65938 32.284374ZM124.9875 34.253124L127.72188 34.70625Q127.20625 36.20625 126.06563 37.003124Q124.925 37.784374 123.22188 37.784374Q120.50313 37.784374 119.20625 36.01875Q118.19063 34.596874 118.19063 32.440624Q118.19063 29.8625 119.53438 28.409374Q120.87813 26.940624 122.94063 26.940624Q125.25313 26.940624 126.58125 28.471874Q127.925 30.003124 127.87813 33.159374L121.00313 33.159374Q121.03438 34.378124 121.65938 35.065624Q122.3 35.7375 123.2375 35.7375Q123.89375 35.7375 124.33125 35.39375Q124.76875 35.034374 124.9875 34.253124ZM125.14375 31.471874Q125.1125 30.284374 124.51875 29.675Q123.94063 29.05 123.1125 29.05Q122.20625 29.05 121.62813 29.690624Q121.03438 30.346874 121.05 31.471874L125.14375 31.471874ZM139.425 37.55L136.675 37.55L136.675 32.253124Q136.675 30.58125 136.50313 30.096874Q136.33125 29.596874 135.925 29.33125Q135.53438 29.05 134.97188 29.05Q134.26875 29.05 133.69063 29.440624Q133.12813 29.83125 132.90938 30.471874Q132.70625 31.1125 132.70625 32.846874L132.70625 37.55L129.97188 37.55L129.97188 27.175L132.51875 27.175L132.51875 28.70625Q133.87813 26.940624 135.94063 26.940624Q136.84688 26.940624 137.59688 27.26875Q138.34688 27.596874 138.72188 28.1125Q139.1125 28.6125 139.26875 29.26875Q139.425 29.909374 139.425 31.096874L139.425 37.55ZM151.50313 37.55L148.95625 37.55L148.95625 36.01875Q148.31563 36.909374 147.44063 37.346874Q146.58125 37.784374 145.70625 37.784374Q143.925 37.784374 142.64375 36.346874Q141.37813 34.909374 141.37813 32.33125Q141.37813 29.690624 142.6125 28.315624Q143.84688 26.940624 145.75313 26.940624Q147.4875 26.940624 148.75313 28.39375L148.75313 23.2375L151.50313 23.2375L151.50313 37.55ZM144.175 32.14375Q144.175 33.8 144.62813 34.534374Q145.3 35.6125 146.4875 35.6125Q147.44063 35.6125 148.09688 34.815624Q148.76875 34.003124 148.76875 32.409374Q148.76875 30.6125 148.1125 29.83125Q147.47188 29.05 146.47188 29.05Q145.4875 29.05 144.83125 29.83125Q144.175 30.596874 144.175 32.14375ZM159.9875 34.253124L162.72188 34.70625Q162.20625 36.20625 161.06563 37.003124Q159.925 37.784374 158.22188 37.784374Q155.50313 37.784374 154.20625 36.01875Q153.19063 34.596874 153.19063 32.440624Q153.19063 29.8625 154.53438 28.409374Q155.87813 26.940624 157.94063 26.940624Q160.25313 26.940624 161.58125 28.471874Q162.925 30.003124 162.87813 33.159374L156.00313 33.159374Q156.03438 34.378124 156.65938 35.065624Q157.3 35.7375 158.2375 35.7375Q158.89375 35.7375 159.33125 35.39375Q159.76875 35.034374 159.9875 34.253124ZM160.14375 31.471874Q160.1125 30.284374 159.51875 29.675Q158.94063 29.05 158.1125 29.05Q157.20625 29.05 156.62813 29.690624Q156.03438 30.346874 156.05 31.471874L160.14375 31.471874ZM167.6125 37.55L164.8625 37.55L164.8625 27.175L167.425 27.175L167.425 28.659374Q168.06563 27.6125 168.58125 27.284374Q169.1125 26.940624 169.78438 26.940624Q170.72188 26.940624 171.58125 27.45625L170.7375 29.846874Q170.05 29.409374 169.45625 29.409374Q168.87813 29.409374 168.47188 29.721874Q168.06563 30.034374 167.83125 30.878124Q167.6125 31.70625 167.6125 34.346874L167.6125 37.55ZM179.00313 37.55L179.00313 23.2375L183.64375 23.2375Q186.28438 23.2375 187.08125 23.440624Q188.31563 23.76875 189.14375 24.846874Q189.97188 25.925 189.97188 27.64375Q189.97188 28.95625 189.4875 29.8625Q189.01875 30.753124 188.26875 31.26875Q187.53438 31.784374 186.78438 31.940624Q185.7375 32.14375 183.78438 32.14375L181.89375 32.14375L181.89375 37.55L179.00313 37.55ZM181.89375 25.659374L181.89375 29.721874L183.47188 29.721874Q185.19063 29.721874 185.76875 29.503124Q186.34688 29.26875 186.65938 28.8Q186.9875 28.315624 186.9875 27.675Q186.9875 26.89375 186.53438 26.39375Q186.08125 25.878124 185.37813 25.753124Q184.8625 25.659374 183.3 25.659374L181.89375 25.659374ZM191.34688 32.221874Q191.34688 30.846874 192.01875 29.565624Q192.70625 28.284374 193.94063 27.6125Q195.175 26.940624 196.69063 26.940624Q199.05 26.940624 200.55 28.471874Q202.05 30.003124 202.05 32.33125Q202.05 34.690624 200.53438 36.2375Q199.01875 37.784374 196.70625 37.784374Q195.28438 37.784374 193.9875 37.14375Q192.70625 36.4875 192.01875 35.253124Q191.34688 34.003124 191.34688 32.221874ZM194.15938 32.3625Q194.15938 33.909374 194.89375 34.7375Q195.62813 35.55 196.70625 35.55Q197.78438 35.55 198.50313 34.7375Q199.2375 33.909374 199.2375 32.346874Q199.2375 30.815624 198.50313 30.003124Q197.78438 29.175 196.70625 29.175Q195.62813 29.175 194.89375 30.003124Q194.15938 30.815624 194.15938 32.3625ZM203.90938 27.175L206.47188 27.175L206.47188 28.70625Q206.97188 27.925 207.81563 27.440624Q208.65938 26.940624 209.70625 26.940624Q211.50313 26.940624 212.75313 28.3625Q214.01875 29.76875 214.01875 32.3Q214.01875 34.909374 212.75313 36.346874Q211.4875 37.784374 209.675 37.784374Q208.81563 37.784374 208.1125 37.440624Q207.425 37.096874 206.65938 36.26875L206.65938 41.503124L203.90938 41.503124L203.90938 27.175ZM206.62813 32.190624Q206.62813 33.940624 207.31563 34.784374Q208.00313 35.6125 209.00313 35.6125Q209.95625 35.6125 210.59688 34.846874Q211.2375 34.065624 211.2375 32.33125Q211.2375 30.690624 210.58125 29.909374Q209.925 29.1125 208.95625 29.1125Q207.95625 29.1125 207.28438 29.89375Q206.62813 30.659374 206.62813 32.190624ZM222.81563 37.55L222.81563 36.003124Q222.25313 36.83125 221.31563 37.315624Q220.39375 37.784374 219.37813 37.784374Q218.33125 37.784374 217.50313 37.33125Q216.675 36.8625 216.3 36.034374Q215.925 35.20625 215.925 33.7375L215.925 27.175L218.675 27.175L218.675 31.940624Q218.675 34.128124 218.81563 34.628124Q218.97188 35.1125 219.3625 35.409374Q219.76875 35.690624 220.39375 35.690624Q221.09688 35.690624 221.64375 35.315624Q222.20625 34.925 222.40938 34.3625Q222.6125 33.784374 222.6125 31.55L222.6125 27.175L225.3625 27.175L225.3625 37.55L222.81563 37.55ZM227.9875 37.55L227.9875 23.2375L230.7375 23.2375L230.7375 37.55L227.9875 37.55ZM235.03438 30.346874L232.55 29.89375Q232.97188 28.39375 233.9875 27.675Q235.01875 26.940624 237.03438 26.940624Q238.87813 26.940624 239.76875 27.378124Q240.675 27.815624 241.03438 28.4875Q241.40938 29.14375 241.40938 30.940624L241.37813 34.14375Q241.37813 35.503124 241.50313 36.159374Q241.64375 36.8 242.00313 37.55L239.28438 37.55Q239.175 37.26875 239.01875 36.7375Q238.95625 36.4875 238.925 36.409374Q238.22188 37.096874 237.40938 37.440624Q236.6125 37.784374 235.70625 37.784374Q234.1125 37.784374 233.19063 36.925Q232.26875 36.05 232.26875 34.721874Q232.26875 33.83125 232.675 33.14375Q233.09688 32.45625 233.84688 32.096874Q234.6125 31.721874 236.05 31.45625Q237.97188 31.096874 238.70625 30.784374L238.70625 30.503124Q238.70625 29.721874 238.31563 29.39375Q237.925 29.05 236.84688 29.05Q236.1125 29.05 235.69063 29.33125Q235.28438 29.6125 235.03438 30.346874ZM238.70625 32.565624Q238.175 32.7375 237.03438 32.9875Q235.89375 33.2375 235.55 33.471874Q235.00313 33.846874 235.00313 34.440624Q235.00313 35.003124 235.425 35.425Q235.8625 35.846874 236.53438 35.846874Q237.26875 35.846874 237.94063 35.3625Q238.44063 34.9875 238.59688 34.45625Q238.70625 34.096874 238.70625 33.1125L238.70625 32.565624ZM246.6125 37.55L243.8625 37.55L243.8625 27.175L246.425 27.175L246.425 28.659374Q247.06563 27.6125 247.58125 27.284374Q248.1125 26.940624 248.78438 26.940624Q249.72188 26.940624 250.58125 27.45625L249.7375 29.846874Q249.05 29.409374 248.45625 29.409374Q247.87813 29.409374 247.47188 29.721874Q247.06563 30.034374 246.83125 30.878124Q246.6125 31.70625 246.6125 34.346874L246.6125 37.55ZM251.9875 25.76875L251.9875 23.2375L254.7375 23.2375L254.7375 25.76875L251.9875 25.76875ZM251.9875 37.55L251.9875 27.175L254.7375 27.175L254.7375 37.55L251.9875 37.55ZM261.7375 27.175L261.7375 29.3625L259.8625 29.3625L259.8625 33.55Q259.8625 34.815624 259.90936 35.034374Q259.97186 35.2375 260.15936 35.378124Q260.3625 35.503124 260.6281 35.503124Q261.0031 35.503124 261.7375 35.2375L261.97186 37.378124Q261.0031 37.784374 259.8 37.784374Q259.05 37.784374 258.45624 37.534374Q257.8625 37.284374 257.58124 36.89375Q257.3156 36.4875 257.20624 35.815624Q257.1125 35.346874 257.1125 33.89375L257.1125 29.3625L255.84688 29.3625L255.84688 27.175L257.1125 27.175L257.1125 25.1125L259.8625 23.51875L259.8625 27.175L261.7375 27.175ZM262.6906 27.175L265.6125 27.175L268.08124 34.534374L270.5031 27.175L273.34686 27.175L269.6906 37.159374L269.03436 38.971874Q268.675 39.878124 268.34686 40.346874Q268.01874 40.83125 267.59686 41.128124Q267.175 41.425 266.55 41.58125Q265.925 41.753124 265.14374 41.753124Q264.3625 41.753124 263.59686 41.596874L263.34686 39.440624Q264.0031 39.565624 264.51874 39.565624Q265.47186 39.565624 265.925 39.003124Q266.39374 38.45625 266.6281 37.58125L262.6906 27.175Z" fill-rule="nonzero"/></svg>