<svg version="1.1" viewBox="0.0 0.0 600.0 371.0" fill="none" stroke="none" stroke-linecap="square" stroke-miterlimit="10" width="600" height="371" xmlns:xlink="http://www.w3.org/1999/xlink" xmlns="http://www.w3.org/2000/svg"><path fill="#ffffff" d="M0 0L600.0 0L600.0 371.0L0 371.0L0 0Z" fill-rule="nonzero"/><path fill="#c27ba0" d="M279.74295 351.0644C202.25021 340.41324 146.24213 271.57007 151.58014 193.53114C156.91815 115.49221 221.77872 54.916668 300.0 54.916668L300.0 203.68333Z" fill-rule="nonzero"/><path fill="#6fa8dc" d="M300.0 54.916668C355.57663 54.916668 406.51886 85.89533 432.08774 135.241C457.6566 184.58665 453.58783 244.06972 421.5379 289.47415C389.48795 334.87857 334.8019 358.63205 279.74295 351.0644L300.0 203.68333Z" fill-rule="nonzero"/><path fill="#1a1a1a" d="M19.534374 189.53874L19.534374 180.94499L25.33125 180.94499L25.33125 181.96062L20.675 181.96062L20.675 184.61687L24.70625 184.61687L24.70625 185.63249L20.675 185.63249L20.675 189.53874L19.534374 189.53874ZM30.596874 187.53874L31.690624 187.66374Q31.440624 188.61687 30.7375 189.14812Q30.034374 189.67937 28.95625 189.67937Q27.596874 189.67937 26.784374 188.83562Q25.9875 187.99187 25.9875 186.47624Q25.9875 184.91374 26.8 184.05437Q27.6125 183.17937 28.89375 183.17937Q30.14375 183.17937 30.925 184.02312Q31.721874 184.86687 31.721874 186.41374Q31.721874 186.50749 31.721874 186.69499L27.08125 186.69499Q27.14375 187.72624 27.659374 188.27312Q28.175 188.80437 28.95625 188.80437Q29.534374 188.80437 29.940624 188.50749Q30.3625 188.19499 30.596874 187.53874ZM27.14375 185.83562L30.6125 185.83562Q30.55 185.03874 30.221874 184.64812Q29.70625 184.03874 28.909374 184.03874Q28.175 184.03874 27.675 184.52312Q27.190624 185.00749 27.14375 185.83562ZM33.346874 189.53874L33.346874 183.31999L34.284374 183.31999L34.284374 184.19499Q34.58125 183.72624 35.065624 183.46062Q35.55 183.17937 36.175 183.17937Q36.8625 183.17937 37.3 183.46062Q37.753124 183.74187 37.925 184.25749Q38.675 183.17937 39.846874 183.17937Q40.784374 183.17937 41.26875 183.69499Q41.76875 184.19499 41.76875 185.27312L41.76875 189.53874L40.721874 189.53874L40.721874 185.61687Q40.721874 184.99187 40.6125 184.71062Q40.51875 184.42937 40.253124 184.25749Q39.9875 184.08562 39.6125 184.08562Q38.95625 184.08562 38.51875 184.52312Q38.096874 184.96062 38.096874 185.92937L38.096874 189.53874L37.034374 189.53874L37.034374 185.49187Q37.034374 184.78874 36.76875 184.44499Q36.51875 184.08562 35.940624 184.08562Q35.4875 184.08562 35.1125 184.31999Q34.7375 184.55437 34.565624 185.00749Q34.39375 185.46062 34.39375 186.30437L34.39375 189.53874L33.346874 189.53874ZM48.409374 188.77312Q47.815624 189.27312 47.26875 189.47624Q46.7375 189.67937 46.1125 189.67937Q45.08125 189.67937 44.534374 189.17937Q43.9875 188.67937 43.9875 187.89812Q43.9875 187.44499 44.190624 187.06999Q44.39375 186.67937 44.7375 186.46062Q45.08125 186.22624 45.503124 186.11687Q45.8 186.02312 46.440624 185.94499Q47.70625 185.80437 48.315624 185.58562Q48.315624 185.36687 48.315624 185.31999Q48.315624 184.66374 48.01875 184.39812Q47.6125 184.05437 46.815624 184.05437Q46.08125 184.05437 45.721874 184.31999Q45.3625 184.56999 45.190624 185.22624L44.159374 185.08562Q44.3 184.42937 44.628124 184.02312Q44.95625 183.61687 45.565624 183.39812Q46.175 183.17937 46.971874 183.17937Q47.76875 183.17937 48.26875 183.36687Q48.76875 183.55437 49.003124 183.83562Q49.2375 184.11687 49.33125 184.55437Q49.378124 184.81999 49.378124 185.52312L49.378124 186.92937Q49.378124 188.39812 49.440624 188.78874Q49.51875 189.17937 49.721874 189.53874L48.6125 189.53874Q48.45625 189.21062 48.409374 188.77312ZM48.315624 186.41374Q47.7375 186.64812 46.596874 186.81999Q45.940624 186.91374 45.675 187.03874Q45.409374 187.14812 45.253124 187.36687Q45.1125 187.58562 45.1125 187.86687Q45.1125 188.28874 45.425 188.56999Q45.753124 188.85124 46.3625 188.85124Q46.971874 188.85124 47.440624 188.58562Q47.925 188.31999 48.14375 187.85124Q48.315624 187.49187 48.315624 186.80437L48.315624 186.41374ZM51.315624 189.53874L51.315624 180.94499L52.378124 180.94499L52.378124 189.53874L51.315624 189.53874ZM58.596874 187.53874L59.690624 187.66374Q59.440624 188.61687 58.7375 189.14812Q58.034374 189.67937 56.95625 189.67937Q55.596874 189.67937 54.784374 188.83562Q53.9875 187.99187 53.9875 186.47624Q53.9875 184.91374 54.8 184.05437Q55.6125 183.17937 56.89375 183.17937Q58.14375 183.17937 58.925 184.02312Q59.721874 184.86687 59.721874 186.41374Q59.721874 186.50749 59.721874 186.69499L55.08125 186.69499Q55.14375 187.72624 55.659374 188.27312Q56.175 188.80437 56.95625 188.80437Q57.534374 188.80437 57.940624 188.50749Q58.3625 188.19499 58.596874 187.53874ZM55.14375 185.83562L58.6125 185.83562Q58.55 185.03874 58.221874 184.64812Q57.70625 184.03874 56.909374 184.03874Q56.175 184.03874 55.675 184.52312Q55.190624 185.00749 55.14375 185.83562Z" fill-rule="nonzero"/><path fill="#9e9e9e" d="M22.425 206.53874L22.425 204.47624L18.70625 204.47624L18.70625 203.50749L22.628124 197.94499L23.4875 197.94499L23.4875 203.50749L24.64375 203.50749L24.64375 204.47624L23.4875 204.47624L23.4875 206.53874L22.425 206.53874ZM22.425 203.50749L22.425 199.64812L19.7375 203.50749L22.425 203.50749ZM26.1125 199.06999L26.1125 198.05437L31.675 198.05437L31.675 198.88249Q30.8625 199.75749 30.05 201.21062Q29.253124 202.64812 28.815624 204.17937Q28.4875 205.25749 28.409374 206.53874L27.315624 206.53874Q27.33125 205.52312 27.70625 204.08562Q28.096874 202.64812 28.8 201.31999Q29.51875 199.99187 30.33125 199.06999L26.1125 199.06999ZM33.64375 206.53874L33.64375 205.33562L34.846874 205.33562L34.846874 206.53874L33.64375 206.53874ZM37.675 201.88249Q37.01875 201.63249 36.690624 201.19499Q36.378124 200.74187 36.378124 200.13249Q36.378124 199.19499 37.05 198.55437Q37.7375 197.91374 38.846874 197.91374Q39.971874 197.91374 40.659374 198.56999Q41.346874 199.22624 41.346874 200.16374Q41.346874 200.75749 41.034374 201.19499Q40.721874 201.63249 40.08125 201.88249Q40.878124 202.13249 41.284374 202.71062Q41.690624 203.28874 41.690624 204.08562Q41.690624 205.17937 40.909374 205.92937Q40.14375 206.67937 38.8625 206.67937Q37.596874 206.67937 36.815624 205.92937Q36.034374 205.17937 36.034374 204.05437Q36.034374 203.21062 36.45625 202.64812Q36.89375 202.08562 37.675 201.88249ZM37.45625 200.08562Q37.45625 200.69499 37.846874 201.08562Q38.253124 201.47624 38.878124 201.47624Q39.4875 201.47624 39.878124 201.10124Q40.26875 200.71062 40.26875 200.14812Q40.26875 199.56999 39.8625 199.17937Q39.45625 198.77312 38.8625 198.77312Q38.253124 198.77312 37.846874 199.16374Q37.45625 199.55437 37.45625 200.08562ZM37.128124 204.05437Q37.128124 204.50749 37.33125 204.92937Q37.55 205.35124 37.971874 205.58562Q38.39375 205.81999 38.878124 205.81999Q39.628124 205.81999 40.1125 205.33562Q40.6125 204.85124 40.6125 204.10124Q40.6125 203.33562 40.1125 202.83562Q39.6125 202.33562 38.846874 202.33562Q38.096874 202.33562 37.6125 202.83562Q37.128124 203.31999 37.128124 204.05437ZM43.253124 200.00749Q43.253124 199.08562 43.70625 198.44499Q44.175 197.80437 45.05 197.80437Q45.8625 197.80437 46.39375 198.38249Q46.925 198.96062 46.925 200.06999Q46.925 201.16374 46.378124 201.75749Q45.846874 202.33562 45.065624 202.33562Q44.284374 202.33562 43.76875 201.75749Q43.253124 201.17937 43.253124 200.00749ZM45.08125 198.52312Q44.690624 198.52312 44.425 198.86687Q44.175 199.21062 44.175 200.11687Q44.175 200.94499 44.425 201.28874Q44.690624 201.61687 45.08125 201.61687Q45.4875 201.61687 45.7375 201.27312Q46.003124 200.92937 46.003124 200.03874Q46.003124 199.19499 45.7375 198.86687Q45.471874 198.52312 45.08125 198.52312ZM45.08125 206.85124L49.784374 197.80437L50.64375 197.80437L45.95625 206.85124L45.08125 206.85124ZM48.8 204.52312Q48.8 203.60124 49.253124 202.96062Q49.721874 202.31999 50.6125 202.31999Q51.425 202.31999 51.95625 202.89812Q52.4875 203.46062 52.4875 204.58562Q52.4875 205.67937 51.940624 206.27312Q51.409374 206.85124 50.6125 206.85124Q49.846874 206.85124 49.315624 206.27312Q48.8 205.69499 48.8 204.52312ZM50.64375 203.03874Q50.2375 203.03874 49.971874 203.38249Q49.721874 203.72624 49.721874 204.63249Q49.721874 205.44499 49.9875 205.78874Q50.253124 206.13249 50.64375 206.13249Q51.034374 206.13249 51.3 205.78874Q51.565624 205.44499 51.565624 204.53874Q51.565624 203.71062 51.3 203.38249Q51.034374 203.03874 50.64375 203.03874Z" fill-rule="nonzero"/><path stroke="#757575" stroke-width="1.0" stroke-linecap="butt" d="M18.55 194.03874L145.23334 194.03874L159.00113 194.03874" fill-rule="nonzero"/><path fill="#9e9e9e" d="M161.00113 194.03874C161.00113 192.93417 160.1057 192.03874 159.00113 192.03874C157.89656 192.03874 157.00113 192.93417 157.00113 194.03874C157.00113 195.14331 157.89656 196.03874 159.00113 196.03874C160.1057 196.03874 161.00113 195.14331 161.00113 194.03874" fill-rule="nonzero"/><path fill="#1a1a1a" d="M556.34064 208.82793L556.34064 200.23418L558.0594 200.23418L560.09064 206.3123Q560.3719 207.17168 560.4969 207.59355Q560.6375 207.1248 560.95 206.21855L563.0125 200.23418L564.54376 200.23418L564.54376 208.82793L563.45 208.82793L563.45 201.64043L560.95 208.82793L559.91876 208.82793L557.4344 201.51543L557.4344 208.82793L556.34064 208.82793ZM569.3094 208.0623Q568.71564 208.5623 568.16876 208.76543Q567.6375 208.96855 567.0125 208.96855Q565.98126 208.96855 565.4344 208.46855Q564.8875 207.96855 564.8875 207.1873Q564.8875 206.73418 565.09064 206.35918Q565.29376 205.96855 565.6375 205.7498Q565.98126 205.51543 566.40314 205.40605Q566.7 205.3123 567.34064 205.23418Q568.60626 205.09355 569.21564 204.8748Q569.21564 204.65605 569.21564 204.60918Q569.21564 203.95293 568.91876 203.6873Q568.5125 203.34355 567.71564 203.34355Q566.98126 203.34355 566.6219 203.60918Q566.2625 203.85918 566.09064 204.51543L565.0594 204.3748Q565.2 203.71855 565.52814 203.3123Q565.85626 202.90605 566.46564 202.6873Q567.075 202.46855 567.8719 202.46855Q568.66876 202.46855 569.16876 202.65605Q569.66876 202.84355 569.90314 203.1248Q570.1375 203.40605 570.23126 203.84355Q570.27814 204.10918 570.27814 204.8123L570.27814 206.21855Q570.27814 207.6873 570.34064 208.07793Q570.41876 208.46855 570.6219 208.82793L569.5125 208.82793Q569.35626 208.4998 569.3094 208.0623ZM569.21564 205.70293Q568.6375 205.9373 567.4969 206.10918Q566.84064 206.20293 566.575 206.32793Q566.3094 206.4373 566.15314 206.65605Q566.0125 206.8748 566.0125 207.15605Q566.0125 207.57793 566.325 207.85918Q566.65314 208.14043 567.2625 208.14043Q567.8719 208.14043 568.34064 207.8748Q568.825 207.60918 569.04376 207.14043Q569.21564 206.78105 569.21564 206.09355L569.21564 205.70293ZM572.21564 208.82793L572.21564 200.23418L573.27814 200.23418L573.27814 208.82793L572.21564 208.82793ZM579.4969 206.82793L580.59064 206.95293Q580.34064 207.90605 579.6375 208.4373Q578.9344 208.96855 577.85626 208.96855Q576.4969 208.96855 575.6844 208.1248Q574.8875 207.28105 574.8875 205.76543Q574.8875 204.20293 575.7 203.34355Q576.5125 202.46855 577.79376 202.46855Q579.04376 202.46855 579.825 203.3123Q580.6219 204.15605 580.6219 205.70293Q580.6219 205.79668 580.6219 205.98418L575.98126 205.98418Q576.04376 207.01543 576.5594 207.5623Q577.075 208.09355 577.85626 208.09355Q578.4344 208.09355 578.84064 207.79668Q579.2625 207.48418 579.4969 206.82793ZM576.04376 205.1248L579.5125 205.1248Q579.45 204.32793 579.1219 203.9373Q578.60626 203.32793 577.8094 203.32793Q577.075 203.32793 576.575 203.8123Q576.09064 204.29668 576.04376 205.1248Z" fill-rule="nonzero"/><path fill="#9e9e9e" d="M546.95 223.57793L548.0594 223.48418Q548.1844 224.29668 548.6219 224.70293Q549.075 225.10918 549.71564 225.10918Q550.46564 225.10918 550.9969 224.53105Q551.52814 223.95293 551.52814 223.01543Q551.52814 222.10918 551.0125 221.59355Q550.5125 221.0623 549.6844 221.0623Q549.1844 221.0623 548.7625 221.29668Q548.35626 221.53105 548.1219 221.89043L547.1375 221.76543L547.96564 217.35918L552.2469 217.35918L552.2469 218.35918L548.8094 218.35918L548.35626 220.67168Q549.1219 220.1248 549.96564 220.1248Q551.09064 220.1248 551.85626 220.90605Q552.6375 221.6873 552.6375 222.92168Q552.6375 224.07793 551.96564 224.9373Q551.1375 225.96855 549.71564 225.96855Q548.54376 225.96855 547.79376 225.3123Q547.0594 224.65605 546.95 223.57793ZM559.4969 224.8123L559.4969 225.82793L553.8094 225.82793Q553.8094 225.45293 553.9344 225.09355Q554.15314 224.51543 554.6219 223.95293Q555.10626 223.39043 556.0125 222.65605Q557.41876 221.4998 557.90314 220.82793Q558.40314 220.15605 558.40314 219.5623Q558.40314 218.9373 557.95 218.51543Q557.4969 218.07793 556.77814 218.07793Q556.0125 218.07793 555.5594 218.53105Q555.10626 218.98418 555.09064 219.79668L554.0125 219.6873Q554.1219 218.46855 554.84064 217.84355Q555.575 217.20293 556.8094 217.20293Q558.04376 217.20293 558.7625 217.89043Q559.48126 218.57793 559.48126 219.59355Q559.48126 220.10918 559.2625 220.60918Q559.0594 221.09355 558.5594 221.65605Q558.075 222.20293 556.95 223.15605Q555.9969 223.95293 555.71564 224.2498Q555.45 224.53105 555.27814 224.8123L559.4969 224.8123ZM561.54376 225.82793L561.54376 224.6248L562.7469 224.6248L562.7469 225.82793L561.54376 225.82793ZM569.4969 224.8123L569.4969 225.82793L563.8094 225.82793Q563.8094 225.45293 563.9344 225.09355Q564.15314 224.51543 564.6219 223.95293Q565.10626 223.39043 566.0125 222.65605Q567.41876 221.4998 567.90314 220.82793Q568.40314 220.15605 568.40314 219.5623Q568.40314 218.9373 567.95 218.51543Q567.4969 218.07793 566.77814 218.07793Q566.0125 218.07793 565.5594 218.53105Q565.10626 218.98418 565.09064 219.79668L564.0125 219.6873Q564.1219 218.46855 564.84064 217.84355Q565.575 217.20293 566.8094 217.20293Q568.04376 217.20293 568.7625 217.89043Q569.48126 218.57793 569.48126 219.59355Q569.48126 220.10918 569.2625 220.60918Q569.0594 221.09355 568.5594 221.65605Q568.075 222.20293 566.95 223.15605Q565.9969 223.95293 565.71564 224.2498Q565.45 224.53105 565.27814 224.8123L569.4969 224.8123ZM571.15314 219.29668Q571.15314 218.3748 571.60626 217.73418Q572.075 217.09355 572.95 217.09355Q573.7625 217.09355 574.29376 217.67168Q574.825 218.2498 574.825 219.35918Q574.825 220.45293 574.27814 221.04668Q573.7469 221.6248 572.96564 221.6248Q572.1844 221.6248 571.66876 221.04668Q571.15314 220.46855 571.15314 219.29668ZM572.98126 217.8123Q572.59064 217.8123 572.325 218.15605Q572.075 218.4998 572.075 219.40605Q572.075 220.23418 572.325 220.57793Q572.59064 220.90605 572.98126 220.90605Q573.3875 220.90605 573.6375 220.5623Q573.90314 220.21855 573.90314 219.32793Q573.90314 218.48418 573.6375 218.15605Q573.3719 217.8123 572.98126 217.8123ZM572.98126 226.14043L577.6844 217.09355L578.54376 217.09355L573.85626 226.14043L572.98126 226.14043ZM576.7 223.8123Q576.7 222.89043 577.15314 222.2498Q577.6219 221.60918 578.5125 221.60918Q579.325 221.60918 579.85626 222.1873Q580.3875 222.7498 580.3875 223.8748Q580.3875 224.96855 579.84064 225.5623Q579.3094 226.14043 578.5125 226.14043Q577.7469 226.14043 577.21564 225.5623Q576.7 224.98418 576.7 223.8123ZM578.54376 222.32793Q578.1375 222.32793 577.8719 222.67168Q577.6219 223.01543 577.6219 223.92168Q577.6219 224.73418 577.8875 225.07793Q578.15314 225.42168 578.54376 225.42168Q578.9344 225.42168 579.2 225.07793Q579.46564 224.73418 579.46564 223.82793Q579.46564 222.9998 579.2 222.67168Q578.9344 222.32793 578.54376 222.32793Z" fill-rule="nonzero"/><path stroke="#757575" stroke-width="1.0" stroke-linecap="butt" d="M581.45 213.32793L454.76666 213.32793L440.99887 213.32793" fill-rule="nonzero"/><path fill="#9e9e9e" d="M442.99887 213.32793C442.99887 212.22334 442.10342 211.32793 440.99887 211.32793C439.8943 211.32793 438.99887 212.22334 438.99887 213.32793C438.99887 214.4325 439.8943 215.32793 440.99887 215.32793C442.10342 215.32793 442.99887 214.4325 442.99887 213.32793" fill-rule="nonzero"/><path fill="#757575" d="M22.753124 37.55L18.8 27.175L20.659374 27.175L22.89375 33.39375Q23.253124 34.39375 23.55 35.471874Q23.784374 34.659374 24.20625 33.503124L26.503124 27.175L28.315624 27.175L24.39375 37.55L22.753124 37.55ZM28.878124 25.253124L28.878124 23.2375L30.64375 23.2375L30.64375 25.253124L28.878124 25.253124ZM28.878124 37.55L28.878124 27.175L30.64375 27.175L30.64375 37.55L28.878124 37.55ZM32.83125 37.55L32.83125 23.2375L34.58125 23.2375L34.58125 37.55L32.83125 37.55ZM36.83125 37.55L36.83125 23.2375L38.58125 23.2375L38.58125 37.55L36.83125 37.55ZM47.64375 36.26875Q46.659374 37.096874 45.753124 37.440624Q44.846874 37.784374 43.815624 37.784374Q42.1125 37.784374 41.190624 36.95625Q40.26875 36.1125 40.26875 34.815624Q40.26875 34.05 40.6125 33.425Q40.971874 32.8 41.534374 32.425Q42.096874 32.034374 42.8 31.83125Q43.315624 31.70625 44.3625 31.565624Q46.4875 31.315624 47.4875 30.971874Q47.503124 30.6125 47.503124 30.503124Q47.503124 29.440624 47.003124 28.9875Q46.33125 28.39375 45.003124 28.39375Q43.753124 28.39375 43.159374 28.83125Q42.58125 29.26875 42.3 30.378124L40.58125 30.14375Q40.815624 29.034374 41.346874 28.3625Q41.878124 27.675 42.89375 27.315624Q43.909374 26.940624 45.253124 26.940624Q46.58125 26.940624 47.409374 27.253124Q48.2375 27.565624 48.628124 28.05Q49.01875 28.51875 49.175 29.2375Q49.26875 29.690624 49.26875 30.8625L49.26875 33.20625Q49.26875 35.659374 49.378124 36.315624Q49.4875 36.95625 49.83125 37.55L47.9875 37.55Q47.721874 37.003124 47.64375 36.26875ZM47.4875 32.346874Q46.534374 32.7375 44.6125 33.003124Q43.534374 33.159374 43.08125 33.3625Q42.64375 33.55 42.39375 33.925Q42.14375 34.3 42.14375 34.76875Q42.14375 35.471874 42.675 35.940624Q43.20625 36.409374 44.2375 36.409374Q45.253124 36.409374 46.034374 35.971874Q46.83125 35.51875 47.20625 34.753124Q47.4875 34.14375 47.4875 32.9875L47.4875 32.346874ZM51.55 38.409374L53.253124 38.659374Q53.3625 39.45625 53.846874 39.815624Q54.503124 40.3 55.64375 40.3Q56.8625 40.3 57.51875 39.815624Q58.190624 39.33125 58.425 38.45625Q58.565624 37.909374 58.55 36.190624Q57.39375 37.55 55.675 37.55Q53.534374 37.55 52.3625 36.003124Q51.190624 34.45625 51.190624 32.3Q51.190624 30.815624 51.721874 29.565624Q52.26875 28.315624 53.284374 27.628124Q54.315624 26.940624 55.690624 26.940624Q57.51875 26.940624 58.721874 28.425L58.721874 27.175L60.33125 27.175L60.33125 36.14375Q60.33125 38.565624 59.83125 39.565624Q59.346874 40.58125 58.26875 41.159374Q57.20625 41.753124 55.64375 41.753124Q53.8 41.753124 52.64375 40.925Q51.503124 40.096874 51.55 38.409374ZM53.003124 32.175Q53.003124 34.221874 53.815624 35.159374Q54.628124 36.096874 55.846874 36.096874Q57.05 36.096874 57.8625 35.159374Q58.690624 34.221874 58.690624 32.2375Q58.690624 30.33125 57.846874 29.3625Q57.003124 28.39375 55.815624 28.39375Q54.64375 28.39375 53.815624 29.346874Q53.003124 30.3 53.003124 32.175ZM69.97188 34.20625L71.78438 34.440624Q71.3625 36.01875 70.19063 36.909374Q69.03438 37.784374 67.22188 37.784374Q64.95625 37.784374 63.6125 36.39375Q62.284374 34.9875 62.284374 32.45625Q62.284374 29.83125 63.628124 28.39375Q64.97188 26.940624 67.12813 26.940624Q69.20625 26.940624 70.51875 28.3625Q71.84688 29.76875 71.84688 32.346874Q71.84688 32.503124 71.83125 32.815624L64.09688 32.815624Q64.19063 34.51875 65.06563 35.425Q65.94063 36.33125 67.2375 36.33125Q68.20625 36.33125 68.87813 35.83125Q69.56563 35.315624 69.97188 34.20625ZM64.19063 31.3625L69.9875 31.3625Q69.87813 30.065624 69.33125 29.409374Q68.4875 28.39375 67.14375 28.39375Q65.94063 28.39375 65.1125 29.20625Q64.28438 30.003124 64.19063 31.3625ZM73.84688 37.55L73.84688 27.175L75.425 27.175L75.425 28.753124Q76.03438 27.64375 76.55 27.3Q77.06563 26.940624 77.675 26.940624Q78.56563 26.940624 79.4875 27.503124L78.87813 29.14375Q78.2375 28.753124 77.59688 28.753124Q77.01875 28.753124 76.55 29.1125Q76.09688 29.45625 75.89375 30.065624Q75.6125 31.003124 75.6125 32.1125L75.6125 37.55L73.84688 37.55ZM79.25313 41.51875L79.25313 40.253124L90.89375 40.253124L90.89375 41.51875L79.25313 41.51875ZM98.64375 33.753124L100.3625 33.971874Q100.08125 35.76875 98.90938 36.784374Q97.75313 37.784374 96.05 37.784374Q93.925 37.784374 92.62813 36.39375Q91.33125 35.003124 91.33125 32.409374Q91.33125 30.721874 91.87813 29.471874Q92.44063 28.20625 93.58125 27.58125Q94.72188 26.940624 96.06563 26.940624Q97.75313 26.940624 98.81563 27.8Q99.89375 28.659374 100.20625 30.221874L98.4875 30.4875Q98.25313 29.440624 97.62813 28.925Q97.00313 28.39375 96.12813 28.39375Q94.8 28.39375 93.97188 29.346874Q93.14375 30.3 93.14375 32.346874Q93.14375 34.440624 93.94063 35.39375Q94.7375 36.33125 96.03438 36.33125Q97.06563 36.33125 97.75313 35.70625Q98.45625 35.065624 98.64375 33.753124ZM101.22188 32.3625Q101.22188 29.4875 102.81563 28.096874Q104.15938 26.940624 106.08125 26.940624Q108.22188 26.940624 109.56563 28.346874Q110.925 29.753124 110.925 32.221874Q110.925 34.221874 110.33125 35.378124Q109.7375 36.51875 108.58125 37.159374Q107.44063 37.784374 106.08125 37.784374Q103.89375 37.784374 102.55 36.39375Q101.22188 34.9875 101.22188 32.3625ZM103.01875 32.3625Q103.01875 34.3625 103.87813 35.346874Q104.75313 36.33125 106.08125 36.33125Q107.39375 36.33125 108.25313 35.346874Q109.12813 34.346874 109.12813 32.3Q109.12813 30.378124 108.25313 29.39375Q107.37813 28.39375 106.08125 28.39375Q104.75313 28.39375 103.87813 29.39375Q103.01875 30.378124 103.01875 32.3625ZM119.65938 37.55L119.65938 36.01875Q118.45625 37.784374 116.37813 37.784374Q115.45625 37.784374 114.65938 37.440624Q113.8625 37.08125 113.47188 36.55Q113.09688 36.01875 112.94063 35.2375Q112.83125 34.721874 112.83125 33.596874L112.83125 27.175L114.58125 27.175L114.58125 32.925Q114.58125 34.3 114.69063 34.784374Q114.8625 35.471874 115.39375 35.878124Q115.94063 36.26875 116.72188 36.26875Q117.51875 36.26875 118.20625 35.8625Q118.90938 35.45625 119.19063 34.76875Q119.4875 34.065624 119.4875 32.7375L119.4875 27.175L121.2375 27.175L121.2375 37.55L119.65938 37.55ZM122.8625 37.55L122.8625 27.175L124.45625 27.175L124.45625 28.659374Q125.59688 26.940624 127.75313 26.940624Q128.69063 26.940624 129.47188 27.284374Q130.26875 27.6125 130.65938 28.159374Q131.05 28.70625 131.20625 29.45625Q131.3 29.95625 131.3 31.175L131.3 37.55L129.53438 37.55L129.53438 31.2375Q129.53438 30.159374 129.33125 29.628124Q129.12813 29.096874 128.59688 28.784374Q128.08125 28.471874 127.37813 28.471874Q126.25313 28.471874 125.44063 29.190624Q124.62813 29.89375 124.62813 31.878124L124.62813 37.55L122.8625 37.55ZM136.70625 35.971874L136.95625 37.534374Q136.22188 37.690624 135.62813 37.690624Q134.675 37.690624 134.14375 37.39375Q133.62813 37.08125 133.40938 36.596874Q133.19063 36.096874 133.19063 34.51875L133.19063 28.55L131.90938 28.55L131.90938 27.175L133.19063 27.175L133.19063 24.6125L134.94063 23.55L134.94063 27.175L136.70625 27.175L136.70625 28.55L134.94063 28.55L134.94063 34.6125Q134.94063 35.3625 135.03438 35.58125Q135.12813 35.784374 135.33125 35.925Q135.55 36.05 135.94063 36.05Q136.22188 36.05 136.70625 35.971874Z" fill-rule="nonzero"/></svg>