<svg version="1.1" viewBox="0.0 0.0 586.0 363.0" fill="none" stroke="none" stroke-linecap="square" stroke-miterlimit="10" width="586" height="363" xmlns:xlink="http://www.w3.org/1999/xlink" xmlns="http://www.w3.org/2000/svg"><path fill="#ffffff" d="M0 0L586.0 0L586.0 363.0L0 363.0L0 0Z" fill-rule="nonzero"/><clipPath id="id_0"><path d="M114.15 54.25L567.85 54.25L567.85 307.85L114.15 307.85L114.15 54.25Z" clip-rule="nonzero"/></clipPath><path stroke="#000000" stroke-width="2.0" stroke-linecap="butt" stroke-opacity="0.0" clip-path="url(#id_0)" d="M114.0 85.0L114.0 65.0L280.0 65.0C281.10458 65.0 282.0 65.89543 282.0 67.0L282.0 83.0C282.0 84.10457 281.10458 85.0 280.0 85.0Z" fill-rule="nonzero"/><path fill="#d5a6bd" clip-path="url(#id_0)" d="M114.0 85.0L114.0 65.0L280.0 65.0C281.10458 65.0 282.0 65.89543 282.0 67.0L282.0 83.0C282.0 84.10457 281.10458 85.0 280.0 85.0Z" fill-rule="nonzero"/><path stroke="#000000" stroke-width="2.0" stroke-linecap="butt" stroke-opacity="0.0" clip-path="url(#id_0)" d="M114.0 115.0L114.0 95.0L524.0 95.0C525.10455 95.0 526.0 95.89543 526.0 97.0L526.0 113.0C526.0 114.10457 525.10455 115.0 524.0 115.0Z" fill-rule="nonzero"/><path fill="#d5a6bd" clip-path="url(#id_0)" d="M114.0 115.0L114.0 95.0L524.0 95.0C525.10455 95.0 526.0 95.89543 526.0 97.0L526.0 113.0C526.0 114.10457 525.10455 115.0 524.0 115.0Z" fill-rule="nonzero"/><path stroke="#000000" stroke-width="2.0" stroke-linecap="butt" stroke-opacity="0.0" clip-path="url(#id_0)" d="M114.0 145.0L114.0 125.0L454.0 125.0C455.10458 125.0 456.0 125.89543 456.0 127.0L456.0 143.0C456.0 144.10457 455.10458 145.0 454.0 145.0Z" fill-rule="nonzero"/><path fill="#d5a6bd" clip-path="url(#id_0)" d="M114.0 145.0L114.0 125.0L454.0 125.0C455.10458 125.0 456.0 125.89543 456.0 127.0L456.0 143.0C456.0 144.10457 455.10458 145.0 454.0 145.0Z" fill-rule="nonzero"/><path stroke="#000000" stroke-width="2.0" stroke-linecap="butt" stroke-opacity="0.0" clip-path="url(#id_0)" d="M114.0 176.0L114.0 156.0L496.0 156.0C497.10458 156.0 498.0 156.89543 498.0 158.0L498.0 174.0C498.0 175.10457 497.10458 176.0 496.0 176.0Z" fill-rule="nonzero"/><path fill="#d5a6bd" clip-path="url(#id_0)" d="M114.0 176.0L114.0 156.0L496.0 156.0C497.10458 156.0 498.0 156.89543 498.0 158.0L498.0 174.0C498.0 175.10457 497.10458 176.0 496.0 176.0Z" fill-rule="nonzero"/><path stroke="#000000" stroke-width="2.0" stroke-linecap="butt" stroke-opacity="0.0" clip-path="url(#id_0)" d="M114.0 206.0L114.0 186.0L496.0 186.0C497.10458 186.0 498.0 186.89543 498.0 188.0L498.0 204.0C498.0 205.10457 497.10458 206.0 496.0 206.0Z" fill-rule="nonzero"/><path fill="#6fa8dc" clip-path="url(#id_0)" d="M114.0 206.0L114.0 186.0L496.0 186.0C497.10458 186.0 498.0 186.89543 498.0 188.0L498.0 204.0C498.0 205.10457 497.10458 206.0 496.0 206.0Z" fill-rule="nonzero"/><path stroke="#000000" stroke-width="2.0" stroke-linecap="butt" stroke-opacity="0.0" clip-path="url(#id_0)" d="M114.0 237.0L114.0 217.0L496.0 217.0C497.10458 217.0 498.0 217.89543 498.0 219.0L498.0 235.0C498.0 236.10457 497.10458 237.0 496.0 237.0Z" fill-rule="nonzero"/><path fill="#6fa8dc" clip-path="url(#id_0)" d="M114.0 237.0L114.0 217.0L496.0 217.0C497.10458 217.0 498.0 217.89543 498.0 219.0L498.0 235.0C498.0 236.10457 497.10458 237.0 496.0 237.0Z" fill-rule="nonzero"/><path stroke="#000000" stroke-width="2.0" stroke-linecap="butt" stroke-opacity="0.0" clip-path="url(#id_0)" d="M114.0 267.0L114.0 247.0L531.0 247.0C532.10455 247.0 533.0 247.89543 533.0 249.0L533.0 265.0C533.0 266.10458 532.10455 267.0 531.0 267.0Z" fill-rule="nonzero"/><path fill="#6fa8dc" clip-path="url(#id_0)" d="M114.0 267.0L114.0 247.0L531.0 247.0C532.10455 247.0 533.0 247.89543 533.0 249.0L533.0 265.0C533.0 266.10458 532.10455 267.0 531.0 267.0Z" fill-rule="nonzero"/><path stroke="#000000" stroke-width="2.0" stroke-linecap="butt" stroke-opacity="0.0" clip-path="url(#id_0)" d="M114.0 297.0L114.0 277.0L349.0 277.0C350.10458 277.0 351.0 277.89542 351.0 279.0L351.0 295.0C351.0 296.10458 350.10458 297.0 349.0 297.0Z" fill-rule="nonzero"/><path fill="#6fa8dc" clip-path="url(#id_0)" d="M114.0 297.0L114.0 277.0L349.0 277.0C350.10458 277.0 351.0 277.89542 351.0 279.0L351.0 295.0C351.0 296.10458 350.10458 297.0 349.0 297.0Z" fill-rule="nonzero"/><path stroke="#ffffff" stroke-width="3.0" stroke-linejoin="round" stroke-linecap="round" d="M300.0919 79.5L294.24814 79.5L294.24814 78.34375L297.01376 75.390625Q297.57626 74.78125 297.8419 74.3125Q298.12314 73.84375 298.12314 73.4375Q298.12314 72.859375 297.82626 72.546875Q297.545 72.21875 297.01376 72.21875Q296.43564 72.21875 296.1075 72.609375Q295.7794 73.0 295.7794 73.65625L294.07626 73.65625Q294.07626 72.875 294.45126 72.234375Q294.82626 71.578125 295.49814 71.21875Q296.18564 70.84375 297.045 70.84375Q298.3575 70.84375 299.0919 71.484375Q299.82626 72.109375 299.82626 73.265625Q299.82626 73.90625 299.49814 74.5625Q299.17 75.21875 298.37314 76.09375L296.43564 78.140625L300.0919 78.140625L300.0919 79.5ZM306.26376 76.28125L307.2325 76.28125L307.2325 77.65625L306.26376 77.65625L306.26376 79.5L304.56064 79.5L304.56064 77.65625L301.07626 77.65625L300.99814 76.59375L304.545 70.96875L306.26376 70.96875L306.26376 76.28125ZM302.68564 76.28125L304.56064 76.28125L304.56064 73.28125L304.45126 73.46875L302.68564 76.28125Z" fill-rule="nonzero"/><path fill="#434343" d="M300.0919 79.5L294.24814 79.5L294.24814 78.34375L297.01376 75.390625Q297.57626 74.78125 297.8419 74.3125Q298.12314 73.84375 298.12314 73.4375Q298.12314 72.859375 297.82626 72.546875Q297.545 72.21875 297.01376 72.21875Q296.43564 72.21875 296.1075 72.609375Q295.7794 73.0 295.7794 73.65625L294.07626 73.65625Q294.07626 72.875 294.45126 72.234375Q294.82626 71.578125 295.49814 71.21875Q296.18564 70.84375 297.045 70.84375Q298.3575 70.84375 299.0919 71.484375Q299.82626 72.109375 299.82626 73.265625Q299.82626 73.90625 299.49814 74.5625Q299.17 75.21875 298.37314 76.09375L296.43564 78.140625L300.0919 78.140625L300.0919 79.5ZM306.26376 76.28125L307.2325 76.28125L307.2325 77.65625L306.26376 77.65625L306.26376 79.5L304.56064 79.5L304.56064 77.65625L301.07626 77.65625L300.99814 76.59375L304.545 70.96875L306.26376 70.96875L306.26376 76.28125ZM302.68564 76.28125L304.56064 76.28125L304.56064 73.28125L304.45126 73.46875L302.68564 76.28125Z" fill-rule="nonzero"/><path stroke="#ffffff" stroke-width="3.0" stroke-linejoin="round" stroke-linecap="round" d="M538.7981 105.296875L539.2981 100.96875L544.07935 100.96875L544.07935 102.375L540.6887 102.375L540.47 104.21875Q541.07935 103.890625 541.7512 103.890625Q542.97 103.890625 543.6575 104.65625Q544.3606 105.40625 544.3606 106.765625Q544.3606 107.59375 544.0012 108.25Q543.6575 108.890625 543.0012 109.265625Q542.3606 109.625 541.47 109.625Q540.70435 109.625 540.0325 109.3125Q539.3762 108.984375 538.9856 108.421875Q538.6106 107.859375 538.57935 107.125L540.26685 107.125Q540.3137 107.65625 540.6262 107.953125Q540.95435 108.25 541.47 108.25Q542.0481 108.25 542.345 107.84375Q542.6575 107.421875 542.6575 106.671875Q542.6575 105.9375 542.2981 105.5625Q541.95435 105.171875 541.2981 105.171875Q540.6887 105.171875 540.3137 105.484375L540.1575 105.640625L538.7981 105.296875ZM549.51685 106.09375Q548.845 106.734375 547.97 106.734375Q546.82935 106.734375 546.14185 105.96875Q545.47 105.1875 545.47 103.875Q545.47 103.03125 545.82935 102.328125Q546.20435 101.625 546.8606 101.234375Q547.51685 100.84375 548.345 100.84375Q549.1887 100.84375 549.845 101.265625Q550.5012 101.6875 550.8606 102.484375Q551.22 103.28125 551.2356 104.296875L551.2356 104.921875Q551.2356 107.0625 550.1731 108.28125Q549.1106 109.5 547.1575 109.578125L546.7512 109.578125L546.7512 108.171875L547.1262 108.15625Q549.32935 108.0625 549.51685 106.09375ZM548.3762 105.4375Q548.7981 105.4375 549.07935 105.234375Q549.3762 105.015625 549.5325 104.71875L549.5325 104.03125Q549.5325 103.171875 549.20435 102.703125Q548.8762 102.21875 548.32935 102.21875Q547.8137 102.21875 547.4856 102.6875Q547.1575 103.140625 547.1575 103.84375Q547.1575 104.546875 547.47 105.0Q547.7981 105.4375 548.3762 105.4375Z" fill-rule="nonzero"/><path fill="#434343" d="M538.7981 105.296875L539.2981 100.96875L544.07935 100.96875L544.07935 102.375L540.6887 102.375L540.47 104.21875Q541.07935 103.890625 541.7512 103.890625Q542.97 103.890625 543.6575 104.65625Q544.3606 105.40625 544.3606 106.765625Q544.3606 107.59375 544.0012 108.25Q543.6575 108.890625 543.0012 109.265625Q542.3606 109.625 541.47 109.625Q540.70435 109.625 540.0325 109.3125Q539.3762 108.984375 538.9856 108.421875Q538.6106 107.859375 538.57935 107.125L540.26685 107.125Q540.3137 107.65625 540.6262 107.953125Q540.95435 108.25 541.47 108.25Q542.0481 108.25 542.345 107.84375Q542.6575 107.421875 542.6575 106.671875Q542.6575 105.9375 542.2981 105.5625Q541.95435 105.171875 541.2981 105.171875Q540.6887 105.171875 540.3137 105.484375L540.1575 105.640625L538.7981 105.296875ZM549.51685 106.09375Q548.845 106.734375 547.97 106.734375Q546.82935 106.734375 546.14185 105.96875Q545.47 105.1875 545.47 103.875Q545.47 103.03125 545.82935 102.328125Q546.20435 101.625 546.8606 101.234375Q547.51685 100.84375 548.345 100.84375Q549.1887 100.84375 549.845 101.265625Q550.5012 101.6875 550.8606 102.484375Q551.22 103.28125 551.2356 104.296875L551.2356 104.921875Q551.2356 107.0625 550.1731 108.28125Q549.1106 109.5 547.1575 109.578125L546.7512 109.578125L546.7512 108.171875L547.1262 108.15625Q549.32935 108.0625 549.51685 106.09375ZM548.3762 105.4375Q548.7981 105.4375 549.07935 105.234375Q549.3762 105.015625 549.5325 104.71875L549.5325 104.03125Q549.5325 103.171875 549.20435 102.703125Q548.8762 102.21875 548.32935 102.21875Q547.8137 102.21875 547.4856 102.6875Q547.1575 103.140625 547.1575 103.84375Q547.1575 104.546875 547.47 105.0Q547.7981 105.4375 548.3762 105.4375Z" fill-rule="nonzero"/><path stroke="#ffffff" stroke-width="3.0" stroke-linejoin="round" stroke-linecap="round" d="M473.76376 136.28125L474.7325 136.28125L474.7325 137.65625L473.76376 137.65625L473.76376 139.5L472.06064 139.5L472.06064 137.65625L468.57626 137.65625L468.49814 136.59375L472.045 130.96875L473.76376 130.96875L473.76376 136.28125ZM470.18564 136.28125L472.06064 136.28125L472.06064 133.28125L471.95126 133.46875L470.18564 136.28125ZM479.7169 136.09375Q479.045 136.73438 478.17 136.73438Q477.0294 136.73438 476.3419 135.96875Q475.67 135.1875 475.67 133.875Q475.67 133.03125 476.0294 132.32812Q476.4044 131.625 477.06064 131.23438Q477.7169 130.84375 478.545 130.84375Q479.38876 130.84375 480.045 131.26562Q480.70126 131.6875 481.06064 132.48438Q481.42 133.28125 481.43564 134.29688L481.43564 134.92188Q481.43564 137.0625 480.37314 138.28125Q479.31064 139.5 477.3575 139.57812L476.95126 139.57812L476.95126 138.17188L477.32626 138.15625Q479.5294 138.0625 479.7169 136.09375ZM478.57626 135.4375Q478.99814 135.4375 479.2794 135.23438Q479.57626 135.01562 479.7325 134.71875L479.7325 134.03125Q479.7325 133.17188 479.4044 132.70312Q479.07626 132.21875 478.5294 132.21875Q478.01376 132.21875 477.68564 132.6875Q477.3575 133.14062 477.3575 133.84375Q477.3575 134.54688 477.67 135.0Q477.99814 135.4375 478.57626 135.4375Z" fill-rule="nonzero"/><path fill="#434343" d="M473.76376 136.28125L474.7325 136.28125L474.7325 137.65625L473.76376 137.65625L473.76376 139.5L472.06064 139.5L472.06064 137.65625L468.57626 137.65625L468.49814 136.59375L472.045 130.96875L473.76376 130.96875L473.76376 136.28125ZM470.18564 136.28125L472.06064 136.28125L472.06064 133.28125L471.95126 133.46875L470.18564 136.28125ZM479.7169 136.09375Q479.045 136.73438 478.17 136.73438Q477.0294 136.73438 476.3419 135.96875Q475.67 135.1875 475.67 133.875Q475.67 133.03125 476.0294 132.32812Q476.4044 131.625 477.06064 131.23438Q477.7169 130.84375 478.545 130.84375Q479.38876 130.84375 480.045 131.26562Q480.70126 131.6875 481.06064 132.48438Q481.42 133.28125 481.43564 134.29688L481.43564 134.92188Q481.43564 137.0625 480.37314 138.28125Q479.31064 139.5 477.3575 139.57812L476.95126 139.57812L476.95126 138.17188L477.32626 138.15625Q479.5294 138.0625 479.7169 136.09375ZM478.57626 135.4375Q478.99814 135.4375 479.2794 135.23438Q479.57626 135.01562 479.7325 134.71875L479.7325 134.03125Q479.7325 133.17188 479.4044 132.70312Q479.07626 132.21875 478.5294 132.21875Q478.01376 132.21875 477.68564 132.6875Q477.3575 133.14062 477.3575 133.84375Q477.3575 134.54688 477.67 135.0Q477.99814 135.4375 478.57626 135.4375Z" fill-rule="nonzero"/><path stroke="#ffffff" stroke-width="3.0" stroke-linejoin="round" stroke-linecap="round" d="M510.8781 166.29688L511.3781 161.96875L516.15936 161.96875L516.15936 163.375L512.76874 163.375L512.55 165.21875Q513.15936 164.89062 513.83124 164.89062Q515.05 164.89062 515.7375 165.65625Q516.4406 166.40625 516.4406 167.76562Q516.4406 168.59375 516.08124 169.25Q515.7375 169.89062 515.08124 170.26562Q514.4406 170.625 513.55 170.625Q512.78436 170.625 512.1125 170.3125Q511.45624 169.98438 511.0656 169.42188Q510.6906 168.85938 510.65936 168.125L512.34686 168.125Q512.39374 168.65625 512.70624 168.95312Q513.03436 169.25 513.55 169.25Q514.1281 169.25 514.425 168.84375Q514.7375 168.42188 514.7375 167.67188Q514.7375 166.9375 514.3781 166.5625Q514.03436 166.17188 513.3781 166.17188Q512.76874 166.17188 512.39374 166.48438L512.2375 166.64062L510.8781 166.29688ZM517.8781 166.29688L518.3781 161.96875L523.15936 161.96875L523.15936 163.375L519.76874 163.375L519.55 165.21875Q520.15936 164.89062 520.83124 164.89062Q522.05 164.89062 522.7375 165.65625Q523.4406 166.40625 523.4406 167.76562Q523.4406 168.59375 523.08124 169.25Q522.7375 169.89062 522.08124 170.26562Q521.4406 170.625 520.55 170.625Q519.78436 170.625 519.1125 170.3125Q518.45624 169.98438 518.0656 169.42188Q517.6906 168.85938 517.65936 168.125L519.34686 168.125Q519.39374 168.65625 519.70624 168.95312Q520.03436 169.25 520.55 169.25Q521.1281 169.25 521.425 168.84375Q521.7375 168.42188 521.7375 167.67188Q521.7375 166.9375 521.3781 166.5625Q521.03436 166.17188 520.3781 166.17188Q519.76874 166.17188 519.39374 166.48438L519.2375 166.64062L517.8781 166.29688Z" fill-rule="nonzero"/><path fill="#434343" d="M510.8781 166.29688L511.3781 161.96875L516.15936 161.96875L516.15936 163.375L512.76874 163.375L512.55 165.21875Q513.15936 164.89062 513.83124 164.89062Q515.05 164.89062 515.7375 165.65625Q516.4406 166.40625 516.4406 167.76562Q516.4406 168.59375 516.08124 169.25Q515.7375 169.89062 515.08124 170.26562Q514.4406 170.625 513.55 170.625Q512.78436 170.625 512.1125 170.3125Q511.45624 169.98438 511.0656 169.42188Q510.6906 168.85938 510.65936 168.125L512.34686 168.125Q512.39374 168.65625 512.70624 168.95312Q513.03436 169.25 513.55 169.25Q514.1281 169.25 514.425 168.84375Q514.7375 168.42188 514.7375 167.67188Q514.7375 166.9375 514.3781 166.5625Q514.03436 166.17188 513.3781 166.17188Q512.76874 166.17188 512.39374 166.48438L512.2375 166.64062L510.8781 166.29688ZM517.8781 166.29688L518.3781 161.96875L523.15936 161.96875L523.15936 163.375L519.76874 163.375L519.55 165.21875Q520.15936 164.89062 520.83124 164.89062Q522.05 164.89062 522.7375 165.65625Q523.4406 166.40625 523.4406 167.76562Q523.4406 168.59375 523.08124 169.25Q522.7375 169.89062 522.08124 170.26562Q521.4406 170.625 520.55 170.625Q519.78436 170.625 519.1125 170.3125Q518.45624 169.98438 518.0656 169.42188Q517.6906 168.85938 517.65936 168.125L519.34686 168.125Q519.39374 168.65625 519.70624 168.95312Q520.03436 169.25 520.55 169.25Q521.1281 169.25 521.425 168.84375Q521.7375 168.42188 521.7375 167.67188Q521.7375 166.9375 521.3781 166.5625Q521.03436 166.17188 520.3781 166.17188Q519.76874 166.17188 519.39374 166.48438L519.2375 166.64062L517.8781 166.29688Z" fill-rule="nonzero"/><path stroke="#ffffff" stroke-width="3.0" stroke-linejoin="round" stroke-linecap="round" d="M510.8781 196.29688L511.3781 191.96875L516.15936 191.96875L516.15936 193.375L512.76874 193.375L512.55 195.21875Q513.15936 194.89062 513.83124 194.89062Q515.05 194.89062 515.7375 195.65625Q516.4406 196.40625 516.4406 197.76562Q516.4406 198.59375 516.08124 199.25Q515.7375 199.89062 515.08124 200.26562Q514.4406 200.625 513.55 200.625Q512.78436 200.625 512.1125 200.3125Q511.45624 199.98438 511.0656 199.42188Q510.6906 198.85938 510.65936 198.125L512.34686 198.125Q512.39374 198.65625 512.70624 198.95312Q513.03436 199.25 513.55 199.25Q514.1281 199.25 514.425 198.84375Q514.7375 198.42188 514.7375 197.67188Q514.7375 196.9375 514.3781 196.5625Q514.03436 196.17188 513.3781 196.17188Q512.76874 196.17188 512.39374 196.48438L512.2375 196.64062L510.8781 196.29688ZM517.8781 196.29688L518.3781 191.96875L523.15936 191.96875L523.15936 193.375L519.76874 193.375L519.55 195.21875Q520.15936 194.89062 520.83124 194.89062Q522.05 194.89062 522.7375 195.65625Q523.4406 196.40625 523.4406 197.76562Q523.4406 198.59375 523.08124 199.25Q522.7375 199.89062 522.08124 200.26562Q521.4406 200.625 520.55 200.625Q519.78436 200.625 519.1125 200.3125Q518.45624 199.98438 518.0656 199.42188Q517.6906 198.85938 517.65936 198.125L519.34686 198.125Q519.39374 198.65625 519.70624 198.95312Q520.03436 199.25 520.55 199.25Q521.1281 199.25 521.425 198.84375Q521.7375 198.42188 521.7375 197.67188Q521.7375 196.9375 521.3781 196.5625Q521.03436 196.17188 520.3781 196.17188Q519.76874 196.17188 519.39374 196.48438L519.2375 196.64062L517.8781 196.29688Z" fill-rule="nonzero"/><path fill="#434343" d="M510.8781 196.29688L511.3781 191.96875L516.15936 191.96875L516.15936 193.375L512.76874 193.375L512.55 195.21875Q513.15936 194.89062 513.83124 194.89062Q515.05 194.89062 515.7375 195.65625Q516.4406 196.40625 516.4406 197.76562Q516.4406 198.59375 516.08124 199.25Q515.7375 199.89062 515.08124 200.26562Q514.4406 200.625 513.55 200.625Q512.78436 200.625 512.1125 200.3125Q511.45624 199.98438 511.0656 199.42188Q510.6906 198.85938 510.65936 198.125L512.34686 198.125Q512.39374 198.65625 512.70624 198.95312Q513.03436 199.25 513.55 199.25Q514.1281 199.25 514.425 198.84375Q514.7375 198.42188 514.7375 197.67188Q514.7375 196.9375 514.3781 196.5625Q514.03436 196.17188 513.3781 196.17188Q512.76874 196.17188 512.39374 196.48438L512.2375 196.64062L510.8781 196.29688ZM517.8781 196.29688L518.3781 191.96875L523.15936 191.96875L523.15936 193.375L519.76874 193.375L519.55 195.21875Q520.15936 194.89062 520.83124 194.89062Q522.05 194.89062 522.7375 195.65625Q523.4406 196.40625 523.4406 197.76562Q523.4406 198.59375 523.08124 199.25Q522.7375 199.89062 522.08124 200.26562Q521.4406 200.625 520.55 200.625Q519.78436 200.625 519.1125 200.3125Q518.45624 199.98438 518.0656 199.42188Q517.6906 198.85938 517.65936 198.125L519.34686 198.125Q519.39374 198.65625 519.70624 198.95312Q520.03436 199.25 520.55 199.25Q521.1281 199.25 521.425 198.84375Q521.7375 198.42188 521.7375 197.67188Q521.7375 196.9375 521.3781 196.5625Q521.03436 196.17188 520.3781 196.17188Q519.76874 196.17188 519.39374 196.48438L519.2375 196.64062L517.8781 196.29688Z" fill-rule="nonzero"/><path stroke="#ffffff" stroke-width="3.0" stroke-linejoin="round" stroke-linecap="round" d="M510.8781 227.29688L511.3781 222.96875L516.15936 222.96875L516.15936 224.375L512.76874 224.375L512.55 226.21875Q513.15936 225.89062 513.83124 225.89062Q515.05 225.89062 515.7375 226.65625Q516.4406 227.40625 516.4406 228.76562Q516.4406 229.59375 516.08124 230.25Q515.7375 230.89062 515.08124 231.26562Q514.4406 231.625 513.55 231.625Q512.78436 231.625 512.1125 231.3125Q511.45624 230.98438 511.0656 230.42188Q510.6906 229.85938 510.65936 229.125L512.34686 229.125Q512.39374 229.65625 512.70624 229.95312Q513.03436 230.25 513.55 230.25Q514.1281 230.25 514.425 229.84375Q514.7375 229.42188 514.7375 228.67188Q514.7375 227.9375 514.3781 227.5625Q514.03436 227.17188 513.3781 227.17188Q512.76874 227.17188 512.39374 227.48438L512.2375 227.64062L510.8781 227.29688ZM517.8781 227.29688L518.3781 222.96875L523.15936 222.96875L523.15936 224.375L519.76874 224.375L519.55 226.21875Q520.15936 225.89062 520.83124 225.89062Q522.05 225.89062 522.7375 226.65625Q523.4406 227.40625 523.4406 228.76562Q523.4406 229.59375 523.08124 230.25Q522.7375 230.89062 522.08124 231.26562Q521.4406 231.625 520.55 231.625Q519.78436 231.625 519.1125 231.3125Q518.45624 230.98438 518.0656 230.42188Q517.6906 229.85938 517.65936 229.125L519.34686 229.125Q519.39374 229.65625 519.70624 229.95312Q520.03436 230.25 520.55 230.25Q521.1281 230.25 521.425 229.84375Q521.7375 229.42188 521.7375 228.67188Q521.7375 227.9375 521.3781 227.5625Q521.03436 227.17188 520.3781 227.17188Q519.76874 227.17188 519.39374 227.48438L519.2375 227.64062L517.8781 227.29688Z" fill-rule="nonzero"/><path fill="#434343" d="M510.8781 227.29688L511.3781 222.96875L516.15936 222.96875L516.15936 224.375L512.76874 224.375L512.55 226.21875Q513.15936 225.89062 513.83124 225.89062Q515.05 225.89062 515.7375 226.65625Q516.4406 227.40625 516.4406 228.76562Q516.4406 229.59375 516.08124 230.25Q515.7375 230.89062 515.08124 231.26562Q514.4406 231.625 513.55 231.625Q512.78436 231.625 512.1125 231.3125Q511.45624 230.98438 511.0656 230.42188Q510.6906 229.85938 510.65936 229.125L512.34686 229.125Q512.39374 229.65625 512.70624 229.95312Q513.03436 230.25 513.55 230.25Q514.1281 230.25 514.425 229.84375Q514.7375 229.42188 514.7375 228.67188Q514.7375 227.9375 514.3781 227.5625Q514.03436 227.17188 513.3781 227.17188Q512.76874 227.17188 512.39374 227.48438L512.2375 227.64062L510.8781 227.29688ZM517.8781 227.29688L518.3781 222.96875L523.15936 222.96875L523.15936 224.375L519.76874 224.375L519.55 226.21875Q520.15936 225.89062 520.83124 225.89062Q522.05 225.89062 522.7375 226.65625Q523.4406 227.40625 523.4406 228.76562Q523.4406 229.59375 523.08124 230.25Q522.7375 230.89062 522.08124 231.26562Q521.4406 231.625 520.55 231.625Q519.78436 231.625 519.1125 231.3125Q518.45624 230.98438 518.0656 230.42188Q517.6906 229.85938 517.65936 229.125L519.34686 229.125Q519.39374 229.65625 519.70624 229.95312Q520.03436 230.25 520.55 230.25Q521.1281 230.25 521.425 229.84375Q521.7375 229.42188 521.7375 228.67188Q521.7375 227.9375 521.3781 227.5625Q521.03436 227.17188 520.3781 227.17188Q519.76874 227.17188 519.39374 227.48438L519.2375 227.64062L517.8781 227.29688Z" fill-rule="nonzero"/><path stroke="#ffffff" stroke-width="3.0" stroke-linejoin="round" stroke-linecap="round" d="M550.1219 252.875L550.1219 254.28125L549.96564 254.28125Q548.8094 254.29688 548.10626 254.875Q547.41876 255.45312 547.27814 256.48438Q547.95 255.79688 548.98126 255.79688Q550.10626 255.79688 550.7625 256.59375Q551.41876 257.39062 551.41876 258.6875Q551.41876 259.51562 551.0594 260.1875Q550.7 260.85938 550.02814 261.25Q549.3719 261.625 548.54376 261.625Q547.2 261.625 546.3719 260.6875Q545.54376 259.73438 545.54376 258.17188L545.54376 257.5625Q545.54376 256.17188 546.0594 255.10938Q546.59064 254.04688 547.5594 253.46875Q548.54376 252.89062 549.84064 252.875L550.1219 252.875ZM548.46564 257.15625Q548.0594 257.15625 547.71564 257.375Q547.3875 257.57812 547.23126 257.9375L547.23126 258.45312Q547.23126 259.29688 547.5594 259.78125Q547.90314 260.25 548.5125 260.25Q549.0594 260.25 549.3875 259.82812Q549.73126 259.39062 549.73126 258.70312Q549.73126 258.0 549.3875 257.57812Q549.04376 257.15625 548.46564 257.15625ZM558.27814 257.96875Q558.27814 259.73438 557.54376 260.6875Q556.8094 261.625 555.40314 261.625Q553.9969 261.625 553.2625 260.70312Q552.52814 259.78125 552.5125 258.0625L552.5125 256.48438Q552.5125 254.70312 553.2469 253.78125Q553.9969 252.84375 555.3875 252.84375Q556.77814 252.84375 557.5125 253.76562Q558.2625 254.6875 558.27814 256.40625L558.27814 257.96875ZM556.575 256.25Q556.575 255.1875 556.27814 254.70312Q555.9969 254.21875 555.3875 254.21875Q554.79376 254.21875 554.4969 254.6875Q554.21564 255.14062 554.2 256.125L554.2 258.1875Q554.2 259.23438 554.48126 259.75Q554.7625 260.25 555.40314 260.25Q556.0125 260.25 556.29376 259.76562Q556.575 259.28125 556.575 258.28125L556.575 256.25Z" fill-rule="nonzero"/><path fill="#434343" d="M550.1219 252.875L550.1219 254.28125L549.96564 254.28125Q548.8094 254.29688 548.10626 254.875Q547.41876 255.45312 547.27814 256.48438Q547.95 255.79688 548.98126 255.79688Q550.10626 255.79688 550.7625 256.59375Q551.41876 257.39062 551.41876 258.6875Q551.41876 259.51562 551.0594 260.1875Q550.7 260.85938 550.02814 261.25Q549.3719 261.625 548.54376 261.625Q547.2 261.625 546.3719 260.6875Q545.54376 259.73438 545.54376 258.17188L545.54376 257.5625Q545.54376 256.17188 546.0594 255.10938Q546.59064 254.04688 547.5594 253.46875Q548.54376 252.89062 549.84064 252.875L550.1219 252.875ZM548.46564 257.15625Q548.0594 257.15625 547.71564 257.375Q547.3875 257.57812 547.23126 257.9375L547.23126 258.45312Q547.23126 259.29688 547.5594 259.78125Q547.90314 260.25 548.5125 260.25Q549.0594 260.25 549.3875 259.82812Q549.73126 259.39062 549.73126 258.70312Q549.73126 258.0 549.3875 257.57812Q549.04376 257.15625 548.46564 257.15625ZM558.27814 257.96875Q558.27814 259.73438 557.54376 260.6875Q556.8094 261.625 555.40314 261.625Q553.9969 261.625 553.2625 260.70312Q552.52814 259.78125 552.5125 258.0625L552.5125 256.48438Q552.5125 254.70312 553.2469 253.78125Q553.9969 252.84375 555.3875 252.84375Q556.77814 252.84375 557.5125 253.76562Q558.2625 254.6875 558.27814 256.40625L558.27814 257.96875ZM556.575 256.25Q556.575 255.1875 556.27814 254.70312Q555.9969 254.21875 555.3875 254.21875Q554.79376 254.21875 554.4969 254.6875Q554.21564 255.14062 554.2 256.125L554.2 258.1875Q554.2 259.23438 554.48126 259.75Q554.7625 260.25 555.40314 260.25Q556.0125 260.25 556.29376 259.76562Q556.575 259.28125 556.575 258.28125L556.575 256.25Z" fill-rule="nonzero"/><path stroke="#ffffff" stroke-width="3.0" stroke-linejoin="round" stroke-linecap="round" d="M365.76688 286.48438L366.67313 286.48438Q367.31375 286.48438 367.62625 286.17188Q367.93875 285.84375 367.93875 285.3125Q367.93875 284.79688 367.62625 284.51562Q367.32938 284.21875 366.7825 284.21875Q366.29813 284.21875 365.97 284.48438Q365.64188 284.75 365.64188 285.17188L363.95438 285.17188Q363.95438 284.51562 364.31375 283.98438Q364.67313 283.45312 365.31375 283.15625Q365.97 282.84375 366.75125 282.84375Q368.095 282.84375 368.86063 283.5Q369.64188 284.14062 369.64188 285.28125Q369.64188 285.875 369.2825 286.375Q368.92313 286.85938 368.345 287.10938Q369.06375 287.375 369.4075 287.89062Q369.76688 288.40625 369.76688 289.10938Q369.76688 290.25 368.93875 290.9375Q368.11063 291.625 366.75125 291.625Q365.47 291.625 364.6575 290.95312Q363.845 290.26562 363.845 289.15625L365.5325 289.15625Q365.5325 289.64062 365.89188 289.95312Q366.26688 290.25 366.7825 290.25Q367.39188 290.25 367.73563 289.9375Q368.07938 289.60938 368.07938 289.07812Q368.07938 287.8125 366.67313 287.8125L365.76688 287.8125L365.76688 286.48438ZM376.06375 288.28125L377.0325 288.28125L377.0325 289.65625L376.06375 289.65625L376.06375 291.5L374.36063 291.5L374.36063 289.65625L370.87625 289.65625L370.79813 288.59375L374.345 282.96875L376.06375 282.96875L376.06375 288.28125ZM372.48563 288.28125L374.36063 288.28125L374.36063 285.28125L374.25125 285.46875L372.48563 288.28125Z" fill-rule="nonzero"/><path fill="#434343" d="M365.76688 286.48438L366.67313 286.48438Q367.31375 286.48438 367.62625 286.17188Q367.93875 285.84375 367.93875 285.3125Q367.93875 284.79688 367.62625 284.51562Q367.32938 284.21875 366.7825 284.21875Q366.29813 284.21875 365.97 284.48438Q365.64188 284.75 365.64188 285.17188L363.95438 285.17188Q363.95438 284.51562 364.31375 283.98438Q364.67313 283.45312 365.31375 283.15625Q365.97 282.84375 366.75125 282.84375Q368.095 282.84375 368.86063 283.5Q369.64188 284.14062 369.64188 285.28125Q369.64188 285.875 369.2825 286.375Q368.92313 286.85938 368.345 287.10938Q369.06375 287.375 369.4075 287.89062Q369.76688 288.40625 369.76688 289.10938Q369.76688 290.25 368.93875 290.9375Q368.11063 291.625 366.75125 291.625Q365.47 291.625 364.6575 290.95312Q363.845 290.26562 363.845 289.15625L365.5325 289.15625Q365.5325 289.64062 365.89188 289.95312Q366.26688 290.25 366.7825 290.25Q367.39188 290.25 367.73563 289.9375Q368.07938 289.60938 368.07938 289.07812Q368.07938 287.8125 366.67313 287.8125L365.76688 287.8125L365.76688 286.48438ZM376.06375 288.28125L377.0325 288.28125L377.0325 289.65625L376.06375 289.65625L376.06375 291.5L374.36063 291.5L374.36063 289.65625L370.87625 289.65625L370.79813 288.59375L374.345 282.96875L376.06375 282.96875L376.06375 288.28125ZM372.48563 288.28125L374.36063 288.28125L374.36063 285.28125L374.25125 285.46875L372.48563 288.28125Z" fill-rule="nonzero"/><path fill="#434343" d="M285.92188 344.63126L285.92188 334.58438L287.04688 334.58438L287.04688 335.5375Q287.4375 334.975 287.9375 334.70938Q288.4375 334.42813 289.15625 334.42813Q290.07812 334.42813 290.78125 334.9125Q291.5 335.38126 291.85938 336.25626Q292.21875 337.13126 292.21875 338.1625Q292.21875 339.27188 291.8125 340.17813Q291.42188 341.06876 290.65625 341.55313Q289.90625 342.02188 289.0625 342.02188Q288.45312 342.02188 287.95312 341.75626Q287.46875 341.49063 287.15625 341.1L287.15625 344.63126L285.92188 344.63126ZM287.03125 338.25626Q287.03125 339.6625 287.59375 340.33438Q288.17188 341.00626 288.98438 341.00626Q289.79688 341.00626 290.375 340.31876Q290.96875 339.61563 290.96875 338.1625Q290.96875 336.77188 290.39062 336.08438Q289.82812 335.39688 289.03125 335.39688Q288.25 335.39688 287.64062 336.13126Q287.03125 336.86563 287.03125 338.25626ZM298.89062 339.50626L300.17188 339.6625Q299.85938 340.7875 299.04688 341.4125Q298.23438 342.02188 296.96875 342.02188Q295.375 342.02188 294.4375 341.0375Q293.51562 340.05313 293.51562 338.2875Q293.51562 336.44376 294.45312 335.44376Q295.40625 334.42813 296.90625 334.42813Q298.35938 334.42813 299.28125 335.42813Q300.20312 336.4125 300.20312 338.20938Q300.20312 338.31876 300.20312 338.5375L294.78125 338.5375Q294.85938 339.725 295.45312 340.36563Q296.0625 341.00626 296.98438 341.00626Q297.65625 341.00626 298.125 340.64688Q298.60938 340.2875 298.89062 339.50626ZM294.85938 337.52188L298.90625 337.52188Q298.82812 336.6 298.4375 336.14688Q297.85938 335.44376 296.92188 335.44376Q296.0625 335.44376 295.48438 336.00626Q294.92188 336.56876 294.85938 337.52188ZM301.90625 341.85L301.90625 334.58438L303.01562 334.58438L303.01562 335.69376Q303.4375 334.9125 303.79688 334.67813Q304.15625 334.42813 304.59375 334.42813Q305.21875 334.42813 305.85938 334.81876L305.4375 335.95938Q304.98438 335.69376 304.53125 335.69376Q304.125 335.69376 303.79688 335.94376Q303.48438 336.17813 303.34375 336.61563Q303.14062 337.27188 303.14062 338.05313L303.14062 341.85L301.90625 341.85ZM306.4375 339.67813L307.64062 339.49063Q307.75 340.225 308.21875 340.61563Q308.6875 341.00626 309.53125 341.00626Q310.375 341.00626 310.78125 340.6625Q311.20312 340.31876 311.20312 339.85Q311.20312 339.42813 310.82812 339.19376Q310.57812 339.02188 309.57812 338.77188Q308.21875 338.42813 307.6875 338.17813Q307.17188 337.92813 306.90625 337.49063Q306.64062 337.05313 306.64062 336.52188Q306.64062 336.0375 306.85938 335.63126Q307.07812 335.20938 307.46875 334.92813Q307.75 334.725 308.23438 334.58438Q308.73438 334.42813 309.3125 334.42813Q310.15625 334.42813 310.79688 334.67813Q311.45312 334.9125 311.76562 335.33438Q312.07812 335.75626 312.1875 336.45938L310.98438 336.63126Q310.90625 336.06876 310.5 335.75626Q310.10938 335.44376 309.39062 335.44376Q308.54688 335.44376 308.1875 335.725Q307.82812 335.99063 307.82812 336.38126Q307.82812 336.61563 307.96875 336.80313Q308.125 337.00626 308.45312 337.13126Q308.625 337.19376 309.53125 337.44376Q310.84375 337.80313 311.35938 338.02188Q311.875 338.24063 312.15625 338.6625Q312.45312 339.08438 312.45312 339.70938Q312.45312 340.33438 312.09375 340.88126Q311.75 341.4125 311.0625 341.725Q310.39062 342.02188 309.53125 342.02188Q308.125 342.02188 307.375 341.42813Q306.64062 340.83438 306.4375 339.67813ZM313.46875 338.225Q313.46875 336.20938 314.59375 335.225Q315.51562 334.42813 316.875 334.42813Q318.35938 334.42813 319.3125 335.4125Q320.26562 336.38126 320.26562 338.11563Q320.26562 339.52188 319.84375 340.33438Q319.42188 341.13126 318.60938 341.58438Q317.8125 342.02188 316.875 342.02188Q315.34375 342.02188 314.40625 341.0375Q313.46875 340.05313 313.46875 338.225ZM314.73438 338.225Q314.73438 339.61563 315.34375 340.31876Q315.95312 341.00626 316.875 341.00626Q317.78125 341.00626 318.39062 340.30313Q319.0 339.6 319.0 338.17813Q319.0 336.83438 318.39062 336.14688Q317.78125 335.44376 316.875 335.44376Q315.95312 335.44376 315.34375 336.13126Q314.73438 336.81876 314.73438 338.225ZM321.92188 341.85L321.92188 334.58438L323.03125 334.58438L323.03125 335.61563Q323.82812 334.42813 325.34375 334.42813Q326.0 334.42813 326.54688 334.6625Q327.09375 334.89688 327.35938 335.2875Q327.64062 335.6625 327.75 336.19376Q327.82812 336.5375 327.82812 337.38126L327.82812 341.85L326.59375 341.85L326.59375 337.42813Q326.59375 336.67813 326.45312 336.31876Q326.3125 335.94376 325.9375 335.725Q325.57812 335.49063 325.07812 335.49063Q324.29688 335.49063 323.71875 335.99063Q323.15625 336.49063 323.15625 337.88126L323.15625 341.85L321.92188 341.85ZM334.65625 340.95938Q333.98438 341.5375 333.34375 341.7875Q332.71875 342.02188 331.98438 342.02188Q330.79688 342.02188 330.14062 341.44376Q329.5 340.85 329.5 339.92813Q329.5 339.39688 329.73438 338.95938Q329.98438 338.52188 330.375 338.25626Q330.78125 337.99063 331.26562 337.85Q331.625 337.75626 332.35938 337.6625Q333.85938 337.49063 334.5625 337.24063Q334.5625 336.99063 334.5625 336.92813Q334.5625 336.1625 334.21875 335.86563Q333.75 335.44376 332.8125 335.44376Q331.95312 335.44376 331.53125 335.75626Q331.125 336.05313 330.92188 336.81876L329.71875 336.6625Q329.875 335.88126 330.25 335.4125Q330.64062 334.94376 331.34375 334.69376Q332.0625 334.42813 333.0 334.42813Q333.92188 334.42813 334.5 334.64688Q335.07812 334.86563 335.34375 335.19376Q335.625 335.52188 335.73438 336.0375Q335.79688 336.35 335.79688 337.1625L335.79688 338.80313Q335.79688 340.52188 335.875 340.975Q335.95312 341.42813 336.1875 341.85L334.90625 341.85Q334.71875 341.45938 334.65625 340.95938ZM334.5625 338.20938Q333.89062 338.475 332.54688 338.67813Q331.79688 338.7875 331.46875 338.92813Q331.15625 339.05313 330.98438 339.31876Q330.8125 339.58438 330.8125 339.89688Q330.8125 340.39688 331.1875 340.725Q331.5625 341.05313 332.28125 341.05313Q333.0 341.05313 333.54688 340.74063Q334.09375 340.42813 334.35938 339.88126Q334.5625 339.475 334.5625 338.6625L334.5625 338.20938ZM337.89062 341.85L337.89062 331.83438L339.125 331.83438L339.125 341.85L337.89062 341.85ZM340.9375 333.24063L340.9375 331.83438L342.15625 331.83438L342.15625 333.24063L340.9375 333.24063ZM340.9375 341.85L340.9375 334.58438L342.15625 334.58438L342.15625 341.85L340.9375 341.85ZM346.60938 340.75626L346.78125 341.83438Q346.26562 341.94376 345.85938 341.94376Q345.1875 341.94376 344.8125 341.74063Q344.45312 341.52188 344.29688 341.17813Q344.15625 340.83438 344.15625 339.725L344.15625 335.55313L343.25 335.55313L343.25 334.58438L344.15625 334.58438L344.15625 332.7875L345.375 332.05313L345.375 334.58438L346.60938 334.58438L346.60938 335.55313L345.375 335.55313L345.375 339.7875Q345.375 340.31876 345.4375 340.475Q345.5 340.61563 345.64062 340.70938Q345.79688 340.80313 346.0625 340.80313Q346.28125 340.80313 346.60938 340.75626ZM347.875 344.64688L347.73438 343.49063Q348.14062 343.6 348.4375 343.6Q348.84375 343.6 349.09375 343.45938Q349.34375 343.33438 349.5 343.08438Q349.60938 342.89688 349.875 342.1625Q349.90625 342.06876 349.98438 341.86563L347.21875 334.58438L348.54688 334.58438L350.0625 338.7875Q350.35938 339.6 350.59375 340.475Q350.79688 339.63126 351.09375 338.81876L352.64062 334.58438L353.875 334.58438L351.10938 341.975Q350.67188 343.1625 350.42188 343.61563Q350.09375 344.225 349.67188 344.50626Q349.25 344.80313 348.65625 344.80313Q348.3125 344.80313 347.875 344.64688ZM353.78125 344.63126L353.78125 343.74063L361.9375 343.74063L361.9375 344.63126L353.78125 344.63126ZM367.65625 339.19376L368.875 339.35Q368.67188 340.6 367.84375 341.31876Q367.03125 342.02188 365.84375 342.02188Q364.35938 342.02188 363.45312 341.05313Q362.54688 340.06876 362.54688 338.24063Q362.54688 337.06876 362.9375 336.19376Q363.32812 335.30313 364.125 334.86563Q364.92188 334.42813 365.85938 334.42813Q367.03125 334.42813 367.78125 335.02188Q368.54688 335.61563 368.75 336.725L367.5625 336.9125Q367.39062 336.17813 366.95312 335.81876Q366.51562 335.44376 365.90625 335.44376Q364.96875 335.44376 364.39062 336.11563Q363.8125 336.77188 363.8125 338.20938Q363.8125 339.67813 364.375 340.35Q364.9375 341.00626 365.82812 341.00626Q366.5625 341.00626 367.04688 340.56876Q367.53125 340.11563 367.65625 339.19376ZM369.46875 338.225Q369.46875 336.20938 370.59375 335.225Q371.51562 334.42813 372.875 334.42813Q374.35938 334.42813 375.3125 335.4125Q376.26562 336.38126 376.26562 338.11563Q376.26562 339.52188 375.84375 340.33438Q375.42188 341.13126 374.60938 341.58438Q373.8125 342.02188 372.875 342.02188Q371.34375 342.02188 370.40625 341.0375Q369.46875 340.05313 369.46875 338.225ZM370.73438 338.225Q370.73438 339.61563 371.34375 340.31876Q371.95312 341.00626 372.875 341.00626Q373.78125 341.00626 374.39062 340.30313Q375.0 339.6 375.0 338.17813Q375.0 336.83438 374.39062 336.14688Q373.78125 335.44376 372.875 335.44376Q371.95312 335.44376 371.34375 336.13126Q370.73438 336.81876 370.73438 338.225ZM382.6875 341.85L382.6875 340.7875Q381.82812 342.02188 380.375 342.02188Q379.73438 342.02188 379.17188 341.77188Q378.625 341.52188 378.34375 341.14688Q378.07812 340.77188 377.96875 340.24063Q377.89062 339.88126 377.89062 339.08438L377.89062 334.58438L379.125 334.58438L379.125 338.61563Q379.125 339.58438 379.20312 339.9125Q379.3125 340.39688 379.6875 340.67813Q380.0625 340.95938 380.625 340.95938Q381.17188 340.95938 381.65625 340.67813Q382.14062 340.38126 382.34375 339.89688Q382.54688 339.4125 382.54688 338.475L382.54688 334.58438L383.78125 334.58438L383.78125 341.85L382.6875 341.85ZM385.92188 341.85L385.92188 334.58438L387.03125 334.58438L387.03125 335.61563Q387.82812 334.42813 389.34375 334.42813Q390.0 334.42813 390.54688 334.6625Q391.09375 334.89688 391.35938 335.2875Q391.64062 335.6625 391.75 336.19376Q391.82812 336.5375 391.82812 337.38126L391.82812 341.85L390.59375 341.85L390.59375 337.42813Q390.59375 336.67813 390.45312 336.31876Q390.3125 335.94376 389.9375 335.725Q389.57812 335.49063 389.07812 335.49063Q388.29688 335.49063 387.71875 335.99063Q387.15625 336.49063 387.15625 337.88126L387.15625 341.85L385.92188 341.85ZM396.60938 340.75626L396.78125 341.83438Q396.26562 341.94376 395.85938 341.94376Q395.1875 341.94376 394.8125 341.74063Q394.45312 341.52188 394.29688 341.17813Q394.15625 340.83438 394.15625 339.725L394.15625 335.55313L393.25 335.55313L393.25 334.58438L394.15625 334.58438L394.15625 332.7875L395.375 332.05313L395.375 334.58438L396.60938 334.58438L396.60938 335.55313L395.375 335.55313L395.375 339.7875Q395.375 340.31876 395.4375 340.475Q395.5 340.61563 395.64062 340.70938Q395.79688 340.80313 396.0625 340.80313Q396.28125 340.80313 396.60938 340.75626Z" fill-rule="nonzero"/><path fill="#434343" d="M31.150005 214.97188L21.13438 214.97188L21.13438 211.19063Q21.13438 210.19063 21.22813 209.65938Q21.35313 208.925 21.69688 208.425Q22.04063 207.925 22.66563 207.62813Q23.275005 207.31563 24.025005 207.31563Q25.306255 207.31563 26.19688 208.12813Q27.07188 208.94063 27.07188 211.06563L27.07188 213.64375L31.150005 213.64375L31.150005 214.97188ZM25.900005 213.64375L25.900005 211.05Q25.900005 209.76875 25.41563 209.2375Q24.931255 208.69063 24.07188 208.69063Q23.431255 208.69063 22.993755 209.00313Q22.54063 209.31563 22.400005 209.84688Q22.306255 210.175 22.306255 211.08125L22.306255 213.64375L25.900005 213.64375ZM28.806255 201.15938L28.962505 199.87813Q30.087505 200.19063 30.712505 201.00313Q31.32188 201.81563 31.32188 203.08125Q31.32188 204.675 30.337505 205.6125Q29.35313 206.53438 27.587505 206.53438Q25.743755 206.53438 24.743755 205.59688Q23.72813 204.64375 23.72813 203.14375Q23.72813 201.69063 24.72813 200.76875Q25.712505 199.84688 27.50938 199.84688Q27.618755 199.84688 27.837505 199.84688L27.837505 205.26875Q29.025005 205.19063 29.66563 204.59688Q30.306255 203.9875 30.306255 203.06563Q30.306255 202.39375 29.94688 201.925Q29.587505 201.44063 28.806255 201.15938ZM26.82188 205.19063L26.82188 201.14375Q25.900005 201.22188 25.44688 201.6125Q24.743755 202.19063 24.743755 203.12813Q24.743755 203.9875 25.306255 204.56563Q25.868755 205.12813 26.82188 205.19063ZM31.150005 198.14375L23.88438 198.14375L23.88438 197.03438L24.993755 197.03438Q24.212505 196.6125 23.97813 196.25313Q23.72813 195.89375 23.72813 195.45625Q23.72813 194.83125 24.118755 194.19063L25.25938 194.6125Q24.993755 195.06563 24.993755 195.51875Q24.993755 195.925 25.243755 196.25313Q25.47813 196.56563 25.91563 196.70625Q26.57188 196.90938 27.35313 196.90938L31.150005 196.90938L31.150005 198.14375ZM28.97813 193.6125L28.79063 192.40938Q29.525005 192.3 29.91563 191.83125Q30.306255 191.3625 30.306255 190.51875Q30.306255 189.675 29.962505 189.26875Q29.618755 188.84688 29.150005 188.84688Q28.72813 188.84688 28.493755 189.22188Q28.32188 189.47188 28.07188 190.47188Q27.72813 191.83125 27.47813 192.3625Q27.22813 192.87813 26.79063 193.14375Q26.35313 193.40938 25.82188 193.40938Q25.337505 193.40938 24.931255 193.19063Q24.50938 192.97188 24.22813 192.58125Q24.025005 192.3 23.88438 191.81563Q23.72813 191.31563 23.72813 190.7375Q23.72813 189.89375 23.97813 189.25313Q24.212505 188.59688 24.63438 188.28438Q25.056255 187.97188 25.75938 187.8625L25.931255 189.06563Q25.368755 189.14375 25.056255 189.55Q24.743755 189.94063 24.743755 190.65938Q24.743755 191.50313 25.025005 191.8625Q25.29063 192.22188 25.681255 192.22188Q25.91563 192.22188 26.10313 192.08125Q26.306255 191.925 26.431255 191.59688Q26.493755 191.425 26.743755 190.51875Q27.10313 189.20625 27.32188 188.69063Q27.54063 188.175 27.962505 187.89375Q28.38438 187.59688 29.00938 187.59688Q29.63438 187.59688 30.181255 187.95625Q30.712505 188.3 31.025005 188.9875Q31.32188 189.65938 31.32188 190.51875Q31.32188 191.925 30.72813 192.675Q30.13438 193.40938 28.97813 193.6125ZM27.525005 186.58125Q25.50938 186.58125 24.525005 185.45625Q23.72813 184.53438 23.72813 183.175Q23.72813 181.69063 24.712505 180.7375Q25.681255 179.78438 27.41563 179.78438Q28.82188 179.78438 29.63438 180.20625Q30.431255 180.62813 30.88438 181.44063Q31.32188 182.2375 31.32188 183.175Q31.32188 184.70625 30.337505 185.64375Q29.35313 186.58125 27.525005 186.58125ZM27.525005 185.31563Q28.91563 185.31563 29.618755 184.70625Q30.306255 184.09688 30.306255 183.175Q30.306255 182.26875 29.60313 181.65938Q28.900005 181.05 27.47813 181.05Q26.13438 181.05 25.44688 181.65938Q24.743755 182.26875 24.743755 183.175Q24.743755 184.09688 25.431255 184.70625Q26.118755 185.31563 27.525005 185.31563ZM31.150005 178.12813L23.88438 178.12813L23.88438 177.01875L24.91563 177.01875Q23.72813 176.22188 23.72813 174.70625Q23.72813 174.05 23.962505 173.50313Q24.19688 172.95625 24.587505 172.69063Q24.962505 172.40938 25.493755 172.3Q25.837505 172.22188 26.681255 172.22188L31.150005 172.22188L31.150005 173.45625L26.72813 173.45625Q25.97813 173.45625 25.618755 173.59688Q25.243755 173.7375 25.025005 174.1125Q24.79063 174.47188 24.79063 174.97188Q24.79063 175.75313 25.29063 176.33125Q25.79063 176.89375 27.181255 176.89375L31.150005 176.89375L31.150005 178.12813ZM30.25938 165.39375Q30.837505 166.06563 31.087505 166.70625Q31.32188 167.33125 31.32188 168.06563Q31.32188 169.25313 30.743755 169.90938Q30.150005 170.55 29.22813 170.55Q28.69688 170.55 28.25938 170.31563Q27.82188 170.06563 27.556255 169.675Q27.29063 169.26875 27.150005 168.78438Q27.056255 168.425 26.962505 167.69063Q26.79063 166.19063 26.54063 165.4875Q26.29063 165.4875 26.22813 165.4875Q25.462505 165.4875 25.16563 165.83125Q24.743755 166.3 24.743755 167.2375Q24.743755 168.09688 25.056255 168.51875Q25.35313 168.925 26.118755 169.12813L25.962505 170.33125Q25.181255 170.175 24.712505 169.8Q24.243755 169.40938 23.993755 168.70625Q23.72813 167.9875 23.72813 167.05Q23.72813 166.12813 23.94688 165.55Q24.16563 164.97188 24.493755 164.70625Q24.82188 164.425 25.337505 164.31563Q25.650005 164.25313 26.462505 164.25313L28.10313 164.25313Q29.82188 164.25313 30.275005 164.175Q30.72813 164.09688 31.150005 163.8625L31.150005 165.14375Q30.75938 165.33125 30.25938 165.39375ZM27.50938 165.4875Q27.775005 166.15938 27.97813 167.50313Q28.087505 168.25313 28.22813 168.58125Q28.35313 168.89375 28.618755 169.06563Q28.88438 169.2375 29.19688 169.2375Q29.69688 169.2375 30.025005 168.8625Q30.35313 168.4875 30.35313 167.76875Q30.35313 167.05 30.04063 166.50313Q29.72813 165.95625 29.181255 165.69063Q28.775005 165.4875 27.962505 165.4875L27.50938 165.4875ZM31.150005 162.15938L21.13438 162.15938L21.13438 160.925L31.150005 160.925L31.150005 162.15938ZM22.54063 159.1125L21.13438 159.1125L21.13438 157.89375L22.54063 157.89375L22.54063 159.1125ZM31.150005 159.1125L23.88438 159.1125L23.88438 157.89375L31.150005 157.89375L31.150005 159.1125ZM30.056255 153.44063L31.13438 153.26875Q31.243755 153.78438 31.243755 154.19063Q31.243755 154.8625 31.04063 155.2375Q30.82188 155.59688 30.47813 155.75313Q30.13438 155.89375 29.025005 155.89375L24.85313 155.89375L24.85313 156.8L23.88438 156.8L23.88438 155.89375L22.087505 155.89375L21.35313 154.675L23.88438 154.675L23.88438 153.44063L24.85313 153.44063L24.85313 154.675L29.087505 154.675Q29.618755 154.675 29.775005 154.6125Q29.91563 154.55 30.00938 154.40938Q30.10313 154.25313 30.10313 153.9875Q30.10313 153.76875 30.056255 153.44063ZM33.94688 152.175L32.79063 152.31563Q32.900005 151.90938 32.900005 151.6125Q32.900005 151.20625 32.75938 150.95625Q32.63438 150.70625 32.38438 150.55Q32.19688 150.44063 31.462505 150.175Q31.368755 150.14375 31.16563 150.06563L23.88438 152.83125L23.88438 151.50313L28.087505 149.9875Q28.900005 149.69063 29.775005 149.45625Q28.931255 149.25313 28.118755 148.95625L23.88438 147.40938L23.88438 146.175L31.275005 148.94063Q32.462505 149.37813 32.91563 149.62813Q33.525005 149.95625 33.806255 150.37813Q34.10313 150.8 34.10313 151.39375Q34.10313 151.7375 33.94688 152.175Z" fill-rule="nonzero"/><path fill="#000000" d="M56.025 78.750595L56.025 70.156845L59.259377 70.156845Q60.24375 70.156845 60.8375 70.42247Q61.43125 70.688095 61.759377 71.23497Q62.103127 71.76622 62.103127 72.35997Q62.103127 72.906845 61.80625 73.39122Q61.509377 73.875595 60.9 74.17247Q61.68125 74.406845 62.0875 74.969345Q62.509377 75.51622 62.509377 76.26622Q62.509377 76.85997 62.259377 77.39122Q62.009377 77.906845 61.634377 78.188095Q61.259377 78.469345 60.68125 78.60997Q60.11875 78.750595 59.30625 78.750595L56.025 78.750595ZM57.165627 73.76622L59.025 73.76622Q59.775 73.76622 60.103127 73.67247Q60.540627 73.54747 60.759377 73.250595Q60.978127 72.938095 60.978127 72.48497Q60.978127 72.063095 60.775 71.73497Q60.571877 71.406845 60.18125 71.29747Q59.80625 71.17247 58.884377 71.17247L57.165627 71.17247L57.165627 73.76622ZM57.165627 77.73497L59.30625 77.73497Q59.853127 77.73497 60.071877 77.688095Q60.478127 77.625595 60.728127 77.469345Q60.99375 77.29747 61.165627 76.98497Q61.3375 76.67247 61.3375 76.26622Q61.3375 75.781845 61.0875 75.42247Q60.853127 75.063095 60.415627 74.92247Q59.978127 74.781845 59.15 74.781845L57.165627 74.781845L57.165627 77.73497ZM63.946877 71.375595L63.946877 70.156845L65.00938 70.156845L65.00938 71.375595L63.946877 71.375595ZM63.946877 78.750595L63.946877 72.531845L65.00938 72.531845L65.00938 78.750595L63.946877 78.750595ZM66.74375 79.26622L67.775 79.42247Q67.8375 79.89122 68.13438 80.10997Q68.525 80.406845 69.19688 80.406845Q69.93125 80.406845 70.32188 80.10997Q70.72813 79.813095 70.86875 79.29747Q70.9625 78.969345 70.94688 77.938095Q70.25938 78.750595 69.22813 78.750595Q67.94688 78.750595 67.24375 77.82872Q66.54063 76.89122 66.54063 75.60997Q66.54063 74.719345 66.85313 73.969345Q67.18125 73.20372 67.79063 72.79747Q68.4 72.39122 69.22813 72.39122Q70.3375 72.39122 71.05625 73.281845L71.05625 72.531845L72.025 72.531845L72.025 77.906845Q72.025 79.35997 71.72813 79.969345Q71.43125 80.57872 70.79063 80.92247Q70.15 81.281845 69.2125 81.281845Q68.10313 81.281845 67.41563 80.781845Q66.72813 80.281845 66.74375 79.26622ZM67.61875 75.531845Q67.61875 76.750595 68.10313 77.313095Q68.5875 77.875595 69.32188 77.875595Q70.05625 77.875595 70.54063 77.313095Q71.04063 76.750595 71.04063 75.563095Q71.04063 74.42247 70.525 73.844345Q70.025 73.26622 69.30625 73.26622Q68.60313 73.26622 68.10313 73.844345Q67.61875 74.406845 67.61875 75.531845ZM76.69688 75.98497L77.75938 75.89122Q77.8375 76.54747 78.11875 76.95372Q78.4 77.35997 78.97813 77.625595Q79.57188 77.875595 80.30625 77.875595Q80.94688 77.875595 81.44688 77.688095Q81.94688 77.48497 82.18125 77.156845Q82.43125 76.813095 82.43125 76.42247Q82.43125 76.01622 82.19688 75.719345Q81.9625 75.406845 81.43125 75.20372Q81.07188 75.063095 79.88438 74.781845Q78.7125 74.500595 78.24375 74.250595Q77.61875 73.92247 77.32188 73.45372Q77.025 72.969345 77.025 72.375595Q77.025 71.73497 77.38438 71.17247Q77.75938 70.594345 78.4625 70.313095Q79.18125 70.01622 80.04063 70.01622Q80.99375 70.01622 81.72813 70.32872Q82.4625 70.625595 82.85313 71.23497Q83.24375 71.82872 83.275 72.57872L82.18125 72.656845Q82.0875 71.844345 81.57188 71.438095Q81.07188 71.01622 80.0875 71.01622Q79.05625 71.01622 78.5875 71.39122Q78.11875 71.76622 78.11875 72.29747Q78.11875 72.76622 78.44688 73.063095Q78.775 73.35997 80.15 73.67247Q81.54063 73.98497 82.05625 74.219345Q82.80625 74.57872 83.16563 75.10997Q83.525 75.625595 83.525 76.32872Q83.525 77.01622 83.13438 77.625595Q82.74375 78.219345 82.00938 78.563095Q81.275 78.89122 80.35313 78.89122Q79.18125 78.89122 78.38438 78.563095Q77.60313 78.219345 77.15 77.531845Q76.7125 76.844345 76.69688 75.98497ZM84.94688 71.375595L84.94688 70.156845L86.00938 70.156845L86.00938 71.375595L84.94688 71.375595ZM84.94688 78.750595L84.94688 72.531845L86.00938 72.531845L86.00938 78.750595L84.94688 78.750595ZM87.525 76.89122L88.55625 76.73497Q88.65 77.35997 89.04063 77.688095Q89.44688 78.01622 90.18125 78.01622Q90.9 78.01622 91.24375 77.73497Q91.60313 77.438095 91.60313 77.031845Q91.60313 76.67247 91.29063 76.469345Q91.07188 76.32872 90.2125 76.10997Q89.05625 75.813095 88.60313 75.60997Q88.16563 75.39122 87.93125 75.01622Q87.69688 74.64122 87.69688 74.17247Q87.69688 73.76622 87.88438 73.406845Q88.07188 73.04747 88.4 72.813095Q88.65 72.64122 89.07188 72.51622Q89.49375 72.39122 89.99375 72.39122Q90.7125 72.39122 91.25938 72.60997Q91.82188 72.813095 92.0875 73.17247Q92.35313 73.531845 92.44688 74.125595L91.41563 74.26622Q91.35313 73.79747 91.00938 73.531845Q90.68125 73.250595 90.05625 73.250595Q89.3375 73.250595 89.025 73.500595Q88.7125 73.73497 88.7125 74.063095Q88.7125 74.26622 88.8375 74.42247Q88.97813 74.594345 89.24375 74.70372Q89.4 74.76622 90.18125 74.969345Q91.30625 75.281845 91.74375 75.469345Q92.18125 75.656845 92.43125 76.01622Q92.68125 76.375595 92.68125 76.92247Q92.68125 77.45372 92.36875 77.92247Q92.07188 78.375595 91.49375 78.64122Q90.91563 78.89122 90.18125 78.89122Q88.9625 78.89122 88.32188 78.39122Q87.69688 77.875595 87.525 76.89122ZM97.24375 77.813095L97.4 78.73497Q96.94688 78.82872 96.60313 78.82872Q96.025 78.82872 95.7125 78.656845Q95.4 78.469345 95.25938 78.17247Q95.13438 77.875595 95.13438 76.92247L95.13438 73.344345L94.36875 73.344345L94.36875 72.531845L95.13438 72.531845L95.13438 70.98497L96.18125 70.35997L96.18125 72.531845L97.24375 72.531845L97.24375 73.344345L96.18125 73.344345L96.18125 76.98497Q96.18125 77.438095 96.22813 77.563095Q96.29063 77.688095 96.41563 77.76622Q96.54063 77.844345 96.775 77.844345Q96.9625 77.844345 97.24375 77.813095ZM102.19688 76.750595L103.29063 76.875595Q103.04063 77.82872 102.3375 78.35997Q101.63438 78.89122 100.55625 78.89122Q99.19688 78.89122 98.38438 78.04747Q97.5875 77.20372 97.5875 75.688095Q97.5875 74.125595 98.4 73.26622Q99.2125 72.39122 100.49375 72.39122Q101.74375 72.39122 102.525 73.23497Q103.32188 74.07872 103.32188 75.625595Q103.32188 75.719345 103.32188 75.906845L98.68125 75.906845Q98.74375 76.938095 99.25938 77.48497Q99.775 78.01622 100.55625 78.01622Q101.13438 78.01622 101.54063 77.719345Q101.9625 77.406845 102.19688 76.750595ZM98.74375 75.04747L102.2125 75.04747Q102.15 74.250595 101.82188 73.85997Q101.30625 73.250595 100.50938 73.250595Q99.775 73.250595 99.275 73.73497Q98.79063 74.219345 98.74375 75.04747ZM104.93125 78.750595L104.93125 72.531845L105.88438 72.531845L105.88438 73.469345Q106.24375 72.813095 106.54063 72.60997Q106.85313 72.39122 107.22813 72.39122Q107.75938 72.39122 108.30625 72.719345L107.94688 73.70372Q107.55625 73.469345 107.18125 73.469345Q106.82188 73.469345 106.54063 73.688095Q106.275 73.89122 106.16563 74.26622Q105.97813 74.82872 105.97813 75.48497L105.97813 78.750595L104.93125 78.750595Z" fill-rule="nonzero"/><path fill="#000000" d="M68.07188 109.12186L68.07188 100.52811L69.22813 100.52811L73.74375 107.27811L73.74375 100.52811L74.8375 100.52811L74.8375 109.12186L73.66563 109.12186L69.15 102.37186L69.15 109.12186L68.07188 109.12186ZM76.55625 106.01248Q76.55625 104.27811 77.50938 103.44998Q78.30625 102.76248 79.4625 102.76248Q80.74375 102.76248 81.55625 103.60623Q82.38438 104.43436 82.38438 105.91873Q82.38438 107.12186 82.025 107.80936Q81.66563 108.49686 80.9625 108.88748Q80.275 109.26248 79.4625 109.26248Q78.16563 109.26248 77.35313 108.43436Q76.55625 107.59061 76.55625 106.01248ZM77.63438 106.01248Q77.63438 107.19998 78.15 107.79373Q78.68125 108.38748 79.4625 108.38748Q80.25938 108.38748 80.775 107.79373Q81.29063 107.19998 81.29063 105.98123Q81.29063 104.82498 80.75938 104.23123Q80.24375 103.63748 79.4625 103.63748Q78.68125 103.63748 78.15 104.23123Q77.63438 104.80936 77.63438 106.01248ZM83.93125 109.12186L83.93125 102.90311L84.88438 102.90311L84.88438 103.84061Q85.24375 103.18436 85.54063 102.98123Q85.85313 102.76248 86.22813 102.76248Q86.75938 102.76248 87.30625 103.09061L86.94688 104.07498Q86.55625 103.84061 86.18125 103.84061Q85.82188 103.84061 85.54063 104.05936Q85.275 104.26248 85.16563 104.63748Q84.97813 105.19998 84.97813 105.85623L84.97813 109.12186L83.93125 109.12186ZM87.94688 109.12186L87.94688 102.90311L88.88438 102.90311L88.88438 103.77811Q89.18125 103.30936 89.66563 103.04373Q90.15 102.76248 90.775 102.76248Q91.4625 102.76248 91.9 103.04373Q92.35313 103.32498 92.525 103.84061Q93.275 102.76248 94.44688 102.76248Q95.38438 102.76248 95.86875 103.27811Q96.36875 103.77811 96.36875 104.85623L96.36875 109.12186L95.32188 109.12186L95.32188 105.19998Q95.32188 104.57498 95.2125 104.29373Q95.11875 104.01248 94.85313 103.84061Q94.5875 103.66873 94.2125 103.66873Q93.55625 103.66873 93.11875 104.10623Q92.69688 104.54373 92.69688 105.51248L92.69688 109.12186L91.63438 109.12186L91.63438 105.07498Q91.63438 104.37186 91.36875 104.02811Q91.11875 103.66873 90.54063 103.66873Q90.0875 103.66873 89.7125 103.90311Q89.3375 104.13748 89.16563 104.59061Q88.99375 105.04373 88.99375 105.88748L88.99375 109.12186L87.94688 109.12186ZM103.00938 108.35623Q102.41563 108.85623 101.86875 109.05936Q101.3375 109.26248 100.7125 109.26248Q99.68125 109.26248 99.13438 108.76248Q98.5875 108.26248 98.5875 107.48123Q98.5875 107.02811 98.79063 106.65311Q98.99375 106.26248 99.3375 106.04373Q99.68125 105.80936 100.10313 105.69998Q100.4 105.60623 101.04063 105.52811Q102.30625 105.38748 102.91563 105.16873Q102.91563 104.94998 102.91563 104.90311Q102.91563 104.24686 102.61875 103.98123Q102.2125 103.63748 101.41563 103.63748Q100.68125 103.63748 100.32188 103.90311Q99.9625 104.15311 99.79063 104.80936L98.75938 104.66873Q98.9 104.01248 99.22813 103.60623Q99.55625 103.19998 100.16563 102.98123Q100.775 102.76248 101.57188 102.76248Q102.36875 102.76248 102.86875 102.94998Q103.36875 103.13748 103.60313 103.41873Q103.8375 103.69998 103.93125 104.13748Q103.97813 104.40311 103.97813 105.10623L103.97813 106.51248Q103.97813 107.98123 104.04063 108.37186Q104.11875 108.76248 104.32188 109.12186L103.2125 109.12186Q103.05625 108.79373 103.00938 108.35623ZM102.91563 105.99686Q102.3375 106.23123 101.19688 106.40311Q100.54063 106.49686 100.275 106.62186Q100.00938 106.73123 99.85313 106.94998Q99.7125 107.16873 99.7125 107.44998Q99.7125 107.87186 100.025 108.15311Q100.35313 108.43436 100.9625 108.43436Q101.57188 108.43436 102.04063 108.16873Q102.525 107.90311 102.74375 107.43436Q102.91563 107.07498 102.91563 106.38748L102.91563 105.99686ZM105.91563 109.12186L105.91563 100.52811L106.97813 100.52811L106.97813 109.12186L105.91563 109.12186Z" fill-rule="nonzero"/><path fill="#000000" d="M75.07188 139.49312L75.07188 130.89937L78.32188 130.89937Q79.16563 130.89937 79.61875 130.9775Q80.25938 131.08687 80.68125 131.38374Q81.11875 131.68062 81.36875 132.21187Q81.63438 132.74312 81.63438 133.38374Q81.63438 134.4775 80.93125 135.24312Q80.24375 135.99312 78.41563 135.99312L76.2125 135.99312L76.2125 139.49312L75.07188 139.49312ZM76.2125 134.99312L78.43125 134.99312Q79.54063 134.99312 79.99375 134.58687Q80.4625 134.165 80.4625 133.415Q80.4625 132.88374 80.18125 132.50874Q79.91563 132.11812 79.47813 131.99312Q79.18125 131.915 78.41563 131.915L76.2125 131.915L76.2125 134.99312ZM87.19688 137.49312L88.29063 137.61812Q88.04063 138.57124 87.3375 139.1025Q86.63438 139.63374 85.55625 139.63374Q84.19688 139.63374 83.38438 138.79Q82.5875 137.94624 82.5875 136.43062Q82.5875 134.86812 83.4 134.00874Q84.2125 133.13374 85.49375 133.13374Q86.74375 133.13374 87.525 133.9775Q88.32188 134.82124 88.32188 136.36812Q88.32188 136.46187 88.32188 136.64937L83.68125 136.64937Q83.74375 137.68062 84.25938 138.2275Q84.775 138.75874 85.55625 138.75874Q86.13438 138.75874 86.54063 138.46187Q86.9625 138.14937 87.19688 137.49312ZM83.74375 135.79L87.2125 135.79Q87.15 134.99312 86.82188 134.6025Q86.30625 133.99312 85.50938 133.99312Q84.775 133.99312 84.275 134.4775Q83.79063 134.96187 83.74375 135.79ZM89.94688 141.88374L89.94688 133.27437L90.9 133.27437L90.9 134.07124Q91.24375 133.6025 91.66563 133.36812Q92.10313 133.13374 92.7125 133.13374Q93.50938 133.13374 94.11875 133.54Q94.72813 133.94624 95.025 134.69624Q95.3375 135.44624 95.3375 136.33687Q95.3375 137.29 94.99375 138.05562Q94.66563 138.82124 94.00938 139.2275Q93.35313 139.63374 92.63438 139.63374Q92.10313 139.63374 91.68125 139.415Q91.25938 139.18062 90.99375 138.8525L90.99375 141.88374L89.94688 141.88374ZM90.9 136.415Q90.9 137.61812 91.38438 138.19624Q91.86875 138.75874 92.55625 138.75874Q93.25938 138.75874 93.75938 138.165Q94.25938 137.57124 94.25938 136.32124Q94.25938 135.13374 93.775 134.55562Q93.29063 133.96187 92.60313 133.96187Q91.93125 133.96187 91.41563 134.58687Q90.9 135.21187 90.9 136.415ZM96.94688 141.88374L96.94688 133.27437L97.9 133.27437L97.9 134.07124Q98.24375 133.6025 98.66563 133.36812Q99.10313 133.13374 99.7125 133.13374Q100.50938 133.13374 101.11875 133.54Q101.72813 133.94624 102.025 134.69624Q102.3375 135.44624 102.3375 136.33687Q102.3375 137.29 101.99375 138.05562Q101.66563 138.82124 101.00938 139.2275Q100.35313 139.63374 99.63438 139.63374Q99.10313 139.63374 98.68125 139.415Q98.25938 139.18062 97.99375 138.8525L97.99375 141.88374L96.94688 141.88374ZM97.9 136.415Q97.9 137.61812 98.38438 138.19624Q98.86875 138.75874 99.55625 138.75874Q100.25938 138.75874 100.75938 138.165Q101.25938 137.57124 101.25938 136.32124Q101.25938 135.13374 100.775 134.55562Q100.29063 133.96187 99.60313 133.96187Q98.93125 133.96187 98.41563 134.58687Q97.9 135.21187 97.9 136.415ZM103.9 141.88374L103.775 140.89937Q104.11875 140.99312 104.38438 140.99312Q104.72813 140.99312 104.93125 140.86812Q105.15 140.75874 105.29063 140.55562Q105.38438 140.38374 105.61875 139.75874Q105.63438 139.68062 105.7125 139.50874L103.3375 133.27437L104.47813 133.27437L105.775 136.86812Q106.025 137.55562 106.22813 138.32124Q106.41563 137.58687 106.66563 136.89937L107.99375 133.27437L109.04063 133.27437L106.68125 139.6025Q106.29063 140.61812 106.0875 141.00874Q105.80625 141.54 105.43125 141.77437Q105.07188 142.02437 104.57188 142.02437Q104.275 142.02437 103.9 141.88374Z" fill-rule="nonzero"/><path fill="#000000" d="M71.69688 167.09874L72.75938 167.00499Q72.8375 167.66124 73.11875 168.06749Q73.4 168.47374 73.97813 168.73936Q74.57188 168.98936 75.30625 168.98936Q75.94688 168.98936 76.44688 168.80186Q76.94688 168.59874 77.18125 168.27061Q77.43125 167.92686 77.43125 167.53624Q77.43125 167.12999 77.19688 166.83311Q76.9625 166.52061 76.43125 166.31749Q76.07188 166.17686 74.88438 165.89561Q73.7125 165.61436 73.24375 165.36436Q72.61875 165.03624 72.32188 164.56749Q72.025 164.08311 72.025 163.48936Q72.025 162.84874 72.38438 162.28624Q72.75938 161.70811 73.4625 161.42686Q74.18125 161.12999 75.04063 161.12999Q75.99375 161.12999 76.72813 161.44249Q77.4625 161.73936 77.85313 162.34874Q78.24375 162.94249 78.275 163.69249L77.18125 163.77061Q77.0875 162.95811 76.57188 162.55186Q76.07188 162.12999 75.0875 162.12999Q74.05625 162.12999 73.5875 162.50499Q73.11875 162.87999 73.11875 163.41124Q73.11875 163.87999 73.44688 164.17686Q73.775 164.47374 75.15 164.78624Q76.54063 165.09874 77.05625 165.33311Q77.80625 165.69249 78.16563 166.22374Q78.525 166.73936 78.525 167.44249Q78.525 168.12999 78.13438 168.73936Q77.74375 169.33311 77.00938 169.67686Q76.275 170.00499 75.35313 170.00499Q74.18125 170.00499 73.38438 169.67686Q72.60313 169.33311 72.15 168.64561Q71.7125 167.95811 71.69688 167.09874ZM79.94688 169.86436L79.94688 163.64561L80.88438 163.64561L80.88438 164.52061Q81.57188 163.50499 82.86875 163.50499Q83.43125 163.50499 83.9 163.70811Q84.38438 163.91124 84.61875 164.23936Q84.85313 164.56749 84.94688 165.00499Q84.99375 165.30186 84.99375 166.03624L84.99375 169.86436L83.94688 169.86436L83.94688 166.08311Q83.94688 165.42686 83.82188 165.11436Q83.69688 164.80186 83.38438 164.61436Q83.07188 164.41124 82.65 164.41124Q81.97813 164.41124 81.47813 164.84874Q80.99375 165.27061 80.99375 166.45811L80.99375 169.86436L79.94688 169.86436ZM86.55625 166.75499Q86.55625 165.02061 87.50938 164.19249Q88.30625 163.50499 89.4625 163.50499Q90.74375 163.50499 91.55625 164.34874Q92.38438 165.17686 92.38438 166.66124Q92.38438 167.86436 92.025 168.55186Q91.66563 169.23936 90.9625 169.62999Q90.275 170.00499 89.4625 170.00499Q88.16563 170.00499 87.35313 169.17686Q86.55625 168.33311 86.55625 166.75499ZM87.63438 166.75499Q87.63438 167.94249 88.15 168.53624Q88.68125 169.12999 89.4625 169.12999Q90.25938 169.12999 90.775 168.53624Q91.29063 167.94249 91.29063 166.72374Q91.29063 165.56749 90.75938 164.97374Q90.24375 164.37999 89.4625 164.37999Q88.68125 164.37999 88.15 164.97374Q87.63438 165.55186 87.63438 166.75499ZM93.55625 166.75499Q93.55625 165.02061 94.50938 164.19249Q95.30625 163.50499 96.4625 163.50499Q97.74375 163.50499 98.55625 164.34874Q99.38438 165.17686 99.38438 166.66124Q99.38438 167.86436 99.025 168.55186Q98.66563 169.23936 97.9625 169.62999Q97.275 170.00499 96.4625 170.00499Q95.16563 170.00499 94.35313 169.17686Q93.55625 168.33311 93.55625 166.75499ZM94.63438 166.75499Q94.63438 167.94249 95.15 168.53624Q95.68125 169.12999 96.4625 169.12999Q97.25938 169.12999 97.775 168.53624Q98.29063 167.94249 98.29063 166.72374Q98.29063 165.56749 97.75938 164.97374Q97.24375 164.37999 96.4625 164.37999Q95.68125 164.37999 95.15 164.97374Q94.63438 165.55186 94.63438 166.75499ZM103.24375 168.92686L103.4 169.84874Q102.94688 169.94249 102.60313 169.94249Q102.025 169.94249 101.7125 169.77061Q101.4 169.58311 101.25938 169.28624Q101.13438 168.98936 101.13438 168.03624L101.13438 164.45811L100.36875 164.45811L100.36875 163.64561L101.13438 163.64561L101.13438 162.09874L102.18125 161.47374L102.18125 163.64561L103.24375 163.64561L103.24375 164.45811L102.18125 164.45811L102.18125 168.09874Q102.18125 168.55186 102.22813 168.67686Q102.29063 168.80186 102.41563 168.87999Q102.54063 168.95811 102.775 168.95811Q102.9625 168.95811 103.24375 168.92686ZM103.9 172.25499L103.775 171.27061Q104.11875 171.36436 104.38438 171.36436Q104.72813 171.36436 104.93125 171.23936Q105.15 171.12999 105.29063 170.92686Q105.38438 170.75499 105.61875 170.12999Q105.63438 170.05186 105.7125 169.87999L103.3375 163.64561L104.47813 163.64561L105.775 167.23936Q106.025 167.92686 106.22813 168.69249Q106.41563 167.95811 106.66563 167.27061L107.99375 163.64561L109.04063 163.64561L106.68125 169.97374Q106.29063 170.98936 106.0875 171.37999Q105.80625 171.91124 105.43125 172.14561Q105.07188 172.39561 104.57188 172.39561Q104.275 172.39561 103.9 172.25499Z" fill-rule="nonzero"/><path fill="#000000" d="M77.2125 197.22L78.3375 197.51688Q77.97813 198.9075 77.05625 199.64188Q76.13438 200.37625 74.79063 200.37625Q73.4 200.37625 72.525 199.81375Q71.65 199.25125 71.19688 198.18875Q70.74375 197.11063 70.74375 195.87625Q70.74375 194.5325 71.25938 193.5325Q71.775 192.5325 72.7125 192.01688Q73.66563 191.50125 74.80625 191.50125Q76.0875 191.50125 76.9625 192.1575Q77.85313 192.81375 78.19688 194.00125L77.07188 194.26688Q76.775 193.32938 76.19688 192.9075Q75.63438 192.47 74.775 192.47Q73.79063 192.47 73.11875 192.95438Q72.4625 193.42313 72.18125 194.22Q71.91563 195.01688 71.91563 195.87625Q71.91563 196.97 72.22813 197.7825Q72.55625 198.595 73.22813 199.00125Q73.9 199.4075 74.69688 199.4075Q75.65 199.4075 76.30625 198.86063Q76.97813 198.31375 77.2125 197.22ZM79.93125 200.23563L79.93125 194.01688L80.88438 194.01688L80.88438 194.95438Q81.24375 194.29813 81.54063 194.095Q81.85313 193.87625 82.22813 193.87625Q82.75938 193.87625 83.30625 194.20438L82.94688 195.18875Q82.55625 194.95438 82.18125 194.95438Q81.82188 194.95438 81.54063 195.17313Q81.275 195.37625 81.16563 195.75125Q80.97813 196.31375 80.97813 196.97L80.97813 200.23563L79.93125 200.23563ZM88.00938 199.47Q87.41563 199.97 86.86875 200.17313Q86.3375 200.37625 85.7125 200.37625Q84.68125 200.37625 84.13438 199.87625Q83.5875 199.37625 83.5875 198.595Q83.5875 198.14188 83.79063 197.76688Q83.99375 197.37625 84.3375 197.1575Q84.68125 196.92313 85.10313 196.81375Q85.4 196.72 86.04063 196.64188Q87.30625 196.50125 87.91563 196.2825Q87.91563 196.06375 87.91563 196.01688Q87.91563 195.36063 87.61875 195.095Q87.2125 194.75125 86.41563 194.75125Q85.68125 194.75125 85.32188 195.01688Q84.9625 195.26688 84.79063 195.92313L83.75938 195.7825Q83.9 195.12625 84.22813 194.72Q84.55625 194.31375 85.16563 194.095Q85.775 193.87625 86.57188 193.87625Q87.36875 193.87625 87.86875 194.06375Q88.36875 194.25125 88.60313 194.5325Q88.8375 194.81375 88.93125 195.25125Q88.97813 195.51688 88.97813 196.22L88.97813 197.62625Q88.97813 199.095 89.04063 199.48563Q89.11875 199.87625 89.32188 200.23563L88.2125 200.23563Q88.05625 199.9075 88.00938 199.47ZM87.91563 197.11063Q87.3375 197.345 86.19688 197.51688Q85.54063 197.61063 85.275 197.73563Q85.00938 197.845 84.85313 198.06375Q84.7125 198.2825 84.7125 198.56375Q84.7125 198.98563 85.025 199.26688Q85.35313 199.54813 85.9625 199.54813Q86.57188 199.54813 87.04063 199.2825Q87.525 199.01688 87.74375 198.54813Q87.91563 198.18875 87.91563 197.50125L87.91563 197.11063ZM90.94688 200.23563L90.94688 194.01688L91.88438 194.01688L91.88438 194.89188Q92.57188 193.87625 93.86875 193.87625Q94.43125 193.87625 94.9 194.07938Q95.38438 194.2825 95.61875 194.61063Q95.85313 194.93875 95.94688 195.37625Q95.99375 195.67313 95.99375 196.4075L95.99375 200.23563L94.94688 200.23563L94.94688 196.45438Q94.94688 195.79813 94.82188 195.48563Q94.69688 195.17313 94.38438 194.98563Q94.07188 194.7825 93.65 194.7825Q92.97813 194.7825 92.47813 195.22Q91.99375 195.64188 91.99375 196.82938L91.99375 200.23563L90.94688 200.23563ZM97.94688 200.23563L97.94688 191.64188L99.00938 191.64188L99.00938 196.54813L101.49375 194.01688L102.86875 194.01688L100.47813 196.31375L103.10313 200.23563L101.80625 200.23563L99.74375 197.04813L99.00938 197.76688L99.00938 200.23563L97.94688 200.23563ZM103.9 202.62625L103.775 201.64188Q104.11875 201.73563 104.38438 201.73563Q104.72813 201.73563 104.93125 201.61063Q105.15 201.50125 105.29063 201.29813Q105.38438 201.12625 105.61875 200.50125Q105.63438 200.42313 105.7125 200.25125L103.3375 194.01688L104.47813 194.01688L105.775 197.61063Q106.025 198.29813 106.22813 199.06375Q106.41563 198.32938 106.66563 197.64188L107.99375 194.01688L109.04063 194.01688L106.68125 200.345Q106.29063 201.36063 106.0875 201.75125Q105.80625 202.2825 105.43125 202.51688Q105.07188 202.76688 104.57188 202.76688Q104.275 202.76688 103.9 202.62625Z" fill-rule="nonzero"/><path fill="#000000" d="M83.49375 228.16939L84.525 228.02876Q84.55625 229.01314 84.88438 229.37251Q85.2125 229.73189 85.80625 229.73189Q86.22813 229.73189 86.54063 229.54439Q86.85313 229.34126 86.9625 229.01314Q87.0875 228.66939 87.0875 227.93501L87.0875 222.01314L88.2125 222.01314L88.2125 227.87251Q88.2125 228.95064 87.94688 229.54439Q87.69688 230.13814 87.13438 230.45064Q86.57188 230.74751 85.80625 230.74751Q84.68125 230.74751 84.07188 230.10689Q83.47813 229.45064 83.49375 228.16939ZM89.55625 227.49751Q89.55625 225.76314 90.50938 224.93501Q91.30625 224.24751 92.4625 224.24751Q93.74375 224.24751 94.55625 225.09126Q95.38438 225.91939 95.38438 227.40376Q95.38438 228.60689 95.025 229.29439Q94.66563 229.98189 93.9625 230.37251Q93.275 230.74751 92.4625 230.74751Q91.16563 230.74751 90.35313 229.91939Q89.55625 229.07564 89.55625 227.49751ZM90.63438 227.49751Q90.63438 228.68501 91.15 229.27876Q91.68125 229.87251 92.4625 229.87251Q93.25938 229.87251 93.775 229.27876Q94.29063 228.68501 94.29063 227.46626Q94.29063 226.31001 93.75938 225.71626Q93.24375 225.12251 92.4625 225.12251Q91.68125 225.12251 91.15 225.71626Q90.63438 226.29439 90.63438 227.49751ZM101.00938 228.32564L102.04063 228.46626Q101.86875 229.52876 101.16563 230.13814Q100.4625 230.74751 99.44688 230.74751Q98.16563 230.74751 97.38438 229.91939Q96.61875 229.07564 96.61875 227.51314Q96.61875 226.51314 96.94688 225.76314Q97.29063 224.99751 97.9625 224.62251Q98.65 224.24751 99.4625 224.24751Q100.4625 224.24751 101.10313 224.76314Q101.75938 225.26314 101.94688 226.21626L100.91563 226.37251Q100.775 225.74751 100.4 225.43501Q100.025 225.10689 99.49375 225.10689Q98.69688 225.10689 98.19688 225.68501Q97.69688 226.24751 97.69688 227.48189Q97.69688 228.74751 98.18125 229.31001Q98.66563 229.87251 99.43125 229.87251Q100.05625 229.87251 100.4625 229.49751Q100.88438 229.12251 101.00938 228.32564ZM102.94688 230.60689L102.94688 222.01314L104.00938 222.01314L104.00938 226.91939L106.49375 224.38814L107.86875 224.38814L105.47813 226.68501L108.10313 230.60689L106.80625 230.60689L104.74375 227.41939L104.00938 228.13814L104.00938 230.60689L102.94688 230.60689Z" fill-rule="nonzero"/><path fill="#000000" d="M85.025 260.97815L85.025 252.3844L86.16563 252.3844L86.16563 259.96252L90.4 259.96252L90.4 260.97815L85.025 260.97815ZM96.00938 260.21252Q95.41563 260.71252 94.86875 260.91565Q94.3375 261.11877 93.7125 261.11877Q92.68125 261.11877 92.13438 260.61877Q91.5875 260.11877 91.5875 259.33752Q91.5875 258.8844 91.79063 258.5094Q91.99375 258.11877 92.3375 257.90002Q92.68125 257.66565 93.10313 257.55627Q93.4 257.46252 94.04063 257.3844Q95.30625 257.24377 95.91563 257.02502Q95.91563 256.80627 95.91563 256.7594Q95.91563 256.10315 95.61875 255.83752Q95.2125 255.49377 94.41563 255.49377Q93.68125 255.49377 93.32188 255.7594Q92.9625 256.0094 92.79063 256.66565L91.75938 256.52502Q91.9 255.86877 92.22813 255.46252Q92.55625 255.05627 93.16563 254.83752Q93.775 254.61877 94.57188 254.61877Q95.36875 254.61877 95.86875 254.80627Q96.36875 254.99377 96.60313 255.27502Q96.8375 255.55627 96.93125 255.99377Q96.97813 256.2594 96.97813 256.96252L96.97813 258.36877Q96.97813 259.83752 97.04063 260.22815Q97.11875 260.61877 97.32188 260.97815L96.2125 260.97815Q96.05625 260.65002 96.00938 260.21252ZM95.91563 257.85315Q95.3375 258.08752 94.19688 258.2594Q93.54063 258.35315 93.275 258.47815Q93.00938 258.58752 92.85313 258.80627Q92.7125 259.02502 92.7125 259.30627Q92.7125 259.72815 93.025 260.0094Q93.35313 260.29065 93.9625 260.29065Q94.57188 260.29065 95.04063 260.02502Q95.525 259.7594 95.74375 259.29065Q95.91563 258.93127 95.91563 258.24377L95.91563 257.85315ZM98.38438 260.97815L98.38438 260.11877L102.35313 255.5719Q101.66563 255.60315 101.15 255.60315L98.61875 255.60315L98.61875 254.7594L103.7125 254.7594L103.7125 255.4469L100.3375 259.40002L99.68125 260.11877Q100.4 260.0719 101.00938 260.0719L103.9 260.0719L103.9 260.97815L98.38438 260.97815ZM103.9 263.36877L103.775 262.3844Q104.11875 262.47815 104.38438 262.47815Q104.72813 262.47815 104.93125 262.35315Q105.15 262.24377 105.29063 262.04065Q105.38438 261.86877 105.61875 261.24377Q105.63438 261.16565 105.7125 260.99377L103.3375 254.7594L104.47813 254.7594L105.775 258.35315Q106.025 259.04065 106.22813 259.80627Q106.41563 259.0719 106.66563 258.3844L107.99375 254.7594L109.04063 254.7594L106.68125 261.08752Q106.29063 262.10315 106.0875 262.49377Q105.80625 263.02502 105.43125 263.2594Q105.07188 263.5094 104.57188 263.5094Q104.275 263.5094 103.9 263.36877Z" fill-rule="nonzero"/><path fill="#000000" d="M75.69688 288.58377L76.75938 288.49002Q76.8375 289.14627 77.11875 289.55252Q77.4 289.95877 77.97813 290.2244Q78.57188 290.4744 79.30625 290.4744Q79.94688 290.4744 80.44688 290.2869Q80.94688 290.08377 81.18125 289.75565Q81.43125 289.4119 81.43125 289.02127Q81.43125 288.61502 81.19688 288.31815Q80.9625 288.00565 80.43125 287.80252Q80.07188 287.6619 78.88438 287.38065Q77.7125 287.0994 77.24375 286.8494Q76.61875 286.52127 76.32188 286.05252Q76.025 285.56815 76.025 284.9744Q76.025 284.33377 76.38438 283.77127Q76.75938 283.19315 77.4625 282.9119Q78.18125 282.61502 79.04063 282.61502Q79.99375 282.61502 80.72813 282.92752Q81.4625 283.2244 81.85313 283.83377Q82.24375 284.42752 82.275 285.17752L81.18125 285.25565Q81.0875 284.44315 80.57188 284.0369Q80.07188 283.61502 79.0875 283.61502Q78.05625 283.61502 77.5875 283.99002Q77.11875 284.36502 77.11875 284.89627Q77.11875 285.36502 77.44688 285.6619Q77.775 285.95877 79.15 286.27127Q80.54063 286.58377 81.05625 286.81815Q81.80625 287.17752 82.16563 287.70877Q82.525 288.2244 82.525 288.92752Q82.525 289.61502 82.13438 290.2244Q81.74375 290.81815 81.00938 291.1619Q80.275 291.49002 79.35313 291.49002Q78.18125 291.49002 77.38438 291.1619Q76.60313 290.81815 76.15 290.13065Q75.7125 289.44315 75.69688 288.58377ZM83.94688 291.3494L83.94688 285.13065L84.88438 285.13065L84.88438 286.00565Q85.18125 285.5369 85.66563 285.27127Q86.15 284.99002 86.775 284.99002Q87.4625 284.99002 87.9 285.27127Q88.35313 285.55252 88.525 286.06815Q89.275 284.99002 90.44688 284.99002Q91.38438 284.99002 91.86875 285.50565Q92.36875 286.00565 92.36875 287.08377L92.36875 291.3494L91.32188 291.3494L91.32188 287.42752Q91.32188 286.80252 91.2125 286.52127Q91.11875 286.24002 90.85313 286.06815Q90.5875 285.89627 90.2125 285.89627Q89.55625 285.89627 89.11875 286.33377Q88.69688 286.77127 88.69688 287.74002L88.69688 291.3494L87.63438 291.3494L87.63438 287.30252Q87.63438 286.5994 87.36875 286.25565Q87.11875 285.89627 86.54063 285.89627Q86.0875 285.89627 85.7125 286.13065Q85.3375 286.36502 85.16563 286.81815Q84.99375 287.27127 84.99375 288.11502L84.99375 291.3494L83.94688 291.3494ZM99.025 291.3494L99.025 290.42752Q98.29063 291.49002 97.04063 291.49002Q96.49375 291.49002 96.00938 291.2869Q95.54063 291.06815 95.30625 290.75565Q95.07188 290.42752 94.97813 289.95877Q94.91563 289.6619 94.91563 288.9744L94.91563 285.13065L95.97813 285.13065L95.97813 288.58377Q95.97813 289.39627 96.04063 289.69315Q96.13438 290.0994 96.44688 290.3494Q96.775 290.58377 97.25938 290.58377Q97.72813 290.58377 98.13438 290.3494Q98.55625 290.0994 98.72813 289.67752Q98.91563 289.25565 98.91563 288.45877L98.91563 285.13065L99.9625 285.13065L99.9625 291.3494L99.025 291.3494ZM101.74375 291.86502L102.775 292.02127Q102.8375 292.49002 103.13438 292.70877Q103.525 293.00565 104.19688 293.00565Q104.93125 293.00565 105.32188 292.70877Q105.72813 292.4119 105.86875 291.89627Q105.9625 291.56815 105.94688 290.5369Q105.25938 291.3494 104.22813 291.3494Q102.94688 291.3494 102.24375 290.42752Q101.54063 289.49002 101.54063 288.20877Q101.54063 287.31815 101.85313 286.56815Q102.18125 285.80252 102.79063 285.39627Q103.4 284.99002 104.22813 284.99002Q105.3375 284.99002 106.05625 285.88065L106.05625 285.13065L107.025 285.13065L107.025 290.50565Q107.025 291.95877 106.72813 292.56815Q106.43125 293.17752 105.79063 293.52127Q105.15 293.88065 104.2125 293.88065Q103.10313 293.88065 102.41563 293.38065Q101.72813 292.88065 101.74375 291.86502ZM102.61875 288.13065Q102.61875 289.3494 103.10313 289.9119Q103.5875 290.4744 104.32188 290.4744Q105.05625 290.4744 105.54063 289.9119Q106.04063 289.3494 106.04063 288.1619Q106.04063 287.02127 105.525 286.44315Q105.025 285.86502 104.30625 285.86502Q103.60313 285.86502 103.10313 286.44315Q102.61875 287.00565 102.61875 288.13065Z" fill-rule="nonzero"/><path fill="#434343" d="M186.14062 37.15L180.59375 22.837502L182.64062 22.837502L186.35938 33.228127Q186.8125 34.478127 187.10938 35.571877Q187.4375 34.4 187.89062 33.228127L191.75 22.837502L193.6875 22.837502L188.07812 37.15L186.14062 37.15ZM194.82812 24.853127L194.82812 22.837502L196.59375 22.837502L196.59375 24.853127L194.82812 24.853127ZM194.82812 37.15L194.82812 26.775002L196.59375 26.775002L196.59375 37.15L194.82812 37.15ZM198.78125 37.15L198.78125 22.837502L200.53125 22.837502L200.53125 37.15L198.78125 37.15ZM202.78125 37.15L202.78125 22.837502L204.53125 22.837502L204.53125 37.15L202.78125 37.15ZM213.59375 35.86875Q212.60938 36.696877 211.70312 37.040627Q210.79688 37.384377 209.76562 37.384377Q208.0625 37.384377 207.14062 36.55625Q206.21875 35.7125 206.21875 34.415627Q206.21875 33.65 206.5625 33.025Q206.92188 32.4 207.48438 32.025Q208.04688 31.634377 208.75 31.431252Q209.26562 31.306252 210.3125 31.165627Q212.4375 30.915627 213.4375 30.571877Q213.45312 30.212502 213.45312 30.103127Q213.45312 29.040627 212.95312 28.587502Q212.28125 27.993752 210.95312 27.993752Q209.70312 27.993752 209.10938 28.431252Q208.53125 28.868752 208.25 29.978127L206.53125 29.743752Q206.76562 28.634377 207.29688 27.962502Q207.82812 27.275002 208.84375 26.915627Q209.85938 26.540627 211.20312 26.540627Q212.53125 26.540627 213.35938 26.853127Q214.1875 27.165627 214.57812 27.650002Q214.96875 28.118752 215.125 28.837502Q215.21875 29.290627 215.21875 30.462502L215.21875 32.80625Q215.21875 35.259377 215.32812 35.915627Q215.4375 36.55625 215.78125 37.15L213.9375 37.15Q213.67188 36.603127 213.59375 35.86875ZM213.4375 31.946877Q212.48438 32.3375 210.5625 32.603127Q209.48438 32.759377 209.03125 32.9625Q208.59375 33.15 208.34375 33.525Q208.09375 33.9 208.09375 34.36875Q208.09375 35.071877 208.625 35.540627Q209.15625 36.009377 210.1875 36.009377Q211.20312 36.009377 211.98438 35.571877Q212.78125 35.11875 213.15625 34.353127Q213.4375 33.74375 213.4375 32.5875L213.4375 31.946877ZM217.5 38.009377L219.20312 38.259377Q219.3125 39.05625 219.79688 39.415627Q220.45312 39.9 221.59375 39.9Q222.8125 39.9 223.46875 39.415627Q224.14062 38.93125 224.375 38.05625Q224.51562 37.509377 224.5 35.790627Q223.34375 37.15 221.625 37.15Q219.48438 37.15 218.3125 35.603127Q217.14062 34.05625 217.14062 31.900002Q217.14062 30.415627 217.67188 29.165627Q218.21875 27.915627 219.23438 27.228127Q220.26562 26.540627 221.64062 26.540627Q223.46875 26.540627 224.67188 28.025002L224.67188 26.775002L226.28125 26.775002L226.28125 35.74375Q226.28125 38.165627 225.78125 39.165627Q225.29688 40.18125 224.21875 40.759377Q223.15625 41.353127 221.59375 41.353127Q219.75 41.353127 218.59375 40.525Q217.45312 39.696877 217.5 38.009377ZM218.95312 31.775002Q218.95312 33.821877 219.76562 34.759377Q220.57812 35.696877 221.79688 35.696877Q223.0 35.696877 223.8125 34.759377Q224.64062 33.821877 224.64062 31.837502Q224.64062 29.931252 223.79688 28.962502Q222.95312 27.993752 221.76562 27.993752Q220.59375 27.993752 219.76562 28.946877Q218.95312 29.900002 218.95312 31.775002ZM235.92188 33.80625L237.73438 34.040627Q237.3125 35.61875 236.14062 36.509377Q234.98438 37.384377 233.17188 37.384377Q230.90625 37.384377 229.5625 35.99375Q228.23438 34.5875 228.23438 32.05625Q228.23438 29.431252 229.57812 27.993752Q230.92188 26.540627 233.07812 26.540627Q235.15625 26.540627 236.46875 27.962502Q237.79688 29.368752 237.79688 31.946877Q237.79688 32.103127 237.78125 32.415627L230.04688 32.415627Q230.14062 34.11875 231.01562 35.025Q231.89062 35.93125 233.1875 35.93125Q234.15625 35.93125 234.82812 35.43125Q235.51562 34.915627 235.92188 33.80625ZM230.14062 30.962502L235.9375 30.962502Q235.82812 29.665627 235.28125 29.009377Q234.4375 27.993752 233.09375 27.993752Q231.89062 27.993752 231.0625 28.806252Q230.23438 29.603127 230.14062 30.962502ZM239.79688 37.15L239.79688 26.775002L241.375 26.775002L241.375 28.353127Q241.98438 27.243752 242.5 26.900002Q243.01562 26.540627 243.625 26.540627Q244.51562 26.540627 245.4375 27.103127L244.82812 28.743752Q244.1875 28.353127 243.54688 28.353127Q242.96875 28.353127 242.5 28.712502Q242.04688 29.056252 241.84375 29.665627Q241.5625 30.603127 241.5625 31.712502L241.5625 37.15L239.79688 37.15ZM253.04688 37.15L253.04688 22.837502L258.4375 22.837502Q259.875 22.837502 260.625 22.962502Q261.67188 23.150002 262.39062 23.650002Q263.10938 24.134377 263.53125 25.025002Q263.96875 25.915627 263.96875 26.978127Q263.96875 28.806252 262.79688 30.071877Q261.64062 31.321877 258.60938 31.321877L254.9375 31.321877L254.9375 37.15L253.04688 37.15ZM254.9375 29.634377L258.64062 29.634377Q260.46875 29.634377 261.23438 28.962502Q262.01562 28.275002 262.01562 27.025002Q262.01562 26.134377 261.5625 25.493752Q261.10938 24.853127 260.375 24.650002Q259.89062 24.525002 258.59375 24.525002L254.9375 24.525002L254.9375 29.634377ZM272.92188 33.80625L274.73438 34.040627Q274.3125 35.61875 273.14062 36.509377Q271.98438 37.384377 270.17188 37.384377Q267.90625 37.384377 266.5625 35.99375Q265.23438 34.5875 265.23438 32.05625Q265.23438 29.431252 266.57812 27.993752Q267.92188 26.540627 270.07812 26.540627Q272.15625 26.540627 273.46875 27.962502Q274.79688 29.368752 274.79688 31.946877Q274.79688 32.103127 274.78125 32.415627L267.04688 32.415627Q267.14062 34.11875 268.01562 35.025Q268.89062 35.93125 270.1875 35.93125Q271.15625 35.93125 271.82812 35.43125Q272.51562 34.915627 272.92188 33.80625ZM267.14062 30.962502L272.9375 30.962502Q272.82812 29.665627 272.28125 29.009377Q271.4375 27.993752 270.09375 27.993752Q268.89062 27.993752 268.0625 28.806252Q267.23438 29.603127 267.14062 30.962502ZM276.79688 37.15L276.79688 26.775002L278.375 26.775002L278.375 28.353127Q278.98438 27.243752 279.5 26.900002Q280.01562 26.540627 280.625 26.540627Q281.51562 26.540627 282.4375 27.103127L281.82812 28.743752Q281.1875 28.353127 280.54688 28.353127Q279.96875 28.353127 279.5 28.712502Q279.04688 29.056252 278.84375 29.665627Q278.5625 30.603127 278.5625 31.712502L278.5625 37.15L276.79688 37.15ZM283.10938 34.05625L284.85938 33.775Q285.0 34.821877 285.67188 35.384377Q286.34375 35.93125 287.54688 35.93125Q288.75 35.93125 289.32812 35.446877Q289.92188 34.946877 289.92188 34.290627Q289.92188 33.696877 289.40625 33.353127Q289.04688 33.11875 287.60938 32.759377Q285.67188 32.259377 284.92188 31.915627Q284.1875 31.556252 283.79688 30.931252Q283.40625 30.290627 283.40625 29.525002Q283.40625 28.837502 283.71875 28.243752Q284.04688 27.650002 284.59375 27.259377Q285.0 26.962502 285.70312 26.759377Q286.42188 26.540627 287.23438 26.540627Q288.45312 26.540627 289.375 26.900002Q290.29688 27.243752 290.73438 27.853127Q291.17188 28.446877 291.34375 29.446877L289.625 29.681252Q289.5 28.884377 288.9375 28.446877Q288.375 27.993752 287.35938 27.993752Q286.14062 27.993752 285.625 28.400002Q285.10938 28.790627 285.10938 29.321877Q285.10938 29.665627 285.32812 29.946877Q285.53125 30.228127 286.0 30.415627Q286.26562 30.509377 287.54688 30.853127Q289.42188 31.353127 290.15625 31.681252Q290.89062 31.993752 291.3125 32.603127Q291.73438 33.196877 291.73438 34.103127Q291.73438 34.978127 291.21875 35.759377Q290.70312 36.540627 289.73438 36.9625Q288.76562 37.384377 287.54688 37.384377Q285.53125 37.384377 284.46875 36.540627Q283.40625 35.696877 283.10938 34.05625ZM293.17188 31.962502Q293.17188 29.087502 294.76562 27.696877Q296.10938 26.540627 298.03125 26.540627Q300.17188 26.540627 301.51562 27.946877Q302.875 29.353127 302.875 31.821877Q302.875 33.821877 302.28125 34.978127Q301.6875 36.11875 300.53125 36.759377Q299.39062 37.384377 298.03125 37.384377Q295.84375 37.384377 294.5 35.99375Q293.17188 34.5875 293.17188 31.962502ZM294.96875 31.962502Q294.96875 33.9625 295.82812 34.946877Q296.70312 35.93125 298.03125 35.93125Q299.34375 35.93125 300.20312 34.946877Q301.07812 33.946877 301.07812 31.900002Q301.07812 29.978127 300.20312 28.993752Q299.32812 27.993752 298.03125 27.993752Q296.70312 27.993752 295.82812 28.993752Q294.96875 29.978127 294.96875 31.962502ZM304.8125 37.15L304.8125 26.775002L306.40625 26.775002L306.40625 28.259377Q307.54688 26.540627 309.70312 26.540627Q310.64062 26.540627 311.42188 26.884377Q312.21875 27.212502 312.60938 27.759377Q313.0 28.306252 313.15625 29.056252Q313.25 29.556252 313.25 30.775002L313.25 37.15L311.48438 37.15L311.48438 30.837502Q311.48438 29.759377 311.28125 29.228127Q311.07812 28.696877 310.54688 28.384377Q310.03125 28.071877 309.32812 28.071877Q308.20312 28.071877 307.39062 28.790627Q306.57812 29.493752 306.57812 31.478127L306.57812 37.15L304.8125 37.15ZM321.59375 35.86875Q320.60938 36.696877 319.70312 37.040627Q318.79688 37.384377 317.76562 37.384377Q316.0625 37.384377 315.14062 36.55625Q314.21875 35.7125 314.21875 34.415627Q314.21875 33.65 314.5625 33.025Q314.92188 32.4 315.48438 32.025Q316.04688 31.634377 316.75 31.431252Q317.26562 31.306252 318.3125 31.165627Q320.4375 30.915627 321.4375 30.571877Q321.45312 30.212502 321.45312 30.103127Q321.45312 29.040627 320.95312 28.587502Q320.28125 27.993752 318.95312 27.993752Q317.70312 27.993752 317.10938 28.431252Q316.53125 28.868752 316.25 29.978127L314.53125 29.743752Q314.76562 28.634377 315.29688 27.962502Q315.82812 27.275002 316.84375 26.915627Q317.85938 26.540627 319.20312 26.540627Q320.53125 26.540627 321.35938 26.853127Q322.1875 27.165627 322.57812 27.650002Q322.96875 28.118752 323.125 28.837502Q323.21875 29.290627 323.21875 30.462502L323.21875 32.80625Q323.21875 35.259377 323.32812 35.915627Q323.4375 36.55625 323.78125 37.15L321.9375 37.15Q321.67188 36.603127 321.59375 35.86875ZM321.4375 31.946877Q320.48438 32.3375 318.5625 32.603127Q317.48438 32.759377 317.03125 32.9625Q316.59375 33.15 316.34375 33.525Q316.09375 33.9 316.09375 34.36875Q316.09375 35.071877 316.625 35.540627Q317.15625 36.009377 318.1875 36.009377Q319.20312 36.009377 319.98438 35.571877Q320.78125 35.11875 321.15625 34.353127Q321.4375 33.74375 321.4375 32.5875L321.4375 31.946877ZM325.78125 37.15L325.78125 22.837502L327.53125 22.837502L327.53125 37.15L325.78125 37.15ZM329.82812 24.853127L329.82812 22.837502L331.59375 22.837502L331.59375 24.853127L329.82812 24.853127ZM329.82812 37.15L329.82812 26.775002L331.59375 26.775002L331.59375 37.15L329.82812 37.15ZM337.65625 35.571877L337.90625 37.134377Q337.17188 37.290627 336.57812 37.290627Q335.625 37.290627 335.09375 36.99375Q334.57812 36.68125 334.35938 36.196877Q334.14062 35.696877 334.14062 34.11875L334.14062 28.150002L332.85938 28.150002L332.85938 26.775002L334.14062 26.775002L334.14062 24.212502L335.89062 23.150002L335.89062 26.775002L337.65625 26.775002L337.65625 28.150002L335.89062 28.150002L335.89062 34.2125Q335.89062 34.9625 335.98438 35.18125Q336.07812 35.384377 336.28125 35.525Q336.5 35.65 336.89062 35.65Q337.17188 35.65 337.65625 35.571877ZM339.73438 41.15L339.54688 39.49375Q340.125 39.65 340.54688 39.65Q341.14062 39.65 341.48438 39.446877Q341.84375 39.259377 342.0625 38.915627Q342.23438 38.65 342.60938 37.603127Q342.65625 37.446877 342.76562 37.165627L338.82812 26.775002L340.71875 26.775002L342.875 32.790627Q343.29688 33.93125 343.625 35.18125Q343.9375 33.978127 344.34375 32.821877L346.5625 26.775002L348.32812 26.775002L344.375 37.321877Q343.75 39.040627 343.39062 39.68125Q342.92188 40.55625 342.3125 40.946877Q341.71875 41.353127 340.875 41.353127Q340.35938 41.353127 339.73438 41.15ZM366.26562 32.134377L368.15625 32.603127Q367.5625 34.946877 366.01562 36.18125Q364.46875 37.4 362.21875 37.4Q359.90625 37.4 358.45312 36.4625Q357.01562 35.509377 356.25 33.728127Q355.5 31.931252 355.5 29.884377Q355.5 27.650002 356.34375 25.993752Q357.20312 24.321877 358.78125 23.462502Q360.35938 22.587502 362.25 22.587502Q364.40625 22.587502 365.85938 23.681252Q367.32812 24.775002 367.90625 26.759377L366.04688 27.196877Q365.54688 25.634377 364.59375 24.931252Q363.65625 24.212502 362.21875 24.212502Q360.5625 24.212502 359.45312 25.009377Q358.34375 25.790627 357.89062 27.134377Q357.45312 28.462502 357.45312 29.868752Q357.45312 31.696877 357.98438 33.071877Q358.51562 34.43125 359.64062 35.103127Q360.76562 35.775 362.0625 35.775Q363.65625 35.775 364.76562 34.853127Q365.875 33.93125 366.26562 32.134377ZM369.17188 31.962502Q369.17188 29.087502 370.76562 27.696877Q372.10938 26.540627 374.03125 26.540627Q376.17188 26.540627 377.51562 27.946877Q378.875 29.353127 378.875 31.821877Q378.875 33.821877 378.28125 34.978127Q377.6875 36.11875 376.53125 36.759377Q375.39062 37.384377 374.03125 37.384377Q371.84375 37.384377 370.5 35.99375Q369.17188 34.5875 369.17188 31.962502ZM370.96875 31.962502Q370.96875 33.9625 371.82812 34.946877Q372.70312 35.93125 374.03125 35.93125Q375.34375 35.93125 376.20312 34.946877Q377.07812 33.946877 377.07812 31.900002Q377.07812 29.978127 376.20312 28.993752Q375.32812 27.993752 374.03125 27.993752Q372.70312 27.993752 371.82812 28.993752Q370.96875 29.978127 370.96875 31.962502ZM387.60938 37.15L387.60938 35.61875Q386.40625 37.384377 384.32812 37.384377Q383.40625 37.384377 382.60938 37.040627Q381.8125 36.68125 381.42188 36.15Q381.04688 35.61875 380.89062 34.8375Q380.78125 34.321877 380.78125 33.196877L380.78125 26.775002L382.53125 26.775002L382.53125 32.525Q382.53125 33.9 382.64062 34.384377Q382.8125 35.071877 383.34375 35.478127Q383.89062 35.86875 384.67188 35.86875Q385.46875 35.86875 386.15625 35.4625Q386.85938 35.05625 387.14062 34.36875Q387.4375 33.665627 387.4375 32.3375L387.4375 26.775002L389.1875 26.775002L389.1875 37.15L387.60938 37.15ZM390.8125 37.15L390.8125 26.775002L392.40625 26.775002L392.40625 28.259377Q393.54688 26.540627 395.70312 26.540627Q396.64062 26.540627 397.42188 26.884377Q398.21875 27.212502 398.60938 27.759377Q399.0 28.306252 399.15625 29.056252Q399.25 29.556252 399.25 30.775002L399.25 37.15L397.48438 37.15L397.48438 30.837502Q397.48438 29.759377 397.28125 29.228127Q397.07812 28.696877 396.54688 28.384377Q396.03125 28.071877 395.32812 28.071877Q394.20312 28.071877 393.39062 28.790627Q392.57812 29.493752 392.57812 31.478127L392.57812 37.15L390.8125 37.15ZM404.65625 35.571877L404.90625 37.134377Q404.17188 37.290627 403.57812 37.290627Q402.625 37.290627 402.09375 36.99375Q401.57812 36.68125 401.35938 36.196877Q401.14062 35.696877 401.14062 34.11875L401.14062 28.150002L399.85938 28.150002L399.85938 26.775002L401.14062 26.775002L401.14062 24.212502L402.89062 23.150002L402.89062 26.775002L404.65625 26.775002L404.65625 28.150002L402.89062 28.150002L402.89062 34.2125Q402.89062 34.9625 402.98438 35.18125Q403.07812 35.384377 403.28125 35.525Q403.5 35.65 403.89062 35.65Q404.17188 35.65 404.65625 35.571877Z" fill-rule="nonzero"/></svg>